<?xml version="1.0" encoding="UTF-8" standalone="no"?>
<!-- Created with Inkscape (http://www.inkscape.org/) -->

<svg
   xmlns:dc="http://purl.org/dc/elements/1.1/"
   xmlns:cc="http://creativecommons.org/ns#"
   xmlns:rdf="http://www.w3.org/1999/02/22-rdf-syntax-ns#"
   xmlns:svg="http://www.w3.org/2000/svg"
   xmlns="http://www.w3.org/2000/svg"
   xmlns:sodipodi="http://sodipodi.sourceforge.net/DTD/sodipodi-0.dtd"
   xmlns:inkscape="http://www.inkscape.org/namespaces/inkscape"
   width="1240"
   height="600"
   id="svg2"
   sodipodi:version="0.32"
   inkscape:version="0.91 r13725"
   sodipodi:docname="LogoSplash.svg"
   inkscape:output_extension="org.inkscape.output.svg.inkscape"
   version="1.1">
  <defs
     id="defs4">
    <inkscape:perspective
       sodipodi:type="inkscape:persp3d"
       inkscape:vp_x="0 : 526.18109 : 1"
       inkscape:vp_y="0 : 1000 : 0"
       inkscape:vp_z="744.09448 : 526.18109 : 1"
       inkscape:persp3d-origin="372.04724 : 350.78739 : 1"
       id="perspective10" />
    <inkscape:perspective
       id="perspective2447"
       inkscape:persp3d-origin="372.04724 : 350.78739 : 1"
       inkscape:vp_z="744.09448 : 526.18109 : 1"
       inkscape:vp_y="0 : 1000 : 0"
       inkscape:vp_x="0 : 526.18109 : 1"
       sodipodi:type="inkscape:persp3d" />
  </defs>
  <sodipodi:namedview
     id="base"
     pagecolor="#ffffff"
     bordercolor="#666666"
     borderopacity="1.0"
     gridtolerance="10000"
     guidetolerance="10"
     objecttolerance="10"
     inkscape:pageopacity="0.0"
     inkscape:pageshadow="2"
     inkscape:zoom="0.57456337"
     inkscape:cx="54.845837"
     inkscape:cy="487.20451"
     inkscape:document-units="px"
     inkscape:current-layer="layer1"
     showgrid="false"
     inkscape:window-width="1368"
     inkscape:window-height="849"
     inkscape:window-x="-8"
     inkscape:window-y="-8"
     inkscape:window-maximized="1" />
  <metadata
     id="metadata7">
    <rdf:RDF>
      <cc:Work
         rdf:about="">
        <dc:format>image/svg+xml</dc:format>
        <dc:type
           rdf:resource="http://purl.org/dc/dcmitype/StillImage" />
        <dc:title></dc:title>
      </cc:Work>
    </rdf:RDF>
  </metadata>
  <g
     inkscape:label="Layer 1"
     inkscape:groupmode="layer"
     id="layer1"
     transform="translate(0,-452.36218)">
    <path
       style="fill:#ffffff"
       d="m 595.78716,652.37006 c -0.0968,0.0968 -0.29664,2.07881 -0.44147,4.40242 l -0.25752,4.23073 -1.25083,-1.25083 c -0.68217,-0.68327 -1.46582,-1.76565 -1.75361,-2.41581 -0.71577,-1.61703 -1.10841,-1.4918 -0.85841,0.28205 0.51589,3.66026 1.49157,5.55045 3.62985,7.00217 1.06096,0.72031 1.71477,1.68187 2.64881,3.89964 l 1.23856,2.93085 -0.94425,0.24526 c -0.51556,0.1294 -1.4702,0.0431 -2.1215,-0.18394 -0.70037,-0.24416 -1.17725,-0.26577 -1.17725,-0.0491 0,0.57108 2.98577,2.41314 4.37789,2.69787 1.0065,0.20585 1.73269,0.92467 3.72795,3.69116 1.36495,1.89253 2.48939,3.59979 2.48939,3.78926 0,0.52426 -2.68229,1.30068 -3.777,1.09141 -1.65394,-0.31617 -0.8118,0.63315 1.05462,1.18951 1.2269,0.36573 2.27497,0.41982 3.58079,0.17168 1.72118,-0.32704 1.92547,-0.28693 2.88181,0.71126 0.56465,0.58937 1.62751,1.40454 2.36675,1.80266 2.56563,1.38169 1.68268,1.79742 -3.89963,1.86397 -3.7118,0.0443 -4.61658,0.18905 -6.00887,0.93199 -2.87958,1.53661 -2.64977,2.12848 1.42251,3.6789 1.86221,0.70899 2.49893,0.77504 4.3411,0.45373 1.18706,-0.20704 2.49441,-0.52101 2.90633,-0.69899 0.67291,-0.29075 0.71707,-0.2008 0.49052,0.93199 -0.13869,0.69343 -1.02763,2.54079 -1.97434,4.09584 l -1.71682,2.82049 1.07914,0.12263 c 0.96642,0.10698 1.10341,0.3084 1.32441,1.97434 0.26218,1.97647 2.15016,6.23771 4.4392,10.0066 1.02592,1.68918 1.26898,2.39766 0.94425,2.72239 -0.47235,0.47234 -0.59509,3.72338 -0.18394,4.79483 0.13735,0.35792 0.66711,0.81162 1.17724,1.00556 0.55662,0.21163 0.93199,0.67244 0.93199,1.15272 0,0.4818 0.50758,1.11381 1.27535,1.58193 0.70145,0.42768 1.69325,0.77177 2.20734,0.77257 1.25374,0.002 3.5808,-1.47052 3.5808,-2.26865 0,-0.352 0.47993,-1.02806 1.06688,-1.49609 0.94552,-0.75393 1.05864,-1.10261 1.03009,-3.07801 -0.0177,-1.22627 -0.21446,-2.42181 -0.44147,-2.64881 -0.28871,-0.28871 0.003,-1.05374 0.96878,-2.56296 1.94334,-3.03793 3.94999,-7.39938 4.52504,-9.82266 0.41266,-1.73894 0.63155,-2.0602 1.38572,-2.06019 0.85084,0 0.78966,-0.18502 -1.17725,-3.88737 -1.13602,-2.13834 -1.96969,-3.98815 -1.85171,-4.1081 0.11799,-0.11994 1.08922,0.0501 2.15829,0.38015 2.42097,0.74737 4.61317,0.49802 7.48042,-0.85841 l 2.17056,-1.03009 -0.8952,-0.94425 c -1.3666,-1.45467 -4.5834,-2.22629 -8.44921,-2.02339 -2.58107,0.13547 -3.38689,0.0411 -3.76474,-0.41694 -0.38043,-0.46118 -0.3816,-0.61551 0.0122,-0.74805 0.27366,-0.0921 1.42148,-0.91659 2.5507,-1.82718 1.9498,-1.57232 2.13579,-1.63214 3.70342,-1.31214 1.78463,0.36428 4.44303,-0.1434 5.1382,-0.98104 0.31315,-0.37733 -0.027,-0.49053 -1.50835,-0.49052 -1.18196,0 -2.1369,-0.22388 -2.50165,-0.58863 -0.52621,-0.5262 -0.44751,-0.77912 0.76031,-2.30544 0.74592,-0.94262 1.84379,-2.49443 2.44033,-3.4459 0.64963,-1.03616 1.48485,-1.81864 2.07245,-1.96208 1.49822,-0.36572 3.64525,-1.52693 4.42694,-2.39129 0.69264,-0.76592 0.67702,-0.77257 -1.09141,-0.36789 -2.62388,0.60044 -2.80979,0.16147 -1.34893,-3.28648 0.67867,-1.60178 1.40701,-2.98683 1.61872,-3.06575 0.99444,-0.37068 3.23323,-2.72304 3.74021,-3.93642 0.64393,-1.54113 1.28801,-5.13821 0.91973,-5.1382 -0.13452,0 -0.57067,0.60969 -0.96878,1.34893 -0.39811,0.73925 -1.21161,1.81326 -1.81492,2.39129 l -1.10367,1.05462 -0.28205,-3.97322 c -0.15493,-2.18523 -0.4012,-4.0518 -0.55184,-4.14489 -0.25679,-0.15871 -1.24216,3.59582 -1.82718,6.98991 l -0.25753,1.52061 -1.37345,-1.38572 c -0.87481,-0.87481 -1.72797,-2.35589 -2.32997,-4.05905 l -0.94425,-2.68559 0.19621,2.8818 c 0.15467,2.22287 0.52579,3.59247 1.63098,5.94755 l 1.43477,3.05349 -0.66221,2.29318 c -0.36686,1.26195 -1.16482,3.40541 -1.77813,4.75804 -1.26992,2.80075 -2.00616,3.08299 -3.66664,1.42251 -1.18632,-1.18633 -1.26717,-0.91782 -0.44146,1.42251 0.92507,2.62194 0.76788,3.26266 -1.27536,5.16272 -3.1179,2.89941 -4.83343,4.0515 -5.38345,3.64211 -0.27191,-0.2024 -1.22524,-0.85039 -2.1215,-1.44703 -0.89625,-0.59665 -1.87734,-1.65618 -2.18281,-2.3545 -0.52994,-1.21142 -0.55808,-1.2325 -0.58862,-0.28205 -0.0176,0.54789 0.32864,1.69176 0.7603,2.53844 0.43166,0.84667 0.78483,1.76981 0.78483,2.04792 0,0.7146 -2.53296,0.64477 -3.13932,-0.0858 -0.26869,-0.32374 -0.71016,-0.58864 -0.98104,-0.58862 -0.27089,0 -0.71236,0.26487 -0.98104,0.58862 -0.6468,0.77935 -3.13933,0.80029 -3.13933,0.0245 0,-0.31416 0.44147,-1.2283 0.98104,-2.0234 0.61397,-0.90474 0.96729,-1.97058 0.95651,-2.85728 l -0.0122,-1.4225 -0.55184,1.56966 c -0.30502,0.86332 -0.86,1.74624 -1.22629,1.96208 -0.36631,0.21583 -1.2668,0.90823 -1.99887,1.53287 -1.23466,1.05349 -1.40422,1.09613 -2.36676,0.58863 -0.57073,-0.30091 -2.15774,-1.60734 -3.51948,-2.90633 -2.71953,-2.59423 -2.89385,-3.19824 -1.87624,-6.08245 0.81827,-2.3192 0.74563,-2.45018 -0.5641,-1.14046 -1.77946,1.77948 -2.49364,1.52539 -3.777,-1.31214 -0.61009,-1.34893 -1.40875,-3.50567 -1.76587,-4.79483 l -0.63768,-2.34223 1.33667,-2.84502 c 0.9583,-2.01791 1.40461,-3.54262 1.52061,-5.29761 l 0.15942,-2.47713 -0.68673,1.86398 c -0.7873,2.12561 -2.62514,4.61087 -3.40911,4.61088 -0.32953,0 -0.62808,-0.69917 -0.79709,-1.86397 -0.36848,-2.5396 -1.45144,-6.83836 -1.66777,-6.62202 z m 35.19479,42.33186 1.64325,3.06575 c 1.37332,2.57745 1.55231,3.18013 1.12819,3.69116 -0.2779,0.33486 -0.72305,0.60088 -0.9933,0.60089 -0.27025,0 -0.89102,1.23426 -1.37346,2.73465 -0.48244,1.50039 -1.80912,4.39112 -2.95538,6.42581 -1.96495,3.4879 -2.07165,3.78522 -1.72908,5.30988 0.44971,2.00152 -0.0538,4.49374 -1.15272,5.6655 -2.62191,2.79563 -3.38672,3.43967 -4.31658,3.64211 -0.56833,0.12373 -1.25082,0.29703 -1.52061,0.38015 -0.38342,0.11812 -0.49052,4.21973 -0.49052,18.79917 l 0,18.65202 -27.46911,0 -27.46911,0 0,-29.84813 0,-29.83587 1.75361,-0.78483 c 5.46244,-2.41629 18.52294,-4.32752 33.6374,-4.91746 3.81382,-0.14886 7.08517,-0.37378 7.27195,-0.50278 0.18679,-0.12901 0.72914,-0.86493 1.20178,-1.64325 l 0.85841,-1.4225 -7.75022,0.11036 c -17.00087,0.22327 -33.9425,2.94374 -39.03311,6.27866 l -1.47156,0.96877 0,25.50703 0,25.49477 -2.19508,0 c -1.87146,0 -2.16058,-0.0991 -2.04792,-0.68673 0.0724,-0.3777 0.68408,-0.85942 1.3612,-1.07914 1.17686,-0.38189 1.20881,-0.44949 0.69899,-1.42251 -0.72617,-1.38594 -2.5107,-2.0561 -4.89294,-1.82719 -1.86686,0.17939 -1.97235,0.14985 -2.15829,-0.82162 -1.40382,-7.33469 -3.80199,-9.54176 -10.6688,-9.79813 -2.46299,-0.0919 -3.64211,0.004 -3.64211,0.29431 0,0.23667 0.25641,0.4292 0.57636,0.42921 0.31995,0 1.37947,0.77032 2.35449,1.70455 1.8891,1.81008 2.21232,2.98488 1.17725,4.35337 -0.31688,0.41895 -0.57636,1.34603 -0.57636,2.06018 l 0,1.29988 -2.08471,0 c -1.55743,0 -2.31149,0.20948 -2.95538,0.80936 l -0.85841,0.79709 -0.40468,-1.06688 c -0.76554,-2.01353 -0.34305,-3.00085 1.6923,-3.97321 1.68075,-0.80297 1.86397,-1.02282 1.86397,-2.2196 0,-1.01836 -0.30987,-1.59494 -1.31214,-2.4526 l -1.29988,-1.11593 1.20178,-2.15829 c 1.05177,-1.87892 1.21403,-2.53649 1.21403,-5.11367 0,-2.17319 -0.18823,-3.24274 -0.69899,-4.02226 -0.76195,-1.16289 -1.85171,-1.42236 -1.85171,-0.44147 0,0.89581 -2.15866,2.90632 -3.1148,2.90633 -0.95697,0 -1.0116,-0.42693 -0.25752,-1.87624 1.14559,-2.20179 3.73785,-3.86213 6.69559,-4.26752 l 1.77814,-0.24526 -0.87068,1.92529 c -1.20595,2.646 -1.24986,7.07406 -0.0858,8.63315 1.52769,2.04616 2.6944,2.63551 5.18725,2.61202 5.08095,-0.0479 7.34372,-2.70809 7.08801,-8.33884 -0.13646,-3.00507 -0.19836,-3.16739 -1.66777,-4.6722 l -1.52061,-1.5574 1.16499,-1.8885 c 2.80677,-4.58022 2.72445,-7.45727 -0.31884,-11.47817 -0.83058,-1.09739 -1.61693,-2.43534 -1.75361,-2.9799 -0.39467,-1.57249 -1.96617,-2.55072 -4.09584,-2.55071 -1.21042,0 -2.03508,-0.21349 -2.36676,-0.61315 -0.90119,-1.08587 -2.64422,-1.74135 -4.62315,-1.74134 -2.0141,0 -2.82419,0.44201 -5.48156,2.91859 -1.21386,1.13128 -1.48868,1.20176 -4.27978,1.20177 -3.13168,0 -4.02615,0.51028 -2.29318,1.29988 0.53919,0.24568 1.24301,1.0822 1.56966,1.86398 1.60546,3.8424 4.93642,6.32164 7.93416,5.91076 1.85649,-0.25446 4.41204,-1.40565 5.19951,-2.35449 0.44506,-0.53627 0.62177,-0.51634 1.61872,0.22073 0.96174,0.71105 1.45533,0.78955 3.49495,0.57636 l 2.37902,-0.24526 0,1.3244 c 0,0.84198 -0.46375,2.01797 -1.27535,3.22517 l -1.27535,1.8885 -5.10141,0.0122 c -4.53047,0.0101 -5.29775,0.10894 -6.76917,0.89519 -5.29552,2.82968 -8.63286,8.74917 -9.60193,17.00878 -0.8982,7.65551 1.3049,13.19562 6.70786,16.86162 1.09086,0.74016 1.9933,1.48549 1.99887,1.64324 0.0204,0.57823 -2.06406,0.77942 -3.51948,0.34336 -2.42409,-0.72627 -4.08034,0.22908 -4.56184,2.63655 -0.25305,1.26525 0.34348,1.76812 0.77257,0.64993 0.48879,-1.27377 1.65702,-0.60258 2.72239,1.56967 0.8153,1.66237 1.2542,2.16643 1.93755,2.17055 1.90235,0.0115 2.66107,0.44022 2.66107,1.52061 0,1.35852 -1.01985,2.78369 -1.9866,2.7837 -0.41942,0 -0.76031,0.20659 -0.76031,0.45373 0,0.57631 4.8735,0.21225 6.38902,-0.47826 0.58459,-0.26636 1.40161,-1.08135 1.82719,-1.80266 0.96071,-1.62828 1.50242,-1.63496 5.37119,-0.0858 3.72697,1.49235 8.69047,2.42373 11.33101,2.13376 l 1.96208,-0.20847 -1.86398,0.98104 c -3.59139,1.89781 -8.65888,2.67974 -11.15932,1.72908 -1.28432,-0.48829 -1.68404,-1.0185 -1.6923,-2.23186 -0.005,-0.74401 -0.21941,-0.88295 -1.36119,-0.88294 -3.66769,0 -4.60129,1.73 -3.69116,6.85502 0.0924,0.52051 -0.10699,0.81705 -0.63768,0.91972 -1.82035,0.35221 -3.39446,1.4559 -4.92972,3.4459 -1.76988,2.29409 -3.6896,3.69115 -5.05236,3.69116 -0.47326,0 -0.74664,0.17641 -0.61315,0.39242 0.13339,0.21583 0.70126,0.3924 1.26309,0.39242 0.56183,0 1.8303,0.48324 2.82049,1.06688 0.99019,0.58364 2.50901,1.15678 3.37233,1.27535 l 1.56966,0.20847 -0.0245,1.96208 c -0.0106,1.07837 -0.14776,2.23798 -0.30658,2.57523 -0.2537,0.53878 0.0443,0.57485 2.44034,0.31884 3.52567,-0.37672 4.77843,-1.05921 6.6956,-3.65438 1.86182,-2.52026 2.37902,-2.91035 2.37902,-1.80266 0,1.93085 -1.10046,3.43255 -3.85058,5.26083 -7.51874,4.99845 -11.06123,10.4281 -11.06123,16.94746 0,3.59141 1.294,7.15302 4.19395,11.49042 2.4797,3.70885 3.63391,6.51985 2.95538,7.19838 -0.21723,0.21723 -0.55457,0.12085 -0.85841,-0.24526 -0.78818,-0.9497 -2.32074,-0.72047 -3.58079,0.53957 -0.96948,0.96948 -1.14046,1.4513 -1.14046,3.15159 0,2.13487 0.60036,3.68924 1.87624,4.84389 0.77534,0.70167 0.76287,0.71835 -0.35563,2.74691 -0.78052,1.4156 -1.12326,2.60324 -1.1282,3.8751 -0.007,1.70944 0.15781,2.00886 2.48939,4.54955 1.37511,1.49846 2.59172,2.97506 2.69786,3.27426 0.4031,1.1361 0.86523,-0.1842 0.91973,-2.6243 0.065,-2.91153 0.70908,-3.94115 2.71012,-4.31657 0.6941,-0.13021 1.76903,-0.56865 2.37902,-0.96876 1.09843,-0.72059 1.11816,-0.71447 2.24413,0.23298 1.04876,0.88246 3.33583,1.31184 3.91189,0.73578 0.12042,-0.12043 0.0238,-0.7213 -0.20847,-1.33669 -0.35271,-0.93446 -0.25813,-1.47882 0.57636,-3.32325 l 1.00557,-2.20734 0.84614,2.07245 c 0.46524,1.14097 1.06369,2.51391 1.33667,3.05348 0.64952,1.28387 2.35139,1.51912 3.1148,0.42923 0.51552,-0.73602 0.63433,-0.51316 1.64324,2.97989 1.25421,4.3423 1.42588,7.873 0.45373,9.3566 -1.16735,1.7816 0.17991,1.029 2.66107,-1.4838 3.55891,-3.6041 5.72386,-8.79541 5.73909,-13.75904 0.005,-1.71773 0.076,-1.87212 0.79709,-1.64324 1.59272,0.50551 3.07658,-0.24922 5.8004,-2.96765 1.8136,-1.81 3.03404,-2.72239 3.64211,-2.72238 0.73209,0 0.80991,-0.098 0.41694,-0.49052 -0.33427,-0.33393 -1.89916,-0.48878 -4.90519,-0.49052 -5.50887,-0.003 -6.1158,-0.33766 -9.01331,-4.9052 -1.18275,-1.86446 -4.13471,-3.76927 -6.74465,-4.35336 l -2.15829,-0.47826 1.09141,-0.6622 c 2.8827,-1.76668 4.81797,-4.82211 5.54287,-8.74352 0.5558,-3.00656 1.82768,-5.84671 3.21291,-7.17385 0.62957,-0.60317 1.19253,-1.02417 1.25082,-0.93199 0.0583,0.0922 0.68755,1.40778 1.41025,2.9186 7.83151,16.37178 24.29917,31.99373 46.50128,44.10993 3.20664,1.75 6.23321,3.1762 6.72012,3.1762 2.8768,0 18.21777,-9.34945 27.48137,-16.75128 10.87581,-8.69001 20.20827,-19.76011 25.13914,-29.8236 1.03575,-2.11388 1.93938,-3.92909 2.01114,-4.02226 0.0718,-0.0932 0.73373,0.42533 1.47155,1.14046 1.57203,1.52366 2.7563,4.08718 3.4827,7.54174 0.86404,4.10916 2.57869,6.78803 5.46929,8.55957 l 1.07914,0.6622 -2.15828,0.47826 c -2.60994,0.58408 -5.5619,2.48889 -6.74465,4.35336 -2.89751,4.56755 -3.50445,4.90203 -9.0133,4.9052 -3.00604,0.002 -4.57092,0.15658 -4.9052,0.49052 -0.39297,0.39256 -0.31514,0.49051 0.41694,0.49052 0.60807,0 1.82852,0.91239 3.64211,2.72238 2.72382,2.71842 4.20768,3.47316 5.8004,2.96765 0.72114,-0.22888 0.79183,-0.0745 0.79709,1.64324 0.0152,4.96363 2.18018,10.15494 5.73909,13.75904 2.48116,2.5128 3.82842,3.2655 2.66106,1.4838 -0.96836,-1.4779 -0.79986,-5.0221 0.44147,-9.31984 1.06147,-3.67497 1.08585,-3.70895 1.82719,-2.9676 0.41371,0.41368 1.12907,0.69261 1.59419,0.62539 0.88933,-0.12851 1.30436,-0.76972 2.68559,-4.15715 l 0.84615,-2.07245 1.00557,2.20734 c 0.83448,1.84443 0.92908,2.38883 0.57636,3.32325 -0.51301,1.3591 -0.35475,1.55742 1.28761,1.55742 0.80125,0 1.73487,-0.37067 2.48939,-1.00556 l 1.20177,-1.01781 0.98104,0.77255 c 0.53986,0.42467 1.57779,0.88132 2.30545,1.01781 2.06293,0.38704 2.7059,1.39539 2.77143,4.32885 0.0545,2.4401 0.51663,3.7604 0.91973,2.6243 0.10614,-0.2992 1.32274,-1.7758 2.69786,-3.27426 2.33159,-2.54069 2.496,-2.84011 2.48938,-4.54955 -0.005,-1.27186 -0.34766,-2.4595 -1.12819,-3.8751 -1.1185,-2.02855 -1.1187,-2.04523 -0.34337,-2.74691 1.27588,-1.15466 1.87625,-2.70902 1.87624,-4.84389 0,-1.70029 -0.18325,-2.1821 -1.15272,-3.15159 -1.26005,-1.26005 -2.79261,-1.48927 -3.58079,-0.53957 -0.30385,0.36611 -0.64117,0.46249 -0.85841,0.24526 -0.67854,-0.67853 0.47567,-3.48953 2.95538,-7.19838 2.89994,-4.3374 4.20622,-7.899 4.20621,-11.49042 0,-6.51936 -3.55474,-11.94902 -11.07349,-16.94746 -2.75012,-1.82828 -3.8383,-3.32998 -3.83832,-5.26083 0,-1.10769 0.50495,-0.7176 2.36676,1.80266 1.91717,2.59517 3.16994,3.27765 6.6956,3.65438 2.39604,0.25601 2.69403,0.21995 2.44033,-0.31884 -0.15881,-0.33726 -0.29594,-1.49686 -0.30657,-2.57523 l -0.0122,-1.96208 1.56966,-0.20847 c 0.86331,-0.11857 2.36987,-0.6917 3.36006,-1.27535 0.99019,-0.58365 2.25866,-1.0669 2.82049,-1.06688 0.56183,0 1.14197,-0.1766 1.27535,-0.39242 0.13514,-0.21867 -0.16566,-0.39243 -0.67447,-0.39242 -1.33591,0 -3.55272,-1.6529 -5.17498,-3.86284 -1.33394,-1.81719 -2.93273,-2.92341 -4.74578,-3.27422 -0.53068,-0.10268 -0.74237,-0.39921 -0.64994,-0.91972 0.91013,-5.12502 -0.0235,-6.85503 -3.69116,-6.85502 -1.14178,0 -1.35614,0.13892 -1.36119,0.88294 -0.008,1.21337 -0.40797,1.74356 -1.69229,2.23186 -2.50045,0.95067 -7.56793,0.16874 -11.15933,-1.72908 l -1.85171,-0.98104 1.96208,0.20847 c 2.64054,0.28998 7.59178,-0.6414 11.31874,-2.13376 3.86877,-1.54913 4.41049,-1.54244 5.37119,0.0858 0.42558,0.72131 1.25487,1.53629 1.83945,1.80266 1.51553,0.69052 6.38904,1.05457 6.38902,0.47826 0,-0.24713 -0.35313,-0.45374 -0.77257,-0.45373 -0.96675,0 -1.97433,-1.42518 -1.97434,-2.7837 0,-1.0787 0.7441,-1.50905 2.63655,-1.52061 0.6768,-0.004 1.15221,-0.55604 2.07244,-2.37902 1.06502,-2.10978 1.27023,-2.30784 1.96208,-1.93756 0.42619,0.2281 0.78485,0.5766 0.78483,0.78484 0,0.20823 0.19868,0.38014 0.44147,0.38015 0.54314,0 0.15852,-2.21483 -0.52731,-3.04122 -0.83528,-1.00645 -2.25185,-1.31288 -3.85058,-0.83389 -1.45541,0.43605 -3.53988,0.23488 -3.51948,-0.34336 0.006,-0.15776 0.90803,-0.90309 1.99887,-1.64324 5.39146,-3.65819 7.60504,-9.21138 6.70786,-16.81257 -0.99018,-8.38902 -4.2541,-14.2002 -9.60193,-17.05783 -1.47142,-0.78626 -2.22642,-0.88512 -6.75691,-0.89519 l -5.1014,-0.0122 -1.27535,-1.8885 c -0.81161,-1.20719 -1.27534,-2.38318 -1.27536,-3.22517 l 0,-1.3244 2.36676,0.24526 c 2.03963,0.21318 2.53322,0.1347 3.49496,-0.57636 0.99694,-0.73708 1.18591,-0.75699 1.63097,-0.22073 0.78747,0.94884 3.33075,2.10002 5.18725,2.35449 2.99774,0.41089 6.32872,-2.06836 7.93416,-5.91076 0.32665,-0.78179 1.03046,-1.61831 1.56966,-1.86398 1.73297,-0.78959 0.85075,-1.29989 -2.28091,-1.29988 -2.7911,0 -3.0782,-0.0705 -4.29205,-1.20177 -2.65737,-2.47658 -3.46745,-2.9186 -5.48156,-2.91859 -1.97893,0 -3.72196,0.65548 -4.62315,1.74134 -0.33168,0.39966 -1.15634,0.61314 -2.36676,0.61315 -2.12967,0 -3.70116,0.97822 -4.09584,2.55071 -0.13667,0.54456 -0.92303,1.88252 -1.75361,2.9799 -3.04329,4.02089 -3.12562,6.89794 -0.31883,11.47817 l 1.16498,1.8885 -1.52061,1.5574 c -1.46941,1.50481 -1.5313,1.66713 -1.66777,4.6722 -0.25571,5.63075 2.00707,8.29098 7.08801,8.33884 2.49286,0.0235 3.67183,-0.56586 5.19951,-2.61202 1.16402,-1.55908 1.12013,-5.98714 -0.0858,-8.63315 l -0.88293,-1.92529 1.77813,0.24526 c 2.95774,0.4054 5.56227,2.06573 6.70786,4.26752 0.75407,1.44931 0.68719,1.87623 -0.26979,1.87624 -0.95614,0 -3.10252,-2.01053 -3.10254,-2.90633 0,-0.98088 -1.10201,-0.72142 -1.86397,0.44147 -0.51076,0.77952 -0.68672,1.84907 -0.68673,4.02226 0,2.57718 0.15,3.23474 1.20177,5.11367 l 1.21404,2.15829 -1.31214,1.11593 c -1.00227,0.85766 -1.29986,1.43424 -1.29988,2.4526 0,1.19678 0.18323,1.41661 1.86398,2.2196 2.03534,0.97237 2.44556,1.95969 1.68003,3.97321 l -0.40468,1.06688 -0.85841,-0.79709 c -0.64389,-0.59987 -1.38569,-0.80937 -2.94312,-0.80936 l -2.08471,0 0,-1.29988 c 0,-0.71415 -0.25947,-1.64123 -0.57636,-2.06018 -1.03507,-1.36849 -0.72411,-2.54329 1.16499,-4.35337 0.97502,-0.93423 2.03454,-1.70456 2.35449,-1.70455 0.31995,0 0.58864,-0.19254 0.58863,-0.42921 0,-0.29097 -1.17914,-0.38626 -3.64211,-0.29431 -2.96372,0.11065 -4.00838,0.32473 -5.59193,1.14046 -2.94395,1.51651 -4.08338,3.46683 -5.07688,8.65767 -0.18593,0.97147 -0.30369,1.00099 -2.17055,0.82162 -2.38225,-0.2289 -4.16677,0.44124 -4.89294,1.82719 -0.50982,0.97303 -0.47788,1.04062 0.699,1.42251 0.67711,0.21972 1.29888,0.71466 1.37345,1.10367 0.12013,0.62652 -0.13056,0.69374 -2.15829,0.58862 l -2.28091,-0.12263 -0.11037,-24.89388 -0.0981,-24.89388 -0.88294,-0.94425 c -0.48399,-0.5183 -1.40079,-1.21499 -2.03566,-1.54514 -5.97684,-3.10818 -21.81742,-5.55941 -37.40213,-5.78813 l -7.55401,-0.11037 z m -38.72653,19.96416 c -1.13146,0.008 -2.35056,0.0917 -3.78927,0.25752 -5.06404,0.58363 -6.89948,1.1645 -7.33327,2.30545 -0.18528,0.48732 -0.85614,3.6793 -1.48382,7.08801 -0.62769,3.4087 -1.6182,7.39418 -2.20734,8.86614 -0.58915,1.47196 -0.98227,2.7702 -0.87067,2.88181 0.37415,0.37415 5.5334,0.8945 9.00103,0.90746 1.88851,0.007 3.43364,0.16028 3.43364,0.34336 0,0.18309 -0.69712,0.61114 -1.54513,0.94425 -1.36092,0.53459 -1.60958,0.84238 -2.14603,2.64881 -0.42135,1.41885 -0.49903,2.26208 -0.233,2.75917 0.99125,1.85216 0.0865,8.18102 -1.41024,9.83492 -0.85643,0.94635 -0.68607,1.12169 1.6555,1.54514 2.4105,0.43591 10.87441,0.19108 12.72899,-0.36789 l 1.41025,-0.4292 -1.15272,-2.32997 c -1.32486,-2.67299 -1.8351,-6.63146 -1.11594,-8.69447 0.38647,-1.10861 0.32351,-1.53761 -0.44146,-3.07801 -0.73062,-1.47121 -1.14452,-1.84712 -2.3545,-2.14602 -2.21776,-0.54786 -1.77071,-1.01422 0.98104,-1.01783 3.08225,-0.004 9.4,-0.71779 9.78587,-1.10367 0.1596,-0.1596 -0.13694,-1.53081 -0.6622,-3.04122 -0.8045,-2.31334 -1.91068,-7.3459 -3.26196,-14.87501 -0.35028,-1.95174 -1.38199,-2.5215 -5.69003,-3.09028 -1.12216,-0.14816 -2.16729,-0.21627 -3.29874,-0.20847 z m 56.29941,4.99104 c 3.26025,-4e-5 6.59247,0.12449 7.554,0.35563 1.55896,0.37474 1.80013,1.0789 1.37346,3.92415 -0.18399,1.22692 -1.0154,2.83204 -2.83276,5.49383 -1.41353,2.07034 -2.80214,4.32598 -3.09027,5.01556 -0.57016,1.36458 -0.49812,1.51166 3.42138,7.30875 1.70969,2.52869 2.5507,4.8664 2.91859,8.1181 0.23036,2.03613 0.17745,2.4158 -0.3311,2.41581 -0.33244,0 -1.03126,-0.49294 -1.54514,-1.10367 -0.51389,-0.61072 -2.16493,-2.22207 -3.66664,-3.5808 -1.50171,-1.35873 -3.01759,-2.90911 -3.37232,-3.4459 l -0.64994,-0.98104 -3.2129,3.06575 c -3.32154,3.17337 -4.46987,4.78364 -3.98548,5.5674 0.56994,0.92218 4.4785,1.36533 10.33771,1.17725 5.74788,-0.1845 7.72293,0.13624 3.75248,0.61315 -3.30452,0.39692 -11.71424,0.24205 -13.63646,-0.25752 l -1.76587,-0.466 0.0491,-2.74691 c 0.0743,-3.59424 1.1534,-6.37682 3.88736,-10.03113 1.19257,-1.59402 2.27369,-3.32093 2.40355,-3.83832 0.28874,-1.15041 -0.86287,-3.65462 -2.99217,-6.47486 -2.00956,-2.66164 -3.14088,-5.19135 -3.15159,-7.07575 -0.008,-1.38551 0.0767,-1.4851 0.88294,-1.26308 2.28054,0.62798 8.70314,1.09162 11.45363,0.83388 1.65944,-0.1555 2.93621,-0.36254 2.83276,-0.46599 -0.10346,-0.10346 -2.80489,-0.24042 -6.00887,-0.30658 -3.26421,-0.0674 -6.51505,-0.3464 -7.39459,-0.62541 l -1.56966,-0.49052 1.17725,-0.38015 c 0.71303,-0.23116 3.90133,-0.35559 7.16159,-0.35563 z m -103.14406,6.00887 c 0.31313,-0.0426 0.56676,0.2739 0.82162,0.94425 0.60868,1.60094 0.45689,3.24653 -0.39241,4.09584 -0.80623,0.80622 -1.01864,0.86841 -1.86398,0.52731 -0.75389,-0.3042 -0.58714,-2.92781 0.28205,-4.35337 0.46873,-0.76876 0.8396,-1.17145 1.15272,-1.21403 z m 149.06897,0 c 0.33809,-0.0532 0.73577,0.34916 1.26309,1.21403 0.95377,1.56431 1.04363,4.03859 0.15942,4.37789 -0.86037,0.33016 -0.85071,0.32652 -1.72908,-0.55183 -0.8493,-0.8493 -1.01336,-2.4949 -0.40468,-4.09584 0.22301,-0.58656 0.4483,-0.9029 0.71125,-0.94425 z m -40.07547,0.98104 c -0.25407,-0.007 -0.84492,0.1444 -1.53287,0.40467 -2.1675,0.82003 -8.14283,0.93409 -9.06235,0.17169 -1.32278,-1.09678 -0.67685,0.51945 1.54513,3.83831 1.2101,1.80746 2.45809,3.89773 2.77144,4.64768 0.31335,0.74994 0.64393,1.28135 0.73578,1.18951 0.34464,-0.34464 5.67777,-9.91606 5.67777,-10.19055 0,-0.0394 -0.0502,-0.0591 -0.1349,-0.0613 z m -34.79011,37.41439 27.89831,0 27.91058,0 -0.19621,10.30092 c -0.26548,13.55619 -1.18869,18.0151 -5.59193,27.1748 -7.59452,15.79828 -23.19795,30.97323 -43.65626,42.4422 -2.53153,1.41919 -4.99594,2.73169 -5.48156,2.91859 l -0.88293,0.3434 0,-41.59609 0,-41.58382 z m -23.36101,10.30092 c 11.06645,0 20.03774,8.96052 20.03774,19.98868 -10e-6,11.02816 -8.97128,19.97642 -20.03774,19.97642 -11.06645,0 -20.04999,-8.94825 -20.04999,-19.97642 0,-1.90167 0.2737,-3.73819 0.77256,-5.48156 l -0.0491,0 -5.44477,0.39242 7.0267,-4.23074 c 3.36219,-6.3431 10.05282,-10.6688 17.74455,-10.6688 z m 0,1.3244 c -6.31121,0 -11.8957,3.11109 -15.29195,7.87285 l 12.05452,-7.24743 21.11688,12.4592 c -2.37152,-7.58087 -9.47909,-13.08461 -17.87945,-13.08462 z m 52.33846,6.53618 c -6.36518,0.10835 -14.67096,4.76093 -17.37666,10.19055 -1.83353,3.67941 -1.20763,5.95507 2.51392,9.09914 2.57032,2.1715 5.47613,3.61025 8.76804,4.3411 1.33016,0.29532 2.95783,0.70922 3.60532,0.91972 1.58491,0.51528 1.37331,0.52928 3.56853,-0.12263 2.72592,-0.80951 3.73648,-1.93297 6.69559,-7.46816 1.52224,-2.84745 1.70152,-6.91293 0.50279,-10.95085 -1.09745,-3.69677 -2.4132,-5.03029 -5.69003,-5.76361 -0.80793,-0.18081 -1.67818,-0.26074 -2.5875,-0.24526 z m 1.17725,1.04235 c 0.90837,0.005 1.63098,0.0833 1.63098,0.26979 0,0.13571 -0.61805,0.92973 -1.37345,1.76587 -0.75541,0.83614 -1.36807,1.74197 -1.3612,2.01113 0.007,0.26917 0.85698,-0.45642 1.8885,-1.61871 l 1.86398,-2.10924 1.4593,1.26309 c 1.31687,1.15623 1.4361,1.44925 1.43477,3.28648 -7.9e-4,1.29932 -0.26285,2.46625 -0.74805,3.26196 l -0.7603,1.23856 -1.85171,-0.94425 c -1.19674,-0.60586 -2.51113,-0.9339 -3.66664,-0.91972 l -1.7904,0.0245 2.3545,0.72352 c 1.29497,0.39649 2.84011,0.82143 3.43364,0.95651 0.59353,0.13507 1.07914,0.4044 1.07914,0.58863 0,0.2813 -2.653,2.80167 -4.16942,3.96094 -1.39038,1.06291 -5.71708,2.88492 -7.95868,3.36006 -2.93202,0.62149 -3.48973,0.63364 -5.82492,0.11037 -2.40282,-0.53842 -4.02227,-2.29549 -4.02227,-4.35336 0,-1.8347 1.14023,-4.45934 2.48939,-5.72682 l 0.90746,-0.85841 1.72908,0.78483 c 0.95201,0.43191 2.09452,0.77318 2.52618,0.76031 0.75623,-0.0225 -0.2293,-0.56044 -2.89406,-1.58193 -0.80613,-0.30901 -0.85677,-0.44022 -0.39242,-1.00556 0.29324,-0.35704 1.31187,-1.14474 2.26865,-1.75361 l 1.74135,-1.10367 0.77257,1.75361 c 0.41966,0.96948 0.91246,1.76586 1.10367,1.76587 0.19121,0 0.0642,-0.66222 -0.28205,-1.47156 -0.34624,-0.80936 -0.71832,-1.67661 -0.82162,-1.92529 -0.15952,-0.38399 3.53898,-2.09699 4.52504,-2.09697 0.16755,0 0.26285,1.10365 0.20847,2.45259 l -0.0981,2.4526 0.39242,-2.15828 c 0.22211,-1.18706 0.47031,-2.37904 0.55183,-2.64881 0.0952,-0.31522 2.14044,-0.52278 3.65437,-0.51505 z m 28.56052,5.05236 c 0.26987,0.0361 0.6516,0.37182 1.28761,0.88293 1.98454,1.59482 2.52682,2.90951 2.17055,5.28535 -0.31836,2.123 -0.42926,2.13752 2.88181,-0.34336 2.2439,-1.68129 2.83276,-2.46111 2.83275,-3.81379 0,-0.71715 0.52846,-0.35954 3.04122,2.07244 1.67267,1.6189 4.87153,4.59525 7.11254,6.60976 4.68455,4.21107 5.51762,5.61209 5.53061,9.29535 0.0117,3.31578 -0.90616,5.52709 -2.58749,6.2296 -1.60144,0.66913 -2.56725,0.65536 -4.97878,-0.0858 -1.38141,-0.42459 -1.98472,-0.84739 -2.26865,-1.59419 -0.44514,-1.17079 -0.2102,-2.19667 0.67446,-2.93086 0.52337,-0.43436 0.73504,-0.36858 1.36119,0.40468 0.40692,0.50253 0.74806,1.33605 0.74805,1.85172 0,1.31539 0.52909,1.16651 1.92529,-0.52731 1.29404,-1.5699 1.84685,-3.44369 1.41024,-4.81936 -0.33033,-1.04079 -2.39379,-1.96051 -4.40241,-1.96208 -1.42216,-10e-4 -1.49364,-0.0511 -1.52062,-1.33667 -0.0181,-0.86323 -0.43793,-1.85724 -1.17724,-2.7837 -1.99713,-2.50263 -2.49304,-3.52248 -2.82049,-5.71455 -0.31286,-2.09432 -0.33299,-2.11512 -0.88294,-1.15272 -0.34628,0.60597 -0.58088,2.22341 -0.61315,4.23073 -0.0454,2.82443 -0.17238,3.38301 -0.96877,4.23073 l -0.91973,0.96878 -1.39798,-1.33667 c -2.07128,-1.98239 -3.79531,-2.69991 -6.97764,-2.90633 -1.56476,-0.10149 -2.84502,-0.2158 -2.84502,-0.25752 0,-0.0417 0.41304,-1.30131 0.91973,-2.79596 0.50668,-1.49465 1.13247,-3.69363 1.39798,-4.88067 0.47433,-2.1207 0.61709,-2.88065 1.06688,-2.82049 z m -116.87861,0.11036 0.83388,3.33554 c 0.45944,1.83182 1.16072,4.18004 1.5574,5.22403 l 0.71126,1.90077 -2.58749,0.18394 c -2.94548,0.21075 -4.71608,0.97654 -6.73239,2.90633 l -1.39798,1.33667 -0.91972,-0.96878 c -0.7964,-0.84772 -0.92338,-1.40629 -0.96878,-4.23073 -0.0323,-2.00732 -0.26687,-3.62478 -0.61315,-4.23073 -0.54995,-0.96238 -0.57008,-0.9416 -0.88294,1.15272 -0.32745,2.19207 -0.82335,3.21191 -2.82048,5.71455 -0.73933,0.92647 -1.15913,1.92048 -1.17725,2.7837 -0.027,1.28561 -0.0862,1.33557 -1.50835,1.33667 -2.00863,0.002 -4.07208,0.9213 -4.40242,1.96208 -0.43661,1.37566 0.10394,3.24945 1.39799,4.81936 1.39619,1.69382 1.93755,1.8427 1.93755,0.52731 0,-0.51566 0.32886,-1.34919 0.73578,-1.85172 0.62616,-0.77327 0.83782,-0.83905 1.36119,-0.40468 0.88384,0.73352 1.11824,1.75141 0.67447,2.9186 -0.29144,0.76653 -0.88773,1.15765 -2.44034,1.61871 -2.4703,0.7336 -3.30199,0.75392 -4.89294,0.0613 -1.59105,-0.69266 -2.51303,-2.98817 -2.50165,-6.21734 0.0138,-3.90149 0.73479,-4.98117 7.24743,-10.87728 3.18209,-2.88085 6.38162,-5.85715 7.11254,-6.60975 1.22322,-1.25951 1.33667,-1.30433 1.33667,-0.50278 0,1.35564 0.57541,2.14388 2.82049,3.82605 3.30476,2.47616 3.18999,2.4738 2.8818,0.233 -0.31824,-2.31388 0.26224,-3.75371 2.06018,-5.07688 l 1.17725,-0.87068 z m 25.27404,0.0122 1.60645,18.5907 -5.76361,0 c 3.42092,3.63568 8.28929,5.91077 13.6855,5.91076 10.3389,0 18.7256,-8.34602 18.7256,-18.62749 0,-1.75231 -0.25588,-3.44421 -0.71126,-5.05235 l -5.55513,-0.40468 -2.01114,0 -2.74691,18.28412 -6.18055,-0.0245 1.56967,-18.66428 -12.61862,-0.0122 z m -8.40016,0.46599 c -0.52191,1.71102 -0.80935,3.52844 -0.80935,5.40798 0,4.6385 1.7114,8.8784 4.5373,12.14037 l -2.37902,-17.52382 -1.34893,-0.0245 z m 66.52675,3.55627 c -0.0156,10e-4 -0.0282,0.0159 -0.0368,0.0245 -0.13474,0.13474 0.62201,1.1209 1.68003,2.19507 1.86122,1.88963 2.55071,2.32626 2.55071,1.61872 0,-0.5092 -3.71152,-3.87992 -4.19395,-3.83832 z m -6.20507,0.80936 c -0.15198,0.0127 -0.37788,0.0755 -0.68673,0.19621 -2.50466,0.97863 -4.61089,1.98284 -4.61089,2.20733 0,0.34879 1.8269,-0.12574 3.82606,-1.00556 1.39915,-0.61578 2.13012,-1.45312 1.47156,-1.39798 z m 0.87067,0.79709 c -0.38266,0.097 -3.81379,4.33518 -3.81379,4.73352 0,0.34857 1.3019,-0.73414 2.61202,-2.17055 0.88611,-0.97154 1.50846,-2.28081 1.22629,-2.56297 -0.006,-0.006 -0.0122,-0.003 -0.0245,0 z m 2.94312,0.20847 c -0.34288,0 -1.33357,4.26523 -1.23857,5.33441 0.0176,0.19815 0.28709,-0.20653 0.58863,-0.8952 0.75958,-1.73474 1.15332,-4.43922 0.64994,-4.43921 z m -51.30837,2.01113 c 0.70841,10e-6 1.27535,0.57922 1.27535,1.28762 0,0.7084 -0.56694,1.27535 -1.27535,1.27535 -0.7084,0 -1.28761,-0.56694 -1.28762,-1.27535 0,-0.70841 0.57922,-1.28761 1.28762,-1.28762 z"
       id="path2385"
       inkscape:connector-curvature="0" />
  </g>
</svg>
