<?xml version="1.0" encoding="UTF-8" standalone="no"?>
<!-- Created with Inkscape (http://www.inkscape.org/) -->

<svg
   xmlns:dc="http://purl.org/dc/elements/1.1/"
   xmlns:cc="http://creativecommons.org/ns#"
   xmlns:rdf="http://www.w3.org/1999/02/22-rdf-syntax-ns#"
   xmlns:svg="http://www.w3.org/2000/svg"
   xmlns="http://www.w3.org/2000/svg"
   xmlns:sodipodi="http://sodipodi.sourceforge.net/DTD/sodipodi-0.dtd"
   xmlns:inkscape="http://www.inkscape.org/namespaces/inkscape"
   width="310"
   height="150"
   id="svg2"
   sodipodi:version="0.32"
   inkscape:version="0.91 r13725"
   sodipodi:docname="LogoWide.svg"
   inkscape:output_extension="org.inkscape.output.svg.inkscape"
   version="1.1">
  <defs
     id="defs4">
    <inkscape:perspective
       sodipodi:type="inkscape:persp3d"
       inkscape:vp_x="0 : 526.18109 : 1"
       inkscape:vp_y="0 : 1000 : 0"
       inkscape:vp_z="744.09448 : 526.18109 : 1"
       inkscape:persp3d-origin="372.04724 : 350.78739 : 1"
       id="perspective10" />
    <inkscape:perspective
       id="perspective2447"
       inkscape:persp3d-origin="372.04724 : 350.78739 : 1"
       inkscape:vp_z="744.09448 : 526.18109 : 1"
       inkscape:vp_y="0 : 1000 : 0"
       inkscape:vp_x="0 : 526.18109 : 1"
       sodipodi:type="inkscape:persp3d" />
  </defs>
  <sodipodi:namedview
     id="base"
     pagecolor="#ffffff"
     bordercolor="#666666"
     borderopacity="1.0"
     gridtolerance="10000"
     guidetolerance="10"
     objecttolerance="10"
     inkscape:pageopacity="0.0"
     inkscape:pageshadow="2"
     inkscape:zoom="0.57456337"
     inkscape:cx="-241.90124"
     inkscape:cy="487.20451"
     inkscape:document-units="px"
     inkscape:current-layer="layer1"
     showgrid="false"
     inkscape:window-width="1368"
     inkscape:window-height="849"
     inkscape:window-x="-8"
     inkscape:window-y="-8"
     inkscape:window-maximized="1" />
  <metadata
     id="metadata7">
    <rdf:RDF>
      <cc:Work
         rdf:about="">
        <dc:format>image/svg+xml</dc:format>
        <dc:type
           rdf:resource="http://purl.org/dc/dcmitype/StillImage" />
        <dc:title></dc:title>
      </cc:Work>
    </rdf:RDF>
  </metadata>
  <g
     inkscape:label="Layer 1"
     inkscape:groupmode="layer"
     id="layer1"
     transform="translate(0,-902.36218)">
    <path
       style="fill:#ffffff"
       d="m 145.92035,939.86501 c -0.0363,0.0363 -0.11124,0.77956 -0.16554,1.65091 l -0.0966,1.58652 -0.46906,-0.46906 c -0.25582,-0.25623 -0.54969,-0.66212 -0.65761,-0.90593 -0.26841,-0.60639 -0.41566,-0.55943 -0.3219,0.10577 0.19346,1.3726 0.55934,2.08142 1.36119,2.62582 0.39786,0.27011 0.64304,0.6307 0.9933,1.46236 l 0.46446,1.09907 -0.35409,0.092 c -0.19333,0.0485 -0.55132,0.0162 -0.79556,-0.069 -0.26264,-0.0916 -0.44147,-0.0997 -0.44147,-0.0184 0,0.21416 1.11966,0.90493 1.64171,1.0117 0.37743,0.0772 0.64975,0.34675 1.39798,1.38419 0.51185,0.7097 0.93352,1.34992 0.93352,1.42097 0,0.1966 -1.00586,0.48776 -1.41638,0.40928 -0.62023,-0.11856 -0.30442,0.23743 0.39549,0.44607 0.46008,0.13714 0.85311,0.15743 1.34279,0.0644 0.64544,-0.12265 0.72205,-0.1076 1.08068,0.26672 0.21175,0.22101 0.61032,0.5267 0.88753,0.67599 0.96212,0.51814 0.63101,0.67404 -1.46236,0.699 -1.39192,0.0166 -1.73122,0.0709 -2.25332,0.34949 -1.07985,0.57623 -0.99367,0.79818 0.53344,1.37959 0.69832,0.26587 0.9371,0.29064 1.62791,0.17015 0.44515,-0.0776 0.9354,-0.19538 1.08987,-0.26213 0.25235,-0.10903 0.26891,-0.0753 0.18395,0.3495 -0.052,0.26004 -0.38536,0.9528 -0.74038,1.53594 l -0.64381,1.05768 0.40468,0.046 c 0.36241,0.0401 0.41378,0.11565 0.49665,0.74038 0.0983,0.74117 0.80631,2.33914 1.66471,3.75248 0.38472,0.63344 0.47586,0.89912 0.35409,1.02089 -0.17713,0.17713 -0.22316,1.39627 -0.069,1.79806 0.0515,0.13423 0.25017,0.30436 0.44147,0.37709 0.20873,0.0794 0.34949,0.25217 0.34949,0.43227 0,0.18067 0.19034,0.41768 0.47826,0.59322 0.26304,0.16039 0.63497,0.28942 0.82775,0.28972 0.47016,7.5e-4 1.3428,-0.55145 1.3428,-0.85075 0,-0.13199 0.17998,-0.38552 0.40008,-0.56103 0.35457,-0.28273 0.39699,-0.41348 0.38628,-1.15426 -0.007,-0.45985 -0.0804,-0.90817 -0.16555,-0.9933 -0.10826,-0.10827 0.001,-0.39515 0.3633,-0.96111 0.72875,-1.13922 1.48125,-2.77477 1.69689,-3.6835 0.15474,-0.6521 0.23683,-0.77257 0.51964,-0.77257 0.31907,0 0.29612,-0.0694 -0.44146,-1.45776 -0.42601,-0.80188 -0.73864,-1.49556 -0.6944,-1.54054 0.0443,-0.045 0.40846,0.0188 0.80936,0.14256 0.90787,0.28026 1.72994,0.18675 2.80516,-0.32191 l 0.81396,-0.38628 -0.3357,-0.35409 c -0.51248,-0.54551 -1.71877,-0.83486 -3.16845,-0.75878 -0.9679,0.0508 -1.27009,0.0154 -1.41178,-0.15635 -0.14267,-0.17294 -0.1431,-0.23081 0.005,-0.28052 0.10263,-0.0345 0.53306,-0.34372 0.95652,-0.68519 0.73118,-0.58962 0.80092,-0.61205 1.38878,-0.49205 0.66924,0.1366 1.66613,-0.0538 1.92683,-0.36789 0.11743,-0.1415 -0.0101,-0.18395 -0.56564,-0.18395 -0.44323,0 -0.80133,-0.0839 -0.93811,-0.22073 -0.19733,-0.19733 -0.16782,-0.29217 0.28511,-0.86454 0.27972,-0.35349 0.69142,-0.93542 0.91513,-1.29222 0.2436,-0.38856 0.55682,-0.68199 0.77717,-0.73578 0.56183,-0.13714 1.36696,-0.57259 1.6601,-0.89673 0.25974,-0.28722 0.25388,-0.28971 -0.40928,-0.13796 -0.98396,0.22516 -1.05367,0.0606 -0.50585,-1.23243 0.2545,-0.60067 0.52763,-1.12006 0.60702,-1.14966 0.37292,-0.139 1.21246,-1.02114 1.40258,-1.47616 0.24147,-0.57792 0.483,-1.92682 0.3449,-1.92682 -0.0504,0 -0.214,0.22863 -0.3633,0.50585 -0.14929,0.27722 -0.45435,0.67997 -0.68059,0.89673 l -0.41388,0.39548 -0.10577,-1.48995 c -0.0581,-0.81946 -0.15045,-1.51943 -0.20693,-1.55434 -0.0963,-0.0595 -0.46581,1.34844 -0.6852,2.62122 l -0.0966,0.57023 -0.51505,-0.51964 c -0.32805,-0.32806 -0.64798,-0.88346 -0.87373,-1.52215 l -0.3541,-1.0071 0.0736,1.08068 c 0.058,0.83357 0.19717,1.34718 0.61162,2.23033 l 0.53804,1.14506 -0.24833,0.85994 c -0.13757,0.47323 -0.43681,1.27703 -0.6668,1.78427 -0.47622,1.05028 -0.75231,1.15612 -1.37499,0.53344 -0.44487,-0.44487 -0.47519,-0.34418 -0.16555,0.53344 0.34691,0.98323 0.28796,1.2235 -0.47825,1.93602 -1.16922,1.08728 -1.81254,1.51932 -2.0188,1.36579 -0.10197,-0.0759 -0.45947,-0.3189 -0.79556,-0.54264 -0.3361,-0.22374 -0.704,-0.62106 -0.81856,-0.88293 -0.19872,-0.45429 -0.20928,-0.46219 -0.22073,-0.10577 -0.007,0.20546 0.12324,0.63441 0.28511,0.95192 0.16187,0.3175 0.29432,0.66367 0.29432,0.76797 0,0.26797 -0.94986,0.24179 -1.17725,-0.0322 -0.10076,-0.1214 -0.26631,-0.22073 -0.36789,-0.22073 -0.10159,0 -0.26714,0.0993 -0.36789,0.22073 -0.24255,0.29226 -1.17725,0.30011 -1.17725,0.009 0,-0.11781 0.16555,-0.46061 0.36789,-0.75877 0.23024,-0.33928 0.36273,-0.73897 0.35869,-1.07148 l -0.005,-0.53344 -0.20694,0.58863 c -0.11439,0.32374 -0.32251,0.65483 -0.45987,0.73577 -0.13736,0.0809 -0.47505,0.34059 -0.74957,0.57483 -0.463,0.39506 -0.52658,0.41105 -0.88753,0.22074 -0.21403,-0.11285 -0.80916,-0.60276 -1.31981,-1.08988 -1.01983,-0.97284 -1.0852,-1.19934 -0.70359,-2.28091 0.30685,-0.86971 0.27961,-0.91883 -0.21154,-0.42768 -0.6673,0.6673 -0.93511,0.57202 -1.41637,-0.49205 -0.22879,-0.50585 -0.52829,-1.31463 -0.66221,-1.79807 l -0.23912,-0.87833 0.50125,-1.06688 c 0.35936,-0.75672 0.52673,-1.32849 0.57023,-1.98661 l 0.0598,-0.92892 -0.25752,0.69899 c -0.29525,0.7971 -0.98443,1.72908 -1.27842,1.72908 -0.12358,0 -0.23554,-0.26219 -0.29891,-0.69899 -0.13818,-0.95235 -0.54429,-2.56438 -0.62542,-2.48326 z m 13.19806,15.87445 0.61621,1.14966 c 0.515,0.96654 0.58212,1.19255 0.42308,1.38418 -0.10422,0.12557 -0.27115,0.22533 -0.37249,0.22533 -0.10135,0 -0.33413,0.46285 -0.51505,1.0255 -0.18091,0.56265 -0.67842,1.64667 -1.10827,2.40968 -0.73686,1.30796 -0.77687,1.41945 -0.6484,1.9912 0.16864,0.75057 -0.0202,1.68516 -0.43227,2.12457 -0.98322,1.04836 -1.27003,1.28987 -1.61872,1.36579 -0.21313,0.0464 -0.46906,0.11139 -0.57023,0.14256 -0.14378,0.0443 -0.18395,1.5824 -0.18395,7.04968 l 0,6.99451 -10.30091,0 -10.30092,0 0,-11.19305 0,-11.18845 0.6576,-0.29431 c 2.04842,-0.90611 6.94611,-1.62282 12.61403,-1.84405 1.43018,-0.0558 2.65694,-0.14017 2.72698,-0.18854 0.0701,-0.0484 0.27343,-0.32435 0.45067,-0.61622 l 0.3219,-0.53344 -2.90633,0.0414 c -6.37533,0.0837 -12.72844,1.1039 -14.63742,2.35449 l -0.55183,0.36329 0,9.56514 0,9.56054 -0.82316,0 c -0.70179,0 -0.81021,-0.0372 -0.76797,-0.25753 0.0272,-0.14163 0.25654,-0.32228 0.51045,-0.40467 0.44133,-0.14321 0.4533,-0.16856 0.26212,-0.53344 -0.27231,-0.51973 -0.9415,-0.77104 -1.83485,-0.6852 -0.70007,0.0673 -0.73963,0.0562 -0.80936,-0.30811 -0.52643,-2.75051 -1.42574,-3.57816 -4.0008,-3.6743 -0.92362,-0.0345 -1.36579,10e-4 -1.36579,0.11037 0,0.0888 0.0961,0.16095 0.21613,0.16095 0.11999,0 0.51731,0.28887 0.88294,0.63921 0.70841,0.67878 0.82962,1.11933 0.44147,1.63252 -0.11883,0.1571 -0.21614,0.50475 -0.21614,0.77256 l 0,0.48746 -0.78176,0 c -0.58404,0 -0.86681,0.0785 -1.10827,0.3035 l -0.32191,0.29891 -0.15175,-0.40008 c -0.28708,-0.75507 -0.12864,-1.12531 0.63461,-1.48995 0.63028,-0.30111 0.69899,-0.38355 0.69899,-0.83235 0,-0.38189 -0.1162,-0.5981 -0.49205,-0.91972 l -0.48745,-0.41848 0.45066,-0.80936 c 0.39441,-0.70459 0.45526,-0.95118 0.45526,-1.91763 0,-0.81494 -0.0706,-1.21602 -0.26212,-1.50834 -0.28573,-0.43608 -0.69439,-0.53338 -0.69439,-0.16555 0,0.33593 -0.8095,1.08987 -1.16805,1.08987 -0.35887,0 -0.37935,-0.16009 -0.0966,-0.70359 0.42959,-0.82567 1.40169,-1.4483 2.51085,-1.60032 l 0.6668,-0.092 -0.3265,0.72199 c -0.45224,0.99225 -0.4687,2.65277 -0.0322,3.23742 0.57288,0.76732 1.01039,0.98832 1.94521,0.97951 1.90536,-0.018 2.7539,-1.01553 2.65801,-3.12706 -0.0512,-1.1269 -0.0744,-1.18778 -0.62542,-1.75208 l -0.57022,-0.58402 0.43686,-0.70819 c 1.05255,-1.71758 1.02168,-2.79648 -0.11956,-4.30431 -0.31147,-0.41153 -0.60635,-0.91326 -0.6576,-1.11747 -0.148,-0.58968 -0.73732,-0.95652 -1.53594,-0.95651 -0.45391,0 -0.76316,-0.0801 -0.88754,-0.22994 -0.33795,-0.4072 -0.99158,-0.653 -1.73368,-0.653 -0.75529,0 -1.05907,0.16575 -2.05558,1.09447 -0.4552,0.42423 -0.55826,0.45066 -1.60493,0.45067 -1.17437,0 -1.5098,0.19135 -0.85994,0.48745 0.2022,0.0921 0.46613,0.40583 0.58862,0.69899 0.60205,1.4409 1.85116,2.37062 2.97532,2.21654 0.69618,-0.0954 1.65451,-0.52711 1.94981,-0.88294 0.1669,-0.20109 0.23317,-0.19362 0.60702,0.0828 0.36066,0.26665 0.54575,0.29608 1.31061,0.21614 l 0.89213,-0.092 0,0.49665 c 0,0.31575 -0.1739,0.75674 -0.47825,1.20944 l -0.47826,0.70819 -1.91303,0.005 c -1.69893,0.004 -1.98665,0.0408 -2.53844,0.33569 -1.98582,1.06113 -3.23732,3.28094 -3.60072,6.3783 -0.33683,2.87081 0.48933,4.94835 2.51545,6.3231 0.40907,0.27756 0.74748,0.55706 0.74957,0.61622 0.008,0.21684 -0.77402,0.29228 -1.3198,0.12876 -0.90904,-0.27235 -1.53013,0.0859 -1.71069,0.98871 -0.0949,0.47447 0.1288,0.66304 0.28971,0.24372 0.1833,-0.47766 0.62138,-0.22597 1.02089,0.58863 0.30574,0.62339 0.47033,0.81241 0.72659,0.81395 0.71338,0.004 0.9979,0.16509 0.9979,0.57023 0,0.50945 -0.38245,1.04389 -0.74498,1.04389 -0.15728,0 -0.28511,0.0775 -0.28511,0.17015 0,0.21611 1.82756,0.0796 2.39588,-0.17935 0.21922,-0.0999 0.5256,-0.40551 0.6852,-0.676 0.36026,-0.6106 0.5634,-0.61311 2.01419,-0.0322 1.39762,0.55963 3.25893,0.9089 4.24913,0.80017 l 0.73578,-0.0782 -0.69899,0.36789 c -1.34677,0.71168 -3.24708,1.0049 -4.18475,0.6484 -0.48162,-0.18311 -0.63151,-0.38194 -0.63461,-0.83695 -0.002,-0.279 -0.0823,-0.3311 -0.51044,-0.33109 -1.37539,0 -1.72549,0.64874 -1.38419,2.57062 0.0347,0.19519 -0.0401,0.3064 -0.23913,0.3449 -0.68263,0.13208 -1.27292,0.54596 -1.84864,1.29221 -0.66371,0.86029 -1.3836,1.38418 -1.89464,1.38419 -0.17747,0 -0.27999,0.0662 -0.22993,0.14715 0.05,0.0809 0.26297,0.14716 0.47366,0.14716 0.21068,0 0.68636,0.18122 1.05768,0.40008 0.37132,0.21887 0.94088,0.43379 1.26462,0.47826 l 0.58863,0.0782 -0.009,0.73578 c -0.004,0.40439 -0.0554,0.83925 -0.11497,0.96572 -0.0951,0.20204 0.0166,0.21556 0.91513,0.11956 1.32212,-0.14127 1.79191,-0.39721 2.51085,-1.37039 0.69818,-0.9451 0.89213,-1.09138 0.89213,-0.676 0,0.72407 -0.41267,1.28721 -1.44397,1.97281 -2.81953,1.87442 -4.14796,3.91054 -4.14796,6.3553 0,1.34678 0.48525,2.68234 1.57273,4.30894 0.92989,1.3908 1.36272,2.4449 1.10827,2.6994 -0.0815,0.082 -0.20796,0.045 -0.3219,-0.092 -0.29557,-0.3562 -0.87028,-0.2702 -1.3428,0.2023 -0.36355,0.3636 -0.42767,0.5442 -0.42767,1.1818 0,0.8006 0.22513,1.3835 0.70359,1.8165 0.29075,0.2631 0.28607,0.2694 -0.13336,1.0301 -0.2927,0.5308 -0.42123,0.9762 -0.42308,1.4532 -0.002,0.641 0.0592,0.7533 0.93352,1.706 0.51567,0.562 0.9719,1.1157 1.0117,1.2279 0.15116,0.426 0.32446,-0.069 0.3449,-0.9841 0.0244,-1.0918 0.2659,-1.478 1.01629,-1.6187 0.26029,-0.049 0.66339,-0.2133 0.89214,-0.3633 0.41191,-0.2702 0.41931,-0.2679 0.84155,0.087 0.39328,0.3309 1.25093,0.4919 1.46696,0.2759 0.0452,-0.045 0.009,-0.2705 -0.0782,-0.5013 -0.13227,-0.3504 -0.0968,-0.5545 0.21613,-1.2462 l 0.37709,-0.8277 0.31731,0.7771 c 0.17446,0.4279 0.39888,0.9428 0.50125,1.1451 0.24357,0.4815 0.88177,0.5697 1.16805,0.161 0.19332,-0.276 0.23787,-0.1925 0.61621,1.1174 0.47033,1.6284 0.5347,2.9524 0.17015,3.5088 -0.43776,0.6681 0.0675,0.3858 0.9979,-0.5565 1.33459,-1.3515 2.14645,-3.2983 2.15216,-5.1596 0.002,-0.6442 0.0285,-0.7021 0.29891,-0.6162 0.59727,0.1895 1.15372,-0.094 2.17515,-1.1129 0.6801,-0.6788 1.13776,-1.0209 1.36579,-1.0209 0.27453,0 0.30372,-0.037 0.15635,-0.1839 -0.12535,-0.1253 -0.71218,-0.1833 -1.83945,-0.184 -2.06582,-10e-4 -2.29342,-0.1266 -3.37999,-1.8394 -0.44353,-0.6992 -1.55051,-1.4135 -2.52924,-1.6326 l -0.80935,-0.1793 0.40927,-0.2483 c 1.08101,-0.6625 1.80674,-1.80832 2.07858,-3.27885 0.20842,-1.12746 0.68538,-2.19251 1.20484,-2.69019 0.23609,-0.22619 0.4472,-0.38406 0.46906,-0.3495 0.0219,0.0346 0.25783,0.52792 0.52884,1.09448 2.93681,6.13946 9.11219,11.99766 17.43798,16.54126 1.20249,0.6562 2.33746,1.191 2.52005,1.191 1.07879,0 6.83166,-3.506 10.30551,-6.2817 4.07843,-3.2587 7.5781,-7.41 9.42718,-11.18384 0.38841,-0.79271 0.72727,-1.47341 0.75418,-1.50835 0.0269,-0.0349 0.27515,0.1595 0.55183,0.42767 0.58951,0.57138 1.03361,1.5327 1.30601,2.82816 0.32401,1.54096 0.96701,2.54556 2.05099,3.20986 l 0.40467,0.2483 -0.80935,0.1793 c -0.97873,0.2191 -2.08572,0.9334 -2.52925,1.6326 -1.08656,1.7128 -1.31416,1.8382 -3.37998,1.8394 -1.12727,5e-4 -1.7141,0.059 -1.83946,0.184 -0.14736,0.1472 -0.11817,0.1839 0.15636,0.1839 0.22802,0 0.68569,0.3421 1.36579,1.0209 1.02143,1.0194 1.57788,1.3024 2.17515,1.1129 0.27043,-0.086 0.29694,-0.028 0.29891,0.6162 0.006,1.8613 0.81757,3.8081 2.15215,5.1596 0.93044,0.9423 1.43566,1.2246 0.9979,0.5565 -0.36313,-0.5543 -0.29994,-1.8833 0.16556,-3.495 0.39805,-1.3781 0.40719,-1.3909 0.68519,-1.1128 0.15514,0.1551 0.4234,0.2597 0.59782,0.2345 0.3335,-0.048 0.48914,-0.2887 1.0071,-1.559 l 0.31731,-0.7771 0.37708,0.8277 c 0.31294,0.6917 0.34841,0.8958 0.21614,1.2462 -0.19238,0.5097 -0.13303,0.5841 0.48285,0.5841 0.30047,0 0.65058,-0.139 0.93353,-0.3771 l 0.45066,-0.3817 0.36789,0.2897 c 0.20245,0.1593 0.59167,0.3305 0.86454,0.3817 0.7736,0.1451 1.01472,0.5233 1.03929,1.6233 0.0204,0.9151 0.19374,1.4102 0.3449,0.9841 0.0398,-0.1122 0.49603,-0.6659 1.0117,-1.2278 0.87434,-0.9528 0.936,-1.0651 0.93352,-1.7061 -0.002,-0.4769 -0.13038,-0.9223 -0.42308,-1.4532 -0.41944,-0.7607 -0.41951,-0.7669 -0.12876,-1.0301 0.47846,-0.4329 0.7036,-1.0158 0.70359,-1.8164 0,-0.6376 -0.0687,-0.8183 -0.43227,-1.1819 -0.47252,-0.4725 -1.04723,-0.5584 -1.3428,-0.2023 -0.11394,0.1373 -0.24044,0.1734 -0.3219,0.092 -0.25445,-0.2544 0.17837,-1.3086 1.10827,-2.6994 1.08748,-1.6265 1.57733,-2.96212 1.57732,-4.3089 0,-2.44476 -1.33302,-4.48088 -4.15255,-6.3553 -1.0313,-0.6856 -1.43937,-1.24874 -1.43937,-1.97281 0,-0.41538 0.18935,-0.2691 0.88753,0.676 0.71894,0.97319 1.18873,1.22912 2.51085,1.37039 0.89852,0.096 1.01026,0.0825 0.91513,-0.11956 -0.0596,-0.12648 -0.11098,-0.56133 -0.11497,-0.96572 l -0.005,-0.73578 0.58861,-0.0782 c 0.32375,-0.0445 0.88871,-0.25939 1.26003,-0.47826 0.37132,-0.21887 0.847,-0.40008 1.05768,-0.40008 0.21069,0 0.42824,-0.0662 0.47826,-0.14716 0.0507,-0.082 -0.0621,-0.14716 -0.25292,-0.14715 -0.50097,0 -1.33228,-0.61984 -1.94062,-1.44857 -0.50023,-0.68145 -1.09978,-1.09628 -1.77967,-1.22783 -0.19901,-0.0385 -0.27839,-0.14971 -0.24373,-0.3449 0.3413,-1.92187 -0.009,-2.57063 -1.38418,-2.57062 -0.42817,0 -0.50856,0.0521 -0.51045,0.33109 -0.003,0.45502 -0.15299,0.65384 -0.63461,0.83695 -0.93767,0.3565 -2.83797,0.0633 -4.18475,-0.6484 l -0.69439,-0.36789 0.73578,0.0782 c 0.9902,0.10874 2.84692,-0.24053 4.24453,-0.80017 1.45079,-0.58092 1.65393,-0.57841 2.0142,0.0322 0.15959,0.27049 0.47057,0.57612 0.68979,0.676 0.56832,0.25895 2.39589,0.39546 2.39588,0.17935 0,-0.0927 -0.13242,-0.17015 -0.28971,-0.17015 -0.36253,0 -0.74037,-0.53444 -0.74038,-1.04389 0,-0.40451 0.27904,-0.56589 0.98871,-0.57023 0.2538,-0.002 0.43208,-0.20851 0.77716,-0.89213 0.39938,-0.79117 0.47634,-0.86544 0.73578,-0.72658 0.15982,0.0855 0.29432,0.21622 0.29431,0.29431 0,0.0781 0.0745,0.14255 0.16555,0.14256 0.20368,0 0.0595,-0.83056 -0.19774,-1.14046 -0.31323,-0.37742 -0.84444,-0.49233 -1.44396,-0.31271 -0.54578,0.16352 -1.32746,0.0881 -1.31981,-0.12876 0.002,-0.0592 0.34051,-0.33866 0.74958,-0.61622 2.02179,-1.37181 2.85188,-3.45426 2.51544,-6.30471 -0.37132,-3.14588 -1.59528,-5.32508 -3.60072,-6.39669 -0.55179,-0.29484 -0.83491,-0.33192 -2.53384,-0.33569 l -1.91303,-0.005 -0.47825,-0.70819 c -0.30436,-0.45269 -0.47826,-0.89369 -0.47826,-1.20944 l 0,-0.49665 0.88753,0.092 c 0.76486,0.0799 0.94996,0.0505 1.31061,-0.21614 0.37386,-0.2764 0.44472,-0.28387 0.61162,-0.0828 0.2953,0.35582 1.24903,0.78752 1.94522,0.88294 1.12415,0.15408 2.37326,-0.77563 2.97531,-2.21654 0.12249,-0.29317 0.38642,-0.60686 0.58862,-0.69899 0.64986,-0.29609 0.31903,-0.48746 -0.85534,-0.48745 -1.04666,0 -1.15433,-0.0264 -1.60952,-0.45067 -0.99652,-0.92871 -1.3003,-1.09447 -2.05559,-1.09447 -0.7421,0 -1.39573,0.24581 -1.73368,0.653 -0.12438,0.14988 -0.43363,0.22993 -0.88753,0.22994 -0.79863,0 -1.38794,0.36683 -1.53594,0.95651 -0.0513,0.20421 -0.34614,0.70594 -0.65761,1.11747 -1.14123,1.50783 -1.17211,2.58672 -0.11956,4.30431 l 0.43687,0.70819 -0.57023,0.58402 c -0.55103,0.5643 -0.57424,0.62518 -0.62541,1.75208 -0.0959,2.11153 0.75265,3.10912 2.658,3.12706 0.93482,0.009 1.37694,-0.2122 1.94982,-0.97951 0.4365,-0.58465 0.42004,-2.24517 -0.0322,-3.23742 l -0.33111,-0.72199 0.66681,0.092 c 1.10915,0.15203 2.08585,0.77465 2.51544,1.60032 0.28278,0.5435 0.2577,0.70359 -0.10117,0.70359 -0.35855,0 -1.16344,-0.75394 -1.16345,-1.08987 0,-0.36783 -0.41325,-0.27053 -0.69899,0.16555 -0.19153,0.29232 -0.25752,0.6934 -0.25752,1.50834 0,0.96645 0.0563,1.21303 0.45066,1.91763 l 0.45527,0.80936 -0.49206,0.41848 c -0.37585,0.32162 -0.48744,0.53783 -0.48745,0.91972 0,0.44879 0.0687,0.53123 0.69899,0.83235 0.76325,0.36464 0.91709,0.73488 0.63001,1.48995 l -0.15175,0.40008 -0.32191,-0.29891 c -0.24145,-0.22495 -0.51963,-0.30351 -1.10367,-0.3035 l -0.78176,0 0,-0.48746 c 0,-0.26781 -0.0973,-0.61546 -0.21614,-0.77256 -0.38815,-0.51319 -0.27154,-0.95374 0.43687,-1.63252 0.36563,-0.35034 0.76296,-0.63921 0.88294,-0.63921 0.11998,0 0.22073,-0.0722 0.22073,-0.16095 0,-0.10912 -0.44217,-0.14485 -1.36579,-0.11037 -1.11139,0.0415 -1.50314,0.12178 -2.09697,0.42768 -1.10398,0.56869 -1.53127,1.30006 -1.90383,3.24662 -0.0697,0.3643 -0.11389,0.37538 -0.81396,0.30811 -0.89334,-0.0858 -1.56254,0.16547 -1.83485,0.6852 -0.19118,0.36488 -0.17921,0.39023 0.26212,0.53344 0.25392,0.0824 0.48708,0.268 0.51505,0.41387 0.0451,0.23495 -0.049,0.26016 -0.80936,0.22074 l -0.85534,-0.046 -0.0414,-9.3352 -0.0368,-9.33521 -0.3311,-0.35409 c -0.1815,-0.19437 -0.5253,-0.45563 -0.76337,-0.57943 -2.24132,-1.16557 -8.18154,-2.08478 -14.02581,-2.17055 l -2.83275,-0.0414 z m -14.52246,7.48656 c -0.42429,0.003 -0.88146,0.0344 -1.42097,0.0966 -1.89902,0.21886 -2.58731,0.43669 -2.74998,0.86454 -0.0695,0.18275 -0.32105,1.37974 -0.55643,2.65801 -0.23538,1.27826 -0.60683,2.77282 -0.82775,3.3248 -0.22094,0.55199 -0.36836,1.03883 -0.32651,1.08068 0.14031,0.14031 2.07503,0.33544 3.37539,0.3403 0.70819,0.003 1.28762,0.0601 1.28762,0.12876 0,0.0687 -0.26142,0.22918 -0.57943,0.35409 -0.51034,0.20047 -0.60359,0.31589 -0.80476,0.9933 -0.15801,0.53207 -0.18714,0.84829 -0.0874,1.0347 0.37171,0.69456 0.0324,3.06788 -0.52885,3.68809 -0.32116,0.35488 -0.25727,0.42064 0.62082,0.57943 0.90394,0.16346 4.0779,0.0716 4.77337,-0.13796 l 0.52884,-0.16095 -0.43227,-0.87374 c -0.49682,-1.00237 -0.68816,-2.4868 -0.41847,-3.26043 0.14492,-0.41573 0.12131,-0.5766 -0.16555,-1.15425 -0.27398,-0.55171 -0.4292,-0.69267 -0.88294,-0.80476 -0.83166,-0.20544 -0.66401,-0.38033 0.36789,-0.38169 1.15585,-10e-4 3.525,-0.26917 3.6697,-0.41387 0.0599,-0.0598 -0.0513,-0.57405 -0.24832,-1.14046 -0.30169,-0.8675 -0.71651,-2.75471 -1.22324,-5.57813 -0.13135,-0.7319 -0.51825,-0.94556 -2.13376,-1.15885 -0.42081,-0.0556 -0.81273,-0.0811 -1.23703,-0.0782 z m 21.11228,1.87164 c 1.2226,-10e-6 2.47218,0.0467 2.83276,0.13336 0.5846,0.14053 0.67504,0.40459 0.51504,1.47156 -0.069,0.4601 -0.38077,1.06202 -1.06228,2.06018 -0.53008,0.77638 -1.0508,1.62225 -1.15886,1.88084 -0.2138,0.51172 -0.18679,0.56687 1.28302,2.74078 0.64114,0.94826 0.95651,1.8249 1.09447,3.04429 0.0864,0.76355 0.0666,0.90592 -0.12416,0.90593 -0.12466,0 -0.38672,-0.18485 -0.57943,-0.41388 -0.19271,-0.22902 -0.81185,-0.83328 -1.37498,-1.3428 -0.56315,-0.50952 -1.1316,-1.09092 -1.26462,-1.29221 l -0.24373,-0.36789 -1.20484,1.14965 c -1.24558,1.19002 -1.6762,1.79387 -1.49456,2.08778 0.21373,0.34582 1.67944,0.512 3.87664,0.44147 2.15546,-0.0692 2.8961,0.0511 1.40718,0.22993 -1.23919,0.14884 -4.39284,0.0908 -5.11367,-0.0966 l -0.6622,-0.17475 0.0184,-1.03009 c 0.0279,-1.34784 0.43253,-2.39131 1.45777,-3.76168 0.44721,-0.59775 0.85263,-1.24534 0.90133,-1.43936 0.10827,-0.43141 -0.32358,-1.37049 -1.12207,-2.42807 -0.75358,-0.99812 -1.17783,-1.94676 -1.18184,-2.65341 -0.003,-0.51957 0.0288,-0.55691 0.3311,-0.47366 0.8552,0.23549 3.26368,0.40936 4.29511,0.31271 0.62229,-0.0583 1.10108,-0.13596 1.06228,-0.17475 -0.0388,-0.0388 -1.05183,-0.0902 -2.25332,-0.11497 -1.22408,-0.0253 -2.44314,-0.1299 -2.77297,-0.23453 l -0.58863,-0.18394 0.44147,-0.14256 c 0.26739,-0.0867 1.463,-0.13334 2.6856,-0.13336 z m -38.67902,2.25333 c 0.11742,-0.016 0.21253,0.10271 0.30811,0.35409 0.22825,0.60036 0.17133,1.21745 -0.14716,1.53594 -0.30233,0.30233 -0.38199,0.32565 -0.69899,0.19774 -0.28271,-0.11407 -0.22018,-1.09792 0.10577,-1.63251 0.17577,-0.28828 0.31485,-0.4393 0.43227,-0.45526 z m 55.90087,0 c 0.12678,-0.0199 0.27591,0.13093 0.47366,0.45526 0.35766,0.58661 0.39136,1.51447 0.0598,1.6417 -0.32264,0.12381 -0.31902,0.12245 -0.64841,-0.20693 -0.31849,-0.31848 -0.38001,-0.93558 -0.15175,-1.53594 0.0836,-0.21996 0.16811,-0.33859 0.26672,-0.35409 z m -15.0283,0.36789 c -0.0953,-0.002 -0.31685,0.0542 -0.57483,0.15175 -0.81282,0.30751 -3.05356,0.35028 -3.39839,0.0644 -0.49604,-0.41129 -0.25382,0.1948 0.57943,1.43937 0.45379,0.67779 0.92178,1.46165 1.03929,1.74288 0.1175,0.28123 0.24148,0.48051 0.27592,0.44607 0.12924,-0.12924 2.12916,-3.71853 2.12916,-3.82146 0,-0.0148 -0.0188,-0.0222 -0.0506,-0.023 z m -13.0463,14.0304 10.46187,0 10.46647,0 -0.0736,3.86284 c -0.0996,5.08357 -0.44576,6.75566 -2.09697,10.19055 -2.84795,5.92433 -8.69924,11.61493 -16.3711,15.91583 -0.94933,0.5322 -1.87348,1.0244 -2.05559,1.0945 l -0.3311,0.1288 0,-15.59859 0,-15.59393 z m -8.76038,3.86284 c 4.14992,0 7.51416,3.3602 7.51416,7.49576 -1e-5,4.13556 -3.36424,7.49112 -7.51416,7.49112 -4.14992,0 -7.51875,-3.35556 -7.51875,-7.49112 0,-0.71313 0.10264,-1.40183 0.28972,-2.05559 l -0.0184,0 -2.04179,0.14716 2.63501,-1.58653 c 1.26082,-2.37866 3.76981,-4.0008 6.65421,-4.0008 z m 0,0.49665 c -2.3667,0 -4.46088,1.16666 -5.73448,2.95232 l 4.52045,-2.71779 7.91882,4.6722 c -0.88932,-2.84282 -3.55465,-4.90673 -6.70479,-4.90673 z m 19.62693,2.45107 c -2.38695,0.0406 -5.50161,1.78535 -6.51625,3.82145 -0.68758,1.37979 -0.45286,2.23316 0.94272,3.41218 0.96387,0.81432 2.05355,1.35385 3.28801,1.62792 0.49881,0.11074 1.10919,0.26595 1.352,0.34489 0.59434,0.19323 0.51499,0.19848 1.3382,-0.046 1.02222,-0.30357 1.40118,-0.72487 2.51085,-2.80056 0.57084,-1.0678 0.63807,-2.59236 0.18854,-4.10658 -0.41154,-1.38629 -0.90495,-1.88636 -2.13376,-2.16135 -0.30298,-0.0678 -0.62932,-0.0978 -0.97031,-0.092 z m 0.44147,0.39088 c 0.34063,0.002 0.61161,0.0312 0.61161,0.10117 0,0.0509 -0.23177,0.34865 -0.51504,0.6622 -0.28328,0.31355 -0.51303,0.65324 -0.51045,0.75418 0.003,0.10093 0.32136,-0.17116 0.70819,-0.60702 l 0.69899,-0.79097 0.54724,0.47366 c 0.49382,0.43359 0.53854,0.54347 0.53803,1.23244 -5e-4,0.48724 -0.0986,0.92484 -0.28051,1.22323 l -0.28512,0.46446 -0.69439,-0.3541 c -0.44877,-0.22719 -0.94167,-0.3502 -1.37499,-0.34489 l -0.6714,0.009 0.88294,0.27132 c 0.48562,0.14868 1.06504,0.30803 1.28761,0.35869 0.22258,0.0507 0.40468,0.15165 0.40468,0.22073 0,0.10549 -0.99487,1.05063 -1.56353,1.48536 -0.52139,0.39859 -2.1439,1.08184 -2.98451,1.26002 -1.0995,0.23306 -1.30864,0.23762 -2.18434,0.0414 -0.90105,-0.20191 -1.50835,-0.86081 -1.50835,-1.63251 0,-0.68801 0.42758,-1.67225 0.93352,-2.14756 l 0.3403,-0.3219 0.64841,0.29431 c 0.35699,0.16197 0.78544,0.28994 0.94731,0.28511 0.28358,-0.008 -0.086,-0.21016 -1.08527,-0.59322 -0.3023,-0.11588 -0.32129,-0.16508 -0.14716,-0.37708 0.10997,-0.13389 0.49195,-0.42928 0.85074,-0.65761 l 0.65301,-0.41387 0.28971,0.6576 c 0.15738,0.36356 0.34217,0.66219 0.41388,0.6622 0.0717,0 0.0241,-0.24833 -0.10577,-0.55183 -0.12984,-0.30351 -0.26937,-0.62873 -0.30811,-0.72199 -0.0598,-0.14399 1.32712,-0.78637 1.69689,-0.78636 0.0628,0 0.0986,0.41387 0.0782,0.91972 l -0.0368,0.91973 0.14716,-0.80936 c 0.0833,-0.44515 0.17637,-0.89214 0.20694,-0.9933 0.0357,-0.11821 0.80266,-0.19605 1.37039,-0.19315 z m 10.71019,1.89463 c 0.1012,0.0136 0.24435,0.13944 0.48286,0.33111 0.74419,0.59805 0.94755,1.09106 0.81395,1.982 -0.11938,0.79613 -0.16097,0.80157 1.08068,-0.12876 0.84146,-0.63048 1.06228,-0.92291 1.06228,-1.43017 0,-0.26893 0.19817,-0.13483 1.14046,0.77717 0.62725,0.60708 1.82683,1.72321 2.6672,2.47865 1.75671,1.57916 2.06911,2.10454 2.07398,3.48576 0.004,1.24342 -0.33981,2.07269 -0.97031,2.33609 -0.60054,0.2509 -0.96272,0.2458 -1.86704,-0.032 -0.51803,-0.1592 -0.74427,-0.3178 -0.85075,-0.5978 -0.16692,-0.43906 -0.0788,-0.82376 0.25293,-1.09908 0.19626,-0.16288 0.27564,-0.13822 0.51044,0.15175 0.1526,0.18845 0.28053,0.50102 0.28052,0.69439 0,0.49324 0.19841,0.43744 0.72199,-0.19774 0.48526,-0.58871 0.69257,-1.29138 0.52884,-1.80725 -0.12388,-0.3903 -0.89767,-0.73519 -1.65091,-0.73578 -0.53331,-5e-4 -0.56011,-0.0191 -0.57023,-0.50125 -0.007,-0.32372 -0.16422,-0.69647 -0.44147,-1.04389 -0.74892,-0.93849 -0.93489,-1.32093 -1.05768,-2.14296 -0.11732,-0.78537 -0.12487,-0.79317 -0.3311,-0.43227 -0.12985,0.22724 -0.21783,0.83378 -0.22993,1.58653 -0.017,1.05916 -0.0647,1.26863 -0.36329,1.58652 l -0.3449,0.36329 -0.52424,-0.50125 c -0.77673,-0.74339 -1.42324,-1.01247 -2.61662,-1.08987 -0.58678,-0.0381 -1.06688,-0.0809 -1.06688,-0.0966 0,-0.0156 0.15489,-0.48799 0.3449,-1.04849 0.19,-0.56049 0.42467,-1.38511 0.52424,-1.83025 0.17787,-0.79526 0.23141,-1.08025 0.40008,-1.05769 z m -43.82948,0.0414 0.3127,1.25083 c 0.17229,0.68693 0.43527,1.56751 0.58403,1.95901 l 0.26672,0.71279 -0.97031,0.069 c -1.10455,0.079 -1.76852,0.3662 -2.52464,1.08987 l -0.52425,0.50125 -0.34489,-0.36329 c -0.29865,-0.31789 -0.34627,-0.52736 -0.36329,-1.58652 -0.0121,-0.75275 -0.10008,-1.3593 -0.22993,-1.58653 -0.20624,-0.36089 -0.21378,-0.3531 -0.33111,0.43227 -0.12279,0.82203 -0.30876,1.20447 -1.05768,2.14296 -0.27725,0.34742 -0.43467,0.72018 -0.44147,1.04389 -0.0101,0.4821 -0.0323,0.50083 -0.56563,0.50125 -0.75323,5e-4 -1.52703,0.34549 -1.6509,0.73578 -0.16374,0.51587 0.039,1.21854 0.52424,1.80725 0.52357,0.63524 0.72658,0.69104 0.72658,0.19774 0,-0.19337 0.12332,-0.50594 0.27592,-0.69439 0.23481,-0.28997 0.31418,-0.31464 0.51045,-0.15175 0.33143,0.27507 0.41933,0.65677 0.25292,1.09444 -0.10929,0.2875 -0.3329,0.4342 -0.91513,0.6071 -0.92636,0.2751 -1.23824,0.2827 -1.83485,0.023 -0.59664,-0.2598 -0.94239,-1.12062 -0.93812,-2.33155 0.005,-1.46306 0.27555,-1.86795 2.71779,-4.07898 1.19328,-1.08032 2.39311,-2.19644 2.6672,-2.47867 0.45871,-0.47231 0.50125,-0.48912 0.50125,-0.18854 0,0.50837 0.21578,0.80396 1.05768,1.43477 1.23929,0.92856 1.19625,0.92768 1.08068,0.0874 -0.11934,-0.86771 0.0983,-1.40764 0.77257,-1.90383 l 0.44147,-0.32651 z m 9.47776,0.005 0.60242,6.97151 -2.16135,0 c 1.28284,1.36338 3.10848,2.21654 5.13206,2.21654 3.87709,0 7.0221,-3.12976 7.0221,-6.98531 0,-0.65712 -0.0959,-1.29158 -0.26672,-1.89463 l -2.08318,-0.15176 -0.75417,0 -1.03009,6.85655 -2.31771,-0.009 0.58862,-6.9991 -4.73198,-0.005 z m -3.15006,0.17474 c -0.19572,0.64164 -0.30351,1.32317 -0.30351,2.028 0,1.73944 0.64178,3.3294 1.7015,4.55264 l -0.89213,-6.57144 -0.50586,-0.009 z m 24.94754,1.33361 c -0.006,5e-4 -0.0106,0.006 -0.0138,0.009 -0.0505,0.0505 0.23325,0.42034 0.63001,0.82315 0.69795,0.70862 0.95651,0.87235 0.95651,0.60702 0,-0.19095 -1.39182,-1.45497 -1.57273,-1.43937 z m -2.32691,0.30351 c -0.057,0.005 -0.1417,0.0283 -0.25752,0.0736 -0.93925,0.36699 -1.72908,0.74357 -1.72908,0.82775 0,0.1308 0.68509,-0.0471 1.43477,-0.37708 0.52468,-0.23092 0.7988,-0.54492 0.55183,-0.52424 z m 0.32651,0.2989 c -0.1435,0.0364 -1.43017,1.6257 -1.43017,1.77507 0,0.13072 0.48821,-0.2753 0.9795,-0.81395 0.33229,-0.36433 0.56567,-0.85531 0.45986,-0.96112 -0.002,-0.002 -0.005,-10e-4 -0.009,0 z m 1.10367,0.0782 c -0.12858,0 -0.50009,1.59946 -0.46447,2.0004 0.007,0.0743 0.10766,-0.0774 0.22074,-0.3357 0.28484,-0.65052 0.43249,-1.6647 0.24373,-1.6647 z m -19.24064,0.75418 c 0.26565,0 0.47826,0.2172 0.47825,0.48285 0,0.26565 -0.2126,0.47826 -0.47825,0.47826 -0.26566,0 -0.48286,-0.21261 -0.48286,-0.47826 0,-0.26565 0.2172,-0.48285 0.48286,-0.48285 z"
       id="path2385"
       inkscape:connector-curvature="0" />
  </g>
</svg>
