<?xml version="1.0" encoding="UTF-8" standalone="no"?>
<!-- Created with Inkscape (http://www.inkscape.org/) -->

<svg
   xmlns:dc="http://purl.org/dc/elements/1.1/"
   xmlns:cc="http://creativecommons.org/ns#"
   xmlns:rdf="http://www.w3.org/1999/02/22-rdf-syntax-ns#"
   xmlns:svg="http://www.w3.org/2000/svg"
   xmlns="http://www.w3.org/2000/svg"
   xmlns:sodipodi="http://sodipodi.sourceforge.net/DTD/sodipodi-0.dtd"
   xmlns:inkscape="http://www.inkscape.org/namespaces/inkscape"
   width="600"
   height="600"
   id="svg2"
   sodipodi:version="0.32"
   inkscape:version="0.91 r13725"
   sodipodi:docname="LogoSquare66.svg"
   inkscape:output_extension="org.inkscape.output.svg.inkscape"
   version="1.1">
  <defs
     id="defs4">
    <inkscape:perspective
       sodipodi:type="inkscape:persp3d"
       inkscape:vp_x="0 : 526.18109 : 1"
       inkscape:vp_y="0 : 1000 : 0"
       inkscape:vp_z="744.09448 : 526.18109 : 1"
       inkscape:persp3d-origin="372.04724 : 350.78739 : 1"
       id="perspective10" />
    <inkscape:perspective
       id="perspective2447"
       inkscape:persp3d-origin="372.04724 : 350.78739 : 1"
       inkscape:vp_z="744.09448 : 526.18109 : 1"
       inkscape:vp_y="0 : 1000 : 0"
       inkscape:vp_x="0 : 526.18109 : 1"
       sodipodi:type="inkscape:persp3d" />
  </defs>
  <sodipodi:namedview
     id="base"
     pagecolor="#ffffff"
     bordercolor="#666666"
     borderopacity="1.0"
     gridtolerance="10000"
     guidetolerance="10"
     objecttolerance="10"
     inkscape:pageopacity="0.0"
     inkscape:pageshadow="2"
     inkscape:zoom="0.57456337"
     inkscape:cx="18.296344"
     inkscape:cy="487.20451"
     inkscape:document-units="px"
     inkscape:current-layer="layer1"
     showgrid="false"
     inkscape:window-width="1368"
     inkscape:window-height="849"
     inkscape:window-x="-8"
     inkscape:window-y="-8"
     inkscape:window-maximized="1" />
  <metadata
     id="metadata7">
    <rdf:RDF>
      <cc:Work
         rdf:about="">
        <dc:format>image/svg+xml</dc:format>
        <dc:type
           rdf:resource="http://purl.org/dc/dcmitype/StillImage" />
        <dc:title />
      </cc:Work>
    </rdf:RDF>
  </metadata>
  <g
     inkscape:label="Layer 1"
     inkscape:groupmode="layer"
     id="layer1"
     transform="translate(0,-452.36218)">
    <path
       style="fill:#ffffff"
       d="m 251.5743,552.37788 c -0.19352,0.19352 -0.59328,4.15763 -0.88293,8.80483 l -0.51504,8.46147 -2.50165,-2.50165 c -1.36435,-1.36656 -2.93166,-3.53131 -3.50722,-4.83162 -1.43155,-3.23408 -2.21684,-2.98362 -1.71683,0.5641 1.03178,7.32052 2.98314,11.10089 7.2597,14.00435 2.12192,1.4406 3.42955,3.36373 5.29761,7.79927 l 2.47714,5.8617 -1.88851,0.49052 c -1.03112,0.25879 -2.9404,0.0861 -4.243,-0.36789 -1.40073,-0.48831 -2.35449,-0.53153 -2.35449,-0.0981 0,1.14214 5.97152,4.82627 8.75579,5.39573 2.01298,0.41171 3.46536,1.84934 7.45589,7.38231 2.72989,3.78508 4.97879,7.1996 4.97879,7.57854 0,1.0485 -5.36459,2.60136 -7.55402,2.18281 -3.30789,-0.63233 -1.6236,1.26631 2.10924,2.37903 2.45379,0.73144 4.54994,0.83962 7.16159,0.34336 3.44235,-0.6541 3.85094,-0.57387 5.7636,1.4225 1.12932,1.17876 3.25503,2.80908 4.73352,3.60532 5.13127,2.76338 3.36535,3.59486 -7.79926,3.72797 -7.42361,0.0884 -9.23317,0.37808 -12.01774,1.86397 -5.75917,3.07321 -5.29955,4.25696 2.84501,7.35779 3.72442,1.41798 4.99787,1.55009 8.68221,0.90746 2.37412,-0.41406 4.98881,-1.04201 5.81265,-1.39798 1.34583,-0.5815 1.43415,-0.40159 0.98104,1.86397 -0.27736,1.38687 -2.05525,5.0816 -3.94868,8.19168 l -3.43364,5.64099 2.15829,0.24525 c 1.93283,0.21397 2.20682,0.61682 2.6488,3.94869 0.52438,3.95294 4.30032,12.47544 8.87842,20.01321 2.05185,3.37837 2.53796,4.79533 1.88851,5.44478 -0.94471,0.94469 -1.1902,7.44677 -0.3679,9.58965 0.27471,0.71587 1.33423,1.62324 2.3545,2.01114 1.11324,0.42325 1.86397,1.34489 1.86397,2.30545 0,0.96359 1.01515,2.2276 2.55071,3.16384 1.40288,0.85538 3.38648,1.54355 4.41468,1.54515 2.50748,0.004 7.16159,-2.94104 7.16159,-4.53732 0,-0.70397 0.95986,-2.05611 2.13376,-2.99216 1.89104,-1.50787 2.11728,-2.20522 2.06017,-6.15603 -0.0355,-2.45255 -0.42891,-4.8436 -0.88293,-5.29761 -0.57742,-0.57743 0.007,-2.10749 1.93756,-5.12593 3.88668,-6.07586 7.89999,-14.79876 9.05009,-19.64532 0.8253,-3.47789 1.2631,-4.1204 2.77144,-4.12037 1.70167,0 1.57931,-0.37005 -2.35449,-7.77475 -2.27205,-4.27668 -3.93941,-7.9763 -3.70344,-8.21621 0.23597,-0.23988 2.17844,0.10027 4.31659,0.76031 4.84195,1.49473 9.22633,0.99604 14.96084,-1.71681 l 4.34111,-2.06019 -1.7904,-1.88851 c -2.73319,-2.90934 -9.16679,-4.45258 -16.89841,-4.04678 -5.16214,0.27094 -6.7738,0.0821 -7.52948,-0.83388 -0.76088,-0.92235 -0.76321,-1.23102 0.0244,-1.4961 0.54734,-0.18419 2.84298,-1.83317 5.10142,-3.65436 3.8996,-3.14463 4.27157,-3.26428 7.40685,-2.62428 3.56924,0.72857 8.88604,-0.2868 10.27639,-1.96208 0.62632,-0.75465 -0.054,-0.98107 -3.01671,-0.98104 -2.3639,0 -4.27378,-0.44776 -5.00329,-1.17725 -1.05241,-1.05242 -0.89501,-1.55824 1.52061,-4.61089 1.49184,-1.88524 3.68759,-4.98886 4.88067,-6.89181 1.29925,-2.07232 2.96971,-3.63727 4.14491,-3.92415 2.99644,-0.73145 7.29049,-3.05385 8.85388,-4.78257 1.38528,-1.53184 1.35403,-1.54515 -2.18283,-0.73579 -5.24776,1.20087 -5.61958,0.32293 -2.69785,-6.57296 1.35733,-3.20358 2.81401,-5.97367 3.23744,-6.1315 1.98888,-0.74137 6.46646,-5.4461 7.48043,-7.87285 1.28785,-3.08226 2.57601,-10.27642 1.83944,-10.27639 -0.26904,0 -1.14132,1.21937 -1.93756,2.69785 -0.79623,1.47851 -2.42321,3.62652 -3.62984,4.78258 l -2.20735,2.10924 -0.56409,-7.94643 c -0.30986,-4.37045 -0.8024,-8.10362 -1.10367,-8.28979 -0.51359,-0.31741 -2.48432,7.19164 -3.65437,13.97983 l -0.51506,3.04122 -2.7469,-2.77143 c -1.74962,-1.74966 -3.45593,-4.71179 -4.65994,-8.11811 l -1.88851,-5.3712 0.39243,5.76361 c 0.30935,4.44572 1.05159,7.18495 3.26196,11.89511 l 2.86954,6.10698 -1.32442,4.58635 c -0.7337,2.5239 -2.32963,6.81081 -3.55625,9.51609 -2.53984,5.6015 -4.01234,6.16598 -7.33328,2.84501 -2.37266,-2.37265 -2.53435,-1.83562 -0.88294,2.84503 1.85015,5.24388 1.53578,6.52532 -2.5507,10.32544 -6.23581,5.79882 -9.66687,8.10301 -10.76691,7.28422 -0.54382,-0.4048 -2.45048,-1.70079 -4.24301,-2.89407 -1.7925,-1.19329 -3.75466,-3.31236 -4.36562,-4.70899 -1.05987,-2.42285 -1.11615,-2.46501 -1.17724,-0.56409 -0.0353,1.09577 0.65729,3.38351 1.52061,5.07688 0.86331,1.69334 1.56967,3.5396 1.56967,4.09584 0,1.42919 -5.06592,1.28954 -6.27867,-0.17169 -0.53736,-0.64748 -1.42029,-1.17727 -1.96207,-1.17724 -0.54178,0 -1.42472,0.52973 -1.96208,1.17724 -1.2936,1.55869 -6.27865,1.60057 -6.27865,0.0491 0,-0.62834 0.88293,-2.45659 1.96208,-4.04679 1.22794,-1.80948 1.93457,-3.94119 1.91301,-5.71456 l -0.0244,-2.84502 -1.10368,3.13934 c -0.61004,1.72662 -1.72001,3.49247 -2.45259,3.92415 -0.7326,0.43165 -2.5336,1.81646 -3.99774,3.06574 -2.46931,2.10698 -2.80843,2.19227 -4.73351,1.17726 -1.14146,-0.60183 -4.31547,-3.21468 -7.03896,-5.81266 -5.43907,-5.18847 -5.78771,-6.39648 -3.75248,-12.16489 1.63653,-4.63842 1.49126,-4.90038 -1.12819,-2.28093 -3.55895,3.55895 -4.9873,3.05079 -7.55402,-2.62428 -1.22017,-2.69786 -2.8175,-7.01134 -3.53174,-9.58968 l -1.27535,-4.68445 2.67333,-5.69003 c 1.91662,-4.03581 2.80923,-7.08526 3.04123,-10.59523 l 0.31884,-4.95425 -1.37345,3.72794 c -1.57463,4.25123 -5.2503,9.22175 -6.81823,9.22178 -0.65908,0 -1.25618,-1.39836 -1.59419,-3.72795 -0.73697,-5.0792 -2.90288,-13.67672 -3.33555,-13.24404 z m 70.38961,84.66375 3.28649,6.13149 c 2.74664,5.15491 3.10463,6.36027 2.25639,7.38234 -0.55581,0.66969 -1.44611,1.20174 -1.9866,1.20176 -0.54051,0 -1.78204,2.46853 -2.74691,5.46929 -0.96489,3.00079 -3.61825,8.78226 -5.91077,12.85163 -3.92991,6.97579 -4.14331,7.57043 -3.45816,10.61975 0.89941,4.00305 -0.1076,8.98749 -2.30544,11.33102 -5.24382,5.59125 -6.77346,6.87933 -8.63317,7.28421 -1.13666,0.24745 -2.50165,0.59408 -3.04121,0.76031 -0.76684,0.23625 -0.98105,8.43947 -0.98105,37.59835 l 0,37.30404 -54.93823,0 -54.93823,0 0,-59.69627 0,-59.67175 3.50723,-1.56966 c 10.92487,-4.83259 37.04587,-8.65503 67.2748,-9.83493 7.62766,-0.29772 14.17035,-0.74754 14.54391,-1.00556 0.37359,-0.25802 1.45827,-1.72985 2.40355,-3.28649 l 1.71683,-2.84501 -15.50045,0.22073 c -34.00174,0.44655 -67.885,5.88748 -78.06623,12.55731 l -2.94312,1.93756 0,51.01406 0,50.98954 -4.39016,0 c -3.74292,0 -4.32115,-0.19822 -4.09584,-1.37346 0.14482,-0.7554 1.36817,-1.71884 2.72239,-2.15828 2.35374,-0.76377 2.41762,-0.89897 1.39798,-2.84501 -1.45233,-2.77189 -5.02137,-4.1122 -9.78587,-3.65438 -3.73371,0.35876 -3.94471,0.29968 -4.31658,-1.64324 -2.80764,-14.66939 -7.60398,-19.08352 -21.33761,-19.59627 -4.92598,-0.1839 -7.28422,0.007 -7.28422,0.58863 0,0.47332 0.51282,0.85839 1.15272,0.8584 0.63991,0 2.75895,1.54065 4.70899,3.40912 3.7782,3.62015 4.42464,5.96975 2.3545,8.70674 -0.63376,0.83789 -1.15272,2.69205 -1.15272,4.12036 l 0,2.59976 -4.16942,0 c -3.11486,0 -4.62299,0.41896 -5.91077,1.6187 l -1.71682,1.59419 -0.80936,-2.13376 c -1.53108,-4.02705 -0.6861,-6.00169 3.38459,-7.94641 3.36151,-1.60595 3.72795,-2.04564 3.72795,-4.4392 0,-2.03674 -0.61975,-3.18989 -2.62428,-4.90521 l -2.59975,-2.23186 2.40354,-4.31658 c 2.10355,-3.75783 2.42808,-5.07297 2.42808,-10.22735 0,-4.34638 -0.37646,-6.48548 -1.39798,-8.04452 -1.52391,-2.32577 -3.70343,-2.84471 -3.70343,-0.88293 0,1.79161 -4.31731,5.81264 -6.2296,5.81265 -1.91395,0 -2.0232,-0.85385 -0.51505,-3.75248 2.29118,-4.40357 7.47571,-7.72425 13.39119,-8.53504 l 3.55627,-0.49052 -1.74134,3.85059 c -2.41192,5.29201 -2.49972,14.14812 -0.17168,17.26629 3.05536,4.09234 5.38879,5.27102 10.37449,5.22405 10.1619,-0.0957 14.68744,-5.41618 14.17603,-16.67769 -0.27293,-6.01013 -0.39672,-6.33479 -3.33554,-9.3444 l -3.04122,-3.1148 2.32997,-3.777 c 5.61355,-9.16044 5.44892,-14.91454 -0.63767,-22.95634 -1.66117,-2.19478 -3.23387,-4.87067 -3.50722,-5.95982 -0.78934,-3.14496 -3.93235,-5.10142 -8.19169,-5.1014 -2.42084,0 -4.07015,-0.42698 -4.73351,-1.2263 -1.80239,-2.17174 -5.28845,-3.48271 -9.2463,-3.48269 -4.02822,0 -5.64839,0.88402 -10.96312,5.83718 -2.42773,2.26257 -2.97738,2.40353 -8.55958,2.40356 -6.26335,0 -8.05229,1.02056 -4.58636,2.59975 1.07839,0.49136 2.48603,2.1644 3.13932,3.72795 3.21093,7.6848 9.87285,12.64329 15.86833,11.82153 3.71298,-0.50892 8.82408,-2.81128 10.39902,-4.70899 0.89012,-1.07253 1.24354,-1.03266 3.23743,0.44147 1.9235,1.42211 2.91066,1.57909 6.98991,1.15272 l 4.75804,-0.49052 0,2.64881 c 0,1.68396 -0.92749,4.03594 -2.5507,6.45034 l -2.5507,3.777 -10.20282,0.0244 c -9.06094,0.0201 -10.59549,0.21788 -13.53835,1.79039 -10.59104,5.65936 -17.26571,17.49833 -19.20386,34.01757 -1.79639,15.31101 2.6098,26.39124 13.41573,33.72323 2.18171,1.48032 3.9866,2.97099 3.99774,3.28649 0.0408,1.15646 -4.12813,1.55885 -7.03896,0.68672 -4.84819,-1.45254 -8.16069,0.45817 -9.12368,5.2731 -0.50611,2.53051 0.68695,3.53624 1.54513,1.29988 0.97759,-2.54755 3.31404,-1.20517 5.44478,3.13932 1.63061,3.32475 2.50841,4.33286 3.87511,4.3411 3.8047,0.0229 5.32214,0.88045 5.32214,3.04122 0,2.71704 -2.03971,5.56739 -3.97321,5.5674 -0.83884,0 -1.52061,0.41319 -1.52061,0.90747 0,1.15261 9.74699,0.42451 12.77804,-0.95652 1.16918,-0.53272 2.80322,-2.16271 3.65437,-3.60532 1.92142,-3.25656 3.00485,-3.26993 10.74239,-0.17168 7.45393,2.98469 17.38094,4.84745 22.66202,4.26753 l 3.92416,-0.41694 -3.72794,1.96206 c -7.1828,3.79563 -17.31778,5.3595 -22.31867,3.45817 -2.56863,-0.97659 -3.36806,-2.03702 -3.38458,-4.46373 -0.0101,-1.48801 -0.43882,-1.76589 -2.72239,-1.76586 -7.33538,0 -9.20259,3.45998 -7.38232,13.71003 0.18487,1.04102 -0.21399,1.63409 -1.27536,1.83944 -3.6407,0.70444 -6.78892,2.91181 -9.85944,6.89181 -3.53977,4.58819 -7.3792,7.3823 -10.10472,7.38232 -0.94652,0 -1.4933,0.35282 -1.2263,0.78483 0.26678,0.43167 1.40252,0.78481 2.52617,0.78484 1.12367,0 3.66061,0.96648 5.64099,2.13376 1.98038,1.1673 5.01802,2.31356 6.74465,2.5507 l 3.13933,0.41694 -0.049,3.92416 c -0.0213,2.15675 -0.29553,4.47596 -0.61315,5.15046 -0.5074,1.07757 0.0886,1.14969 4.88067,0.63768 7.05134,-0.75344 9.55686,-2.11843 13.39119,-7.30875 3.72366,-5.04051 4.75805,-5.82071 4.75805,-3.60532 0,3.86171 -2.20092,6.86509 -7.70117,10.52165 -15.03748,9.9969 -22.12244,20.85622 -22.12244,33.89492 0,7.18284 2.58799,14.30604 8.38789,22.98086 4.9594,7.41771 7.26781,13.0397 5.91076,14.39676 -0.43447,0.43447 -1.10914,0.2417 -1.71682,-0.49052 -1.57636,-1.8994 -4.64149,-1.44094 -7.16159,1.07915 -1.93895,1.93895 -2.28092,2.90259 -2.28092,6.30317 0,4.26974 1.20073,7.37849 3.75248,9.68777 1.5507,1.40337 1.52575,1.4367 -0.71125,5.49382 -1.56105,2.83121 -2.24653,5.2065 -2.2564,7.75022 -0.0133,3.41888 0.31561,4.01771 4.97878,9.0991 2.75023,2.99689 5.18344,5.95013 5.39572,6.54849 0.8062,2.27219 1.73045,-0.3684 1.83945,-5.24857 0.13005,-5.82306 1.41817,-7.8823 5.42025,-8.63315 1.38821,-0.2604 3.53806,-1.1373 4.75804,-1.93751 2.19687,-1.44119 2.23631,-1.42895 4.48826,0.46595 2.09752,1.76493 6.67166,2.6237 7.82379,1.47156 0.24083,-0.24086 0.0476,-1.44259 -0.41694,-2.67336 -0.70543,-1.86894 -0.51626,-2.95764 1.15271,-6.64651 l 2.01113,-4.41468 1.6923,4.14489 c 0.93047,2.28193 2.12737,5.02783 2.67334,6.10698 1.29903,2.56773 4.70276,3.03824 6.2296,0.85845 1.03104,-1.47204 1.26867,-1.02633 3.28648,5.95977 2.50842,8.68455 2.85175,15.74595 0.90746,18.71335 -2.33471,3.5632 0.35982,2.0578 5.32215,-2.9678 7.11781,-7.20824 11.44771,-17.59077 11.47816,-27.51803 0.0107,-3.43547 0.15192,-3.74423 1.59419,-3.28648 3.18544,1.01103 6.15317,-0.49843 11.6008,-5.93529 3.6272,-3.62002 6.06808,-5.44479 7.28421,-5.44478 1.46418,0 1.61983,-0.19595 0.8339,-0.98104 -0.66856,-0.66784 -3.79832,-0.97756 -9.81041,-0.98104 -11.01772,-0.007 -12.23157,-0.67531 -18.0266,-9.81039 -2.36551,-3.72892 -8.26943,-7.53855 -13.4893,-8.70673 l -4.31657,-0.95651 2.1828,-1.32441 c 5.76539,-3.53335 9.63594,-9.64422 11.08575,-17.48704 1.1116,-6.01312 3.65535,-11.69342 6.42581,-14.34769 1.25915,-1.20635 2.38506,-2.04835 2.50166,-1.86399 0.11666,0.18437 1.37511,2.81557 2.82049,5.8372 15.66301,32.74357 48.59835,63.98747 93.00257,88.21997 6.41327,3.49985 12.46643,6.35215 13.44024,6.35215 5.75359,0 36.43556,-18.69874 54.96275,-33.50241 21.75163,-17.38002 40.41654,-39.52022 50.27829,-59.64721 2.07151,-4.22777 3.87876,-7.85818 4.02227,-8.04453 0.14351,-0.18632 1.46747,0.85067 2.94312,2.28092 3.14406,3.04734 5.51259,8.17438 6.96539,15.08349 1.72807,8.21833 5.15738,13.57607 10.93859,17.11914 l 2.15828,1.32441 -4.31657,0.95651 c -5.21987,1.16816 -11.12379,4.97778 -13.48929,8.70673 -5.79504,9.1351 -7.00891,9.80406 -18.02661,9.81039 -6.01207,0.003 -9.14185,0.31316 -9.81041,0.98104 -0.78593,0.78513 -0.63028,0.98103 0.8339,0.98104 1.21613,0 3.65702,1.8248 7.28421,5.44478 5.44763,5.43684 8.41536,6.94632 11.6008,5.93529 1.44228,-0.45776 1.58366,-0.14896 1.59419,3.28648 0.0305,9.92726 4.36036,20.30979 11.47816,27.51803 4.96234,5.0256 7.65685,6.531 5.32214,2.9678 -1.93672,-2.9559 -1.59972,-10.04433 0.88295,-18.63981 2.12292,-7.34995 2.17169,-7.41792 3.65436,-5.93522 0.82742,0.82738 2.25814,1.38523 3.18838,1.25079 1.77866,-0.25703 2.60872,-1.53945 5.37119,-8.31431 l 1.6923,-4.14489 2.01113,4.41468 c 1.66897,3.68887 1.85816,4.77765 1.15272,6.64651 -1.026,2.71817 -0.70948,3.11484 2.57523,3.11484 1.6025,0 3.46973,-0.74136 4.97879,-2.01114 l 2.40353,-2.03561 1.96209,1.54509 c 1.07971,0.84934 3.15558,1.76266 4.61088,2.03562 4.12587,0.77408 5.41182,2.79077 5.54287,8.65771 0.10894,4.88017 1.03326,7.52076 1.83946,5.24857 0.21229,-0.59836 2.64549,-3.5516 5.39572,-6.54849 4.66317,-5.08139 4.99201,-5.68022 4.97877,-9.0991 -0.0107,-2.54372 -0.69533,-4.91901 -2.25639,-7.75022 -2.23701,-4.05709 -2.2374,-4.09045 -0.68673,-5.49382 2.55176,-2.3093 3.75251,-5.41803 3.75248,-9.68777 0,-3.40058 -0.3665,-4.36421 -2.30544,-6.30317 -2.52011,-2.52012 -5.58524,-2.97855 -7.1616,-1.07915 -0.60768,0.73222 -1.28233,0.92499 -1.71681,0.49052 -1.35707,-1.35706 0.95134,-6.97905 5.91077,-14.39676 5.79988,-8.67482 8.41243,-15.79801 8.4124,-22.98086 0,-13.03872 -7.10947,-23.89803 -22.14696,-33.89492 -5.50024,-3.65654 -7.67662,-6.65996 -7.67664,-10.52165 0,-2.21539 1.00989,-1.4352 4.73352,3.60532 3.83433,5.19033 6.33986,6.55529 13.39119,7.30875 4.79209,0.51203 5.38805,0.43991 4.88068,-0.63768 -0.31763,-0.67451 -0.59191,-2.99371 -0.61316,-5.15046 l -0.0244,-3.92416 3.1393,-0.41694 c 1.72665,-0.23714 4.73975,-1.38339 6.72013,-2.5507 1.9804,-1.16729 4.51732,-2.13379 5.64098,-2.13376 1.12367,0 2.28395,-0.3532 2.55071,-0.78484 0.2703,-0.43732 -0.33133,-0.78485 -1.34893,-0.78483 -2.67184,0 -7.10546,-3.30581 -10.34996,-7.72568 -2.66789,-3.63439 -5.86547,-5.84683 -9.49157,-6.54845 -1.06136,-0.20536 -1.48474,-0.79843 -1.29988,-1.83944 1.82026,-10.25003 -0.0469,-13.71006 -7.38232,-13.71003 -2.28357,0 -2.71228,0.27782 -2.72239,1.76586 -0.0165,2.42675 -0.81593,3.48714 -3.38458,4.46373 -5.0009,1.90134 -15.13586,0.33749 -22.31866,-3.45817 l -3.70343,-1.96206 3.92417,0.41694 c 5.28109,0.57995 15.18355,-1.28281 22.63749,-4.26753 7.73754,-3.09827 8.82098,-3.08488 10.74238,0.17168 0.85116,1.4426 2.50974,3.07259 3.6789,3.60532 3.03106,1.38104 12.77806,2.10913 12.77805,0.95652 0,-0.49427 -0.70628,-0.90748 -1.54515,-0.90747 -1.93349,0 -3.94865,-2.85036 -3.94868,-5.5674 0,-2.15738 1.4882,-3.01809 5.27309,-3.04122 1.35362,-0.008 2.30443,-1.11207 4.1449,-4.75803 2.13002,-4.21956 2.54044,-4.6157 3.92416,-3.87511 0.85237,0.45617 1.56968,1.15319 1.56965,1.56965 0,0.41648 0.39735,0.7603 0.88295,0.76031 1.08628,0 0.31703,-4.42965 -1.05463,-6.08244 -1.67056,-2.01291 -4.50371,-2.62575 -7.70116,-1.66778 -2.91083,0.87211 -7.07976,0.46975 -7.03896,-0.68672 0.0107,-0.31552 1.81605,-1.80618 3.99775,-3.28649 10.78292,-7.31636 15.21007,-18.42275 13.41571,-33.62513 -1.98036,-16.77804 -8.50821,-28.40042 -19.20386,-34.11567 -2.94286,-1.57251 -4.45284,-1.77024 -13.51382,-1.79039 l -10.20281,-0.0244 -2.5507,-3.777 c -1.62321,-2.41439 -2.55068,-4.76638 -2.55071,-6.45034 l 0,-2.64881 4.73351,0.49052 c 4.07926,0.42636 5.06644,0.2694 6.98992,-1.15272 1.9939,-1.47415 2.37183,-1.51397 3.26196,-0.44147 1.57494,1.89768 6.66149,4.20006 10.37449,4.70899 5.99548,0.82177 12.65743,-4.13672 15.86832,-11.82153 0.65331,-1.56357 2.06091,-3.23661 3.13932,-3.72795 3.46594,-1.57918 1.70151,-2.59978 -4.56183,-2.59975 -5.58218,0 -6.15638,-0.141 -8.58409,-2.40356 -5.31474,-4.95315 -6.9349,-5.8372 -10.96312,-5.83718 -3.95787,0 -7.44393,1.31097 -9.2463,3.48269 -0.66337,0.79932 -2.31268,1.22628 -4.73352,1.2263 -4.25935,0 -7.40232,1.95644 -8.19168,5.1014 -0.27335,1.08914 -1.84607,3.76504 -3.50722,5.95982 -6.0866,8.04179 -6.25125,13.79588 -0.63768,22.95634 l 2.32996,3.777 -3.04121,3.1148 c -2.93881,3.00961 -3.0626,3.33427 -3.33553,9.3444 -0.51142,11.26151 4.01414,16.58198 14.17601,16.67769 4.98571,0.0469 7.34367,-1.13172 10.39903,-5.22405 2.32804,-3.11816 2.24024,-11.97427 -0.17168,-17.26629 l -1.76588,-3.85059 3.55628,0.49052 c 5.91547,0.81081 11.12454,4.13147 13.41571,8.53504 1.50815,2.89863 1.37438,3.75247 -0.53957,3.75248 -1.91228,0 -6.20504,-4.02105 -6.20507,-5.81265 0,-1.96178 -2.20404,-1.44284 -3.72796,0.88293 -1.02151,1.55904 -1.37343,3.69814 -1.37345,8.04452 0,5.15438 0.30001,6.46948 2.40354,10.22735 l 2.42807,4.31658 -2.62428,2.23186 c -2.00453,1.71532 -2.59972,2.86847 -2.59975,4.90521 0,2.39354 0.36646,2.83322 3.72795,4.4392 4.07069,1.94474 4.89113,3.91936 3.36007,7.94641 l -0.80936,2.13376 -1.71682,-1.59419 c -1.28777,-1.19973 -2.77137,-1.61873 -5.88624,-1.6187 l -4.16943,0 0,-2.59976 c 0,-1.42831 -0.51893,-3.28247 -1.1527,-4.12036 -2.07016,-2.73699 -1.44823,-5.08659 2.32996,-8.70674 1.95004,-1.86847 4.06909,-3.40913 4.70899,-3.40912 0.6399,0 1.17726,-0.38508 1.17725,-0.8584 0,-0.58196 -2.35827,-0.77253 -7.28423,-0.58863 -5.92743,0.2213 -8.01675,0.64947 -11.18386,2.28092 -5.88789,3.03302 -8.16674,6.93366 -10.15374,17.31535 -0.37187,1.94292 -0.6074,2.00198 -4.34111,1.64324 -4.7645,-0.45781 -8.33355,0.88249 -9.78587,3.65438 -1.01964,1.94605 -0.95576,2.08123 1.39797,2.84501 1.35424,0.43946 2.59776,1.42934 2.74692,2.20734 0.24027,1.25305 -0.26112,1.38748 -4.31657,1.17725 l -4.56183,-0.24525 -0.22075,-49.78778 -0.1962,-49.78777 -1.76588,-1.88849 c -0.96797,-1.03661 -2.80158,-2.42999 -4.0713,-3.09028 -11.95369,-6.21638 -43.63487,-11.11884 -74.80429,-11.57627 l -15.10802,-0.22073 z m -77.45309,39.92831 c -2.26291,0.0156 -4.70111,0.18343 -7.57853,0.51504 -10.12807,1.16727 -13.79897,2.32899 -14.66655,4.6109 -0.37055,0.97464 -1.71227,7.35861 -2.96764,14.17603 -1.25536,6.8174 -3.23639,14.78836 -4.41467,17.73228 -1.1783,2.94392 -1.96454,5.5404 -1.74135,5.76362 0.74831,0.74832 11.0668,1.78901 18.00207,1.81492 3.777,0.0141 6.86728,0.32056 6.86728,0.68673 0,0.36617 -1.39424,1.22228 -3.09028,1.88851 -2.72182,1.06914 -3.21913,1.68473 -4.29204,5.2976 -0.8427,2.83771 -0.99806,4.52417 -0.46598,5.51836 1.98248,3.70431 0.17304,16.36203 -2.82051,19.66983 -1.71286,1.89271 -1.37214,2.24339 3.31103,3.09028 4.82098,0.87182 21.74881,0.38215 25.45797,-0.73577 l 2.82049,-0.85843 -2.30545,-4.65992 c -2.64972,-5.34599 -3.6702,-13.26292 -2.23186,-17.38894 0.77293,-2.21722 0.64702,-3.07522 -0.88294,-6.15603 -1.46122,-2.94242 -2.28904,-3.69424 -4.70898,-4.29204 -4.43552,-1.0957 -3.54143,-2.02842 1.96208,-2.03566 6.16451,-0.008 18.79999,-1.43559 19.57174,-2.20734 0.3192,-0.3192 -0.27389,-3.06161 -1.32441,-6.08244 -1.60901,-4.62668 -3.82136,-14.6918 -6.5239,-29.75003 -0.70058,-3.90347 -2.764,-5.043 -11.38007,-6.18055 -2.24434,-0.29632 -4.33459,-0.43255 -6.5975,-0.41695 z m 112.59884,9.98208 c 6.52052,-8e-5 13.18495,0.24899 15.10802,0.71126 3.11791,0.74949 3.60025,2.1578 2.74691,7.84831 -0.36798,2.45384 -2.0308,5.66409 -5.66551,10.98765 -2.82707,4.14068 -5.60428,8.65198 -6.18055,10.03112 -1.14031,2.72918 -0.99624,3.02333 6.84275,14.6175 3.41939,5.0574 5.10141,9.7328 5.83719,16.23622 0.46073,4.07225 0.3549,4.83159 -0.6622,4.83161 -0.66487,0 -2.06251,-0.98586 -3.09028,-2.20733 -1.02778,-1.22145 -4.32986,-4.44415 -7.33327,-7.1616 -3.00342,-2.71747 -6.0352,-5.81823 -6.74464,-6.8918 l -1.29988,-1.96208 -6.42581,6.13149 c -6.64308,6.34676 -8.93974,9.56728 -7.97096,11.13482 1.13988,1.84434 8.957,2.73064 20.67542,2.35449 11.49576,-0.369 15.44586,0.27248 7.50495,1.22629 -6.60903,0.79384 -23.42847,0.4841 -27.2729,-0.51504 l -3.53175,-0.93198 0.0981,-5.49383 c 0.14861,-7.1885 2.3068,-12.75364 7.77474,-20.06227 2.38512,-3.18803 4.54738,-6.64186 4.80709,-7.67663 0.57748,-2.30083 -1.72573,-7.30926 -5.98434,-12.94972 -4.01912,-5.32329 -6.28176,-10.38271 -6.30317,-14.1515 -0.0159,-2.77103 0.15341,-2.9702 1.76586,-2.52619 4.5611,1.25598 17.4063,2.18326 22.90729,1.66778 3.31885,-0.31102 5.87241,-0.72508 5.66549,-0.93199 -0.2069,-0.20691 -5.60976,-0.48083 -12.01773,-0.61316 -6.52842,-0.13479 -13.03009,-0.69279 -14.78917,-1.25082 l -3.13933,-0.98104 2.35449,-0.7603 c 1.42607,-0.46232 7.80267,-0.71118 14.32319,-0.71126 z m -206.28814,12.01774 c 0.62625,-0.0852 1.13351,0.5478 1.64324,1.88849 1.21736,3.2019 0.91377,6.49307 -0.78483,8.19169 -1.61245,1.61245 -2.03727,1.73682 -3.72795,1.05462 -1.50778,-0.6084 -1.17428,-5.85561 0.5641,-8.70672 0.93745,-1.53753 1.67919,-2.34292 2.30544,-2.42808 z m 298.13799,0 c 0.67618,-0.10627 1.47155,0.69833 2.52618,2.42808 1.90754,3.1286 2.08726,8.07716 0.31884,8.75576 -1.72075,0.66032 -1.70142,0.65304 -3.45816,-1.10366 -1.69861,-1.69859 -2.02673,-4.98979 -0.80936,-8.19169 0.44602,-1.1731 0.8966,-1.8058 1.4225,-1.88849 z m -80.15095,1.96208 c -0.50815,-0.0133 -1.68984,0.2888 -3.06575,0.80936 -4.33501,1.64004 -16.28566,1.86817 -18.12471,0.34336 -2.64555,-2.19356 -1.35371,1.03891 3.09028,7.67663 2.4202,3.61491 4.91616,7.79546 5.54287,9.29536 0.62669,1.49988 1.28787,2.56271 1.47156,2.37903 0.68927,-0.68928 11.35554,-19.83214 11.35554,-20.38111 0,-0.0788 -0.1004,-0.11827 -0.26979,-0.12267 z m -69.58024,74.82881 55.79664,0 55.82116,0 -0.39242,20.60184 c -0.53096,27.11238 -2.37738,36.0302 -11.18385,54.3496 -15.18906,31.59657 -46.39592,61.94648 -87.31254,84.88444 -5.06307,2.83841 -9.99189,5.46336 -10.96313,5.83725 l -1.76586,0.68673 0,-83.19222 0,-83.16764 z m -46.72203,20.60184 c 22.13291,-10e-6 40.07549,17.92105 40.07549,39.97736 -10e-6,22.05634 -17.94256,39.95286 -40.07549,39.95285 -22.1329,0 -40.1,-17.89651 -40.1,-39.95285 0,-3.80334 0.5474,-7.47638 1.54514,-10.96311 l -0.0981,0 -10.88954,0.78483 14.05339,-8.46147 c 6.72438,-12.68621 20.10565,-21.33761 35.48911,-21.33761 z m 0,2.6488 c -12.62242,0 -23.79139,6.22219 -30.58391,15.74569 l 24.10906,-14.49486 42.23375,24.9184 c -4.74304,-15.16173 -18.95818,-26.16923 -35.7589,-26.16923 z m 104.67695,13.07235 c -12.73038,0.21671 -29.34194,9.52186 -34.75333,20.3811 -3.66707,7.35884 -2.41527,11.91016 5.02783,18.1983 5.14065,4.34299 10.95227,7.22049 17.53608,8.6822 2.66033,0.59063 5.91567,1.41844 7.21064,1.83944 3.16983,1.03056 2.74663,1.05856 7.13707,-0.24525 5.45184,-1.61903 7.47298,-3.86595 13.39119,-14.93633 3.04448,-5.6949 3.40304,-13.82587 1.00557,-21.90171 -2.19489,-7.39355 -4.8264,-10.06059 -11.38007,-11.52723 -1.61585,-0.36161 -3.35636,-0.52147 -5.17498,-0.49052 z m 2.3545,2.08472 c 1.81672,0.009 3.26195,0.16659 3.26195,0.53956 0,0.27143 -1.23611,1.85947 -2.74691,3.53175 -1.5108,1.67227 -2.73613,3.48393 -2.72238,4.02227 0.0137,0.53832 1.71394,-0.91286 3.777,-3.23743 l 3.72794,-4.21848 2.91861,2.52617 c 2.63374,2.31247 2.87221,2.89851 2.86954,6.57298 -0.003,2.59863 -0.5257,4.93248 -1.49609,6.52391 l -1.52061,2.47713 -3.70342,-1.88851 c -2.39347,-1.21172 -5.02227,-1.86778 -7.33328,-1.83944 l -3.58079,0.0491 4.70899,1.44703 c 2.58995,0.79298 5.68021,1.64286 6.86728,1.91302 1.18706,0.27015 2.15828,0.8088 2.15828,1.17726 0,0.56261 -5.306,5.60336 -8.33884,7.92189 -2.78076,2.12582 -11.43415,5.76983 -15.91736,6.72012 -5.86403,1.24298 -6.97946,1.26728 -11.64985,0.22074 -4.80562,-1.07686 -8.04452,-4.59099 -8.04452,-8.70672 0,-3.66939 2.28043,-8.91869 4.97878,-11.45365 l 1.81492,-1.71681 3.45816,1.56965 c 1.904,0.86383 4.18904,1.54636 5.05236,1.52062 1.51244,-0.0451 -0.45862,-1.12086 -5.78815,-3.16384 -1.61223,-0.61804 -1.71352,-0.88045 -0.78483,-2.01114 0.5865,-0.71407 2.62376,-2.28948 4.53731,-3.50723 l 3.4827,-2.20733 1.54513,3.50721 c 0.83933,1.93898 1.82492,3.53172 2.20735,3.53174 0.38241,0 0.1284,-1.32443 -0.56411,-2.94311 -0.69248,-1.61872 -1.43664,-3.35321 -1.64324,-3.85059 -0.31903,-0.76796 7.07796,-4.19396 9.05009,-4.19393 0.3351,0 0.52571,2.20731 0.41694,4.90519 l -0.1962,4.9052 0.78484,-4.31658 c 0.44421,-2.37412 0.94063,-4.75806 1.10367,-5.29761 0.19048,-0.63044 4.28086,-1.04556 7.30874,-1.03009 z m 57.12103,10.1047 c 0.53975,0.0723 1.30323,0.74365 2.57524,1.76588 3.96906,3.18963 5.05364,5.819 4.3411,10.57069 -0.63672,4.24601 -0.85854,4.27505 5.76361,-0.68672 4.4878,-3.36257 5.66552,-4.92221 5.66551,-7.62758 0,-1.43431 1.05692,-0.71908 6.08244,4.14489 3.34533,3.2378 9.74307,9.19048 14.22507,13.21951 9.36911,8.42215 11.03524,11.2242 11.06123,18.59071 0.0235,6.63156 -1.81232,11.05418 -5.17499,12.4592 -3.20288,1.33826 -5.13451,1.31072 -9.95755,-0.17168 -2.76281,-0.8492 -3.96942,-1.69477 -4.53731,-3.18838 -0.89026,-2.34159 -0.4204,-4.39332 1.34893,-5.86171 1.04674,-0.86872 1.47008,-0.73718 2.72238,0.80936 0.81384,1.00504 1.49611,2.67209 1.4961,3.70341 0,2.6308 1.05818,2.33303 3.85057,-1.05461 2.58808,-3.1398 3.69372,-6.88738 2.82048,-9.63872 -0.66065,-2.08156 -4.78757,-3.921 -8.80483,-3.92415 -2.8443,-0.003 -2.98726,-0.10213 -3.04121,-2.67333 -0.0363,-1.72647 -0.87587,-3.71449 -2.3545,-5.56741 -3.99425,-5.00526 -4.98608,-7.04496 -5.64097,-11.42912 -0.62571,-4.18863 -0.66599,-4.23021 -1.76588,-2.30543 -0.69255,1.21194 -1.16175,4.44683 -1.22629,8.46147 -0.0908,5.64886 -0.34478,6.76603 -1.93755,8.46147 l -1.83947,1.93755 -2.79596,-2.67334 c -4.14255,-3.96477 -7.59061,-5.39982 -13.95528,-5.81266 -3.12952,-0.20299 -5.69003,-0.4316 -5.69003,-0.51504 0,-0.0835 0.82608,-2.60262 1.83944,-5.59194 1.01337,-2.98928 2.26495,-7.38724 2.79597,-9.76133 0.94866,-4.24139 1.23419,-5.7613 2.13375,-5.64099 z m -233.75724,0.22074 1.66776,6.67107 c 0.91888,3.66364 2.32142,8.36008 3.1148,10.44807 l 1.42251,3.80152 -5.17498,0.3679 c -5.89096,0.4215 -9.43215,1.95308 -13.46478,5.81266 l -2.79596,2.67334 -1.83945,-1.93755 c -1.59278,-1.69544 -1.84676,-2.8126 -1.93755,-8.46147 -0.0645,-4.01465 -0.53374,-7.24956 -1.2263,-8.46147 -1.0999,-1.92476 -1.14016,-1.8832 -1.76587,2.30543 -0.65492,4.38416 -1.64672,6.42384 -5.64098,11.42912 -1.47865,1.85292 -2.31825,3.84095 -2.3545,5.56741 -0.054,2.57121 -0.17239,2.67113 -3.0167,2.67333 -4.01725,0.003 -8.14417,1.84261 -8.80483,3.92415 -0.87324,2.75133 0.20788,6.49891 2.79596,9.63872 2.7924,3.38765 3.87511,3.6854 3.87511,1.05461 0,-1.0313 0.65772,-2.69836 1.47156,-3.70341 1.25232,-1.54655 1.67564,-1.67811 2.72239,-0.80936 1.76767,1.46704 2.23647,3.5028 1.34893,5.83719 -0.58287,1.53308 -1.77546,2.31529 -4.88068,3.23742 -4.94059,1.46722 -6.60397,1.50783 -9.78587,0.12267 -3.1821,-1.38532 -5.02607,-5.97636 -5.0033,-12.43468 0.0275,-7.80298 1.46958,-9.96235 14.49486,-21.75455 6.36417,-5.76171 12.76323,-11.71433 14.22508,-13.21953 2.44644,-2.51901 2.67334,-2.60864 2.67334,-1.00556 0,2.71128 1.15082,4.28778 5.64096,7.65211 6.60954,4.95232 6.37999,4.9476 5.76362,0.466 -0.63648,-4.62776 0.52448,-7.50741 4.12037,-10.15376 l 2.3545,-1.74135 z m 50.54806,0.0244 3.21291,37.18141 -11.52722,0 c 6.84185,7.27135 16.57859,11.82154 27.37101,11.82153 20.67781,0 37.45121,-16.69205 37.45121,-37.25499 0,-3.50462 -0.51176,-6.88842 -1.42252,-10.1047 l -11.11027,-0.80937 -4.02227,0 -5.49383,36.56827 -12.36109,-0.0491 3.13932,-37.32856 -25.23725,-0.0245 z m -16.80031,0.93198 c -1.04383,3.42205 -1.61871,7.05688 -1.61871,10.81597 0,9.27701 3.42282,17.75681 9.07462,24.28074 l -4.75803,-35.04765 -2.69788,-0.0491 z m 133.05353,7.11255 c -0.0311,0.003 -0.0563,0.0317 -0.0736,0.0491 -0.26948,0.2695 1.24401,2.24183 3.36007,4.39016 3.72242,3.77927 5.1014,4.65251 5.1014,3.23743 0,-1.01839 -7.42305,-7.75983 -8.3879,-7.67663 z m -12.41015,1.61872 c -0.30395,0.0253 -0.75575,0.15106 -1.37346,0.39241 -5.00932,1.95727 -9.22177,3.96568 -9.22177,4.41467 0,0.69759 3.6538,-0.25147 7.65211,-2.01112 2.79832,-1.23156 4.26025,-2.90624 2.94312,-2.79596 z m 1.74135,1.59418 c -0.76532,0.19398 -7.62759,8.67035 -7.62759,9.46703 0,0.69716 2.6038,-1.46826 5.22404,-4.34109 1.77221,-1.94307 3.01692,-4.56162 2.4526,-5.12594 -0.012,-0.012 -0.0244,-0.007 -0.0491,0 z m 5.88624,0.41695 c -0.68576,0 -2.66714,8.53044 -2.47714,10.6688 0.0353,0.3963 0.57418,-0.41305 1.17726,-1.7904 1.51916,-3.46945 2.30664,-8.87844 1.29988,-8.8784 z m -102.61676,4.02226 c 1.41681,0 2.55071,1.15842 2.55069,2.57524 0,1.4168 -1.13388,2.5507 -2.55069,2.55069 -1.41682,0 -2.57523,-1.13389 -2.57523,-2.55069 0,-1.41684 1.15841,-2.57524 2.57523,-2.57524 z"
       id="path2385"
       inkscape:connector-curvature="0" />
  </g>
</svg>
