<?xml version="1.0" encoding="UTF-8" standalone="no"?>
<!-- Created with Inkscape (http://www.inkscape.org/) -->

<svg
   xmlns:dc="http://purl.org/dc/elements/1.1/"
   xmlns:cc="http://creativecommons.org/ns#"
   xmlns:rdf="http://www.w3.org/1999/02/22-rdf-syntax-ns#"
   xmlns:svg="http://www.w3.org/2000/svg"
   xmlns="http://www.w3.org/2000/svg"
   xmlns:sodipodi="http://sodipodi.sourceforge.net/DTD/sodipodi-0.dtd"
   xmlns:inkscape="http://www.inkscape.org/namespaces/inkscape"
   width="600"
   height="600"
   id="svg2"
   sodipodi:version="0.32"
   inkscape:version="0.91 r13725"
   sodipodi:docname="LogoFill.svg"
   inkscape:output_extension="org.inkscape.output.svg.inkscape"
   version="1.1">
  <defs
     id="defs4">
    <inkscape:perspective
       sodipodi:type="inkscape:persp3d"
       inkscape:vp_x="0 : 526.18109 : 1"
       inkscape:vp_y="0 : 1000 : 0"
       inkscape:vp_z="744.09448 : 526.18109 : 1"
       inkscape:persp3d-origin="372.04724 : 350.78739 : 1"
       id="perspective10" />
    <inkscape:perspective
       id="perspective2447"
       inkscape:persp3d-origin="372.04724 : 350.78739 : 1"
       inkscape:vp_z="744.09448 : 526.18109 : 1"
       inkscape:vp_y="0 : 1000 : 0"
       inkscape:vp_x="0 : 526.18109 : 1"
       sodipodi:type="inkscape:persp3d" />
  </defs>
  <sodipodi:namedview
     id="base"
     pagecolor="#ffffff"
     bordercolor="#666666"
     borderopacity="1.0"
     gridtolerance="10000"
     guidetolerance="10"
     objecttolerance="10"
     inkscape:pageopacity="0.0"
     inkscape:pageshadow="2"
     inkscape:zoom="0.57456337"
     inkscape:cx="-54.309022"
     inkscape:cy="487.20451"
     inkscape:document-units="px"
     inkscape:current-layer="layer1"
     showgrid="false"
     inkscape:window-width="1368"
     inkscape:window-height="849"
     inkscape:window-x="-8"
     inkscape:window-y="-8"
     inkscape:window-maximized="1" />
  <metadata
     id="metadata7">
    <rdf:RDF>
      <cc:Work
         rdf:about="">
        <dc:format>image/svg+xml</dc:format>
        <dc:type
           rdf:resource="http://purl.org/dc/dcmitype/StillImage" />
        <dc:title></dc:title>
      </cc:Work>
    </rdf:RDF>
  </metadata>
  <g
     inkscape:label="Layer 1"
     inkscape:groupmode="layer"
     id="layer1"
     transform="translate(0,-452.36218)">
    <path
       style="fill:#ffffff"
       d="m 232.204,472.38414 c -0.27093,0.27093 -0.8306,5.82068 -1.23611,12.32676 l -0.72105,11.84606 -3.50231,-3.50231 c -1.91009,-1.91318 -4.10433,-4.94383 -4.91011,-6.76427 -2.00417,-4.52771 -3.10358,-4.17707 -2.40356,0.78974 1.44449,10.24873 4.17639,15.54125 10.16358,19.60609 2.97069,2.01684 4.80137,4.70923 7.41665,10.91898 l 3.468,8.20638 -2.64391,0.68673 c -1.44357,0.36231 -4.11657,0.12054 -5.94021,-0.51504 -1.96102,-0.68364 -3.29628,-0.74415 -3.29628,-0.13734 0,1.59899 8.36013,6.75677 12.25811,7.55402 2.81817,0.57639 4.8515,2.58907 10.43824,10.33523 3.82185,5.29912 6.97031,10.07944 6.97031,10.60996 0,1.4679 -7.51043,3.6419 -10.57563,3.05593 -4.63105,-0.88526 -2.27304,1.77284 2.95294,3.33065 3.4353,1.02401 6.36991,1.17546 10.02622,0.4807 4.81929,-0.91574 5.39132,-0.80342 8.06904,1.9915 1.58105,1.65026 4.55705,3.93271 6.62693,5.04745 7.18378,3.86873 4.71149,5.0328 -10.91896,5.21916 -10.39306,0.12376 -12.92644,0.52931 -16.82484,2.60956 -8.06284,4.30249 -7.41937,5.95974 3.98301,10.3009 5.21419,1.98518 6.99702,2.17013 12.1551,1.27045 3.32377,-0.57969 6.98433,-1.45882 8.13771,-1.95718 1.88416,-0.8141 2.00781,-0.56222 1.37346,2.60956 -0.38831,1.94162 -2.87735,7.11424 -5.52816,11.46836 l -4.80709,7.89738 3.0216,0.34335 c 2.70597,0.29956 3.08955,0.86355 3.70832,5.52817 0.73414,5.53412 6.02045,17.46562 12.42979,28.0185 2.87259,4.72971 3.55315,6.71346 2.64392,7.62269 -1.3226,1.32256 -1.66628,10.42548 -0.51506,13.42551 0.38459,1.00222 1.86792,2.27254 3.2963,2.8156 1.55853,0.59255 2.60956,1.88284 2.60956,3.22763 0,1.34902 1.42121,3.11864 3.57099,4.42937 1.96403,1.19753 4.74107,2.16097 6.18055,2.16321 3.51048,0.006 10.02623,-4.11745 10.02623,-6.35225 0,-0.98555 1.3438,-2.87855 2.98726,-4.18902 2.64746,-2.11102 2.9642,-3.08731 2.88424,-8.61844 -0.0497,-3.43357 -0.60047,-6.78104 -1.2361,-7.41666 -0.80839,-0.8084 0.01,-2.95048 2.71258,-7.1763 5.44136,-8.5062 11.05999,-20.71827 12.67013,-27.50345 1.15542,-4.86905 1.76834,-5.76856 3.88002,-5.76852 2.38234,0 2.21103,-0.51807 -3.29629,-10.88465 -3.18087,-5.98735 -5.51517,-11.16682 -5.18482,-11.5027 0.33036,-0.33583 3.04982,0.14038 6.04323,1.06444 6.77873,2.09262 12.91686,1.39446 20.94518,-2.40354 l 6.07755,-2.88426 -2.50656,-2.64392 c -3.82646,-4.07307 -12.8335,-6.23361 -23.65777,-5.66549 -7.227,0.37932 -9.48332,0.11494 -10.54128,-1.16743 -1.06523,-1.29129 -1.06849,-1.72343 0.0342,-2.09454 0.76628,-0.25787 3.98018,-2.56644 7.14199,-5.11611 5.45944,-4.40248 5.9802,-4.56999 10.36959,-3.67399 4.99694,1.02 12.44046,-0.40152 14.38695,-2.74691 0.87685,-1.05651 -0.0756,-1.3735 -4.22339,-1.37346 -3.30946,0 -5.9833,-0.62686 -7.00461,-1.64815 -1.47337,-1.47338 -1.25301,-2.18153 2.12885,-6.45524 2.08858,-2.63934 5.16263,-6.98441 6.83294,-9.64854 1.81895,-2.90125 4.1576,-5.09218 5.80288,-5.49381 4.19501,-1.02403 10.20668,-4.27539 12.39543,-6.6956 1.93939,-2.14457 1.89564,-2.16321 -3.05596,-1.0301 -7.34687,1.68122 -7.86741,0.4521 -3.77699,-9.20215 1.90026,-4.48501 3.93961,-8.36314 4.53241,-8.5841 2.78444,-1.03792 9.05305,-7.62454 10.47261,-11.02199 1.80299,-4.31516 3.60641,-14.38699 2.57521,-14.38695 -0.37665,0 -1.59784,1.70712 -2.71258,3.77699 -1.11472,2.06992 -3.39249,5.07713 -5.08178,6.69562 l -3.09029,2.95293 -0.78972,-11.125 c -0.43381,-6.11863 -1.12336,-11.34507 -1.54514,-11.60571 -0.71903,-0.44437 -3.47805,10.0683 -5.11612,19.57177 l -0.72108,4.2577 -3.84566,-3.88 c -2.44947,-2.44952 -4.83831,-6.5965 -6.52392,-11.36535 l -2.64391,-7.51968 0.5494,8.06905 c 0.43309,6.22401 1.47222,10.05893 4.56674,16.65316 l 4.01736,8.54977 -1.85419,6.42089 c -1.02718,3.53346 -3.26148,9.53514 -4.97875,13.32253 -3.55578,7.8421 -5.61728,8.63237 -10.26659,3.98301 -3.32173,-3.32171 -3.54809,-2.56987 -1.23612,3.98304 2.59021,7.34144 2.15009,9.13545 -3.57098,14.45562 -8.73013,8.11835 -13.53362,11.34422 -15.07368,10.19791 -0.76134,-0.56672 -3.43067,-2.38111 -5.94021,-4.0517 -2.5095,-1.6706 -5.25652,-4.6373 -6.11187,-6.59258 -1.48382,-3.39199 -1.56261,-3.45102 -1.64813,-0.78973 -0.0494,1.53408 0.9202,4.73691 2.12885,7.10763 1.20863,2.37068 2.19754,4.95544 2.19754,5.73418 0,2.00086 -7.09229,1.80535 -8.79014,-0.24037 -0.75231,-0.90647 -1.98841,-1.64818 -2.7469,-1.64813 -0.75849,0 -1.99461,0.74162 -2.74691,1.64813 -1.81104,2.18217 -8.79011,2.2408 -8.79011,0.0687 0,-0.87967 1.2361,-3.43922 2.74691,-5.6655 1.71912,-2.53328 2.7084,-5.51767 2.67821,-8.00039 l -0.0342,-3.98303 -1.54515,4.39508 c -0.85405,2.41727 -2.40801,4.88946 -3.43362,5.49381 -1.02564,0.60431 -3.54704,2.54304 -5.59684,4.29204 -3.45704,2.94977 -3.9318,3.06917 -6.62692,1.64816 -1.59804,-0.84256 -6.04165,-4.50055 -9.85454,-8.13772 -7.6147,-7.26386 -8.1028,-8.95508 -5.25347,-17.03085 2.29114,-6.49379 2.08776,-6.86053 -1.57947,-3.1933 -4.98253,4.98253 -6.98222,4.2711 -10.57563,-3.674 -1.70824,-3.777 -3.9445,-9.81587 -4.94443,-13.42555 l -1.78549,-6.55823 3.74266,-7.96604 c 2.68327,-5.65014 3.93292,-9.91937 4.25772,-14.83333 l 0.44638,-6.93595 -1.92283,5.21912 c -2.20449,5.95172 -7.35042,12.91045 -9.54553,12.91049 -0.92271,0 -1.75865,-1.9577 -2.23186,-5.21913 -1.03176,-7.11088 -4.06404,-19.14741 -4.66977,-18.54166 z m 98.54546,118.52926 4.60109,8.58409 c 3.84529,7.21687 4.34648,8.90437 3.15894,10.33527 -0.77813,0.93757 -2.02455,1.68244 -2.78124,1.68247 -0.75671,0 -2.49485,3.45594 -3.84567,7.657 -1.35085,4.20111 -5.06555,12.29517 -8.27508,17.99229 -5.50188,9.7661 -5.80064,10.5986 -4.84143,14.86765 1.25918,5.60427 -0.15064,12.58249 -3.22761,15.86343 -7.34135,7.82775 -9.48285,9.63106 -12.08644,10.19789 -1.59133,0.34643 -3.50231,0.83172 -4.2577,1.06444 -1.07357,0.33075 -1.37347,11.81526 -1.37347,52.63769 l 0,52.22566 -76.91352,0 -76.91353,0 0,-83.57478 0,-83.54046 4.91012,-2.19752 c 15.29482,-6.76563 51.86422,-12.11705 94.18473,-13.76891 10.67872,-0.41681 19.83849,-1.04655 20.36147,-1.40778 0.52303,-0.36123 2.04158,-2.42179 3.36497,-4.60109 l 2.40357,-3.98301 -21.70064,0.30902 c -47.60244,0.62517 -95.039,8.24247 -109.29273,17.58023 l -4.12037,2.71259 0,71.41969 0,71.38536 -6.14622,0 c -5.24009,0 -6.04961,-0.27751 -5.73418,-1.92284 0.20275,-1.05756 1.91544,-2.40638 3.81135,-3.02159 3.29524,-1.06928 3.38467,-1.25856 1.95717,-3.98302 -2.03326,-3.88065 -7.02992,-5.75708 -13.70022,-5.11613 -5.22719,0.50226 -5.52259,0.41955 -6.04321,-2.30054 -3.9307,-20.53715 -10.645567,-26.71693 -29.872657,-27.43478 -6.89637,-0.25746 -10.19791,0.01 -10.19791,0.82408 0,0.66265 0.71795,1.20175 1.61381,1.20176 0.89588,0 3.86253,2.15691 6.59259,4.77277 5.28948,5.06821 6.1945,8.35765 3.2963,12.18944 -0.88726,1.17305 -1.61381,3.76887 -1.61381,5.7685 l 0,3.63967 -5.83719,0 c -4.3608,0 -6.47218,0.58654 -8.27508,2.26618 l -2.40354,2.23186 -1.13311,-2.98726 c -2.14351,-5.63787 -0.96054,-8.40237 4.73843,-11.12497 4.70611,-2.24833 5.21913,-2.8639 5.21913,-6.21488 0,-2.85144 -0.86765,-4.46585 -3.67399,-6.8673 l -3.63965,-3.1246 3.36495,-6.04322 c 2.94497,-5.26096 3.39931,-7.10216 3.39931,-14.31829 0,-6.08493 -0.52704,-9.07967 -1.95717,-11.26233 -2.13347,-3.25607 -5.1848,-3.98259 -5.1848,-1.2361 0,2.50826 -6.04423,8.1377 -8.72144,8.13771 -2.67953,0 -2.83248,-1.19539 -0.72107,-5.25347 3.20765,-6.165 10.46599,-10.81395 18.74767,-11.94906 l 4.97877,-0.68673 -2.43787,5.39083 c -3.37669,7.40882 -3.49961,19.80737 -0.24035,24.17281 4.2775,5.72928 7.5443,7.37943 14.52428,7.31367 14.226667,-0.13398 20.562417,-7.58265 19.846447,-23.34877 -0.3821,-8.41418 -0.55541,-8.86871 -4.66976,-13.08216 l -4.257707,-4.36072 3.261957,-5.2878 c 7.85897,-12.82462 7.62849,-20.88036 -0.89274,-32.13888 -2.325637,-3.07269 -4.527417,-6.81894 -4.910107,-8.34375 -1.10507,-4.40294 -5.50529,-7.14199 -11.46836,-7.14196 -3.38918,0 -5.69821,-0.59777 -6.62692,-1.71682 -2.52334,-3.04044 -7.40383,-4.87579 -12.94482,-4.87577 -5.63951,0 -7.90774,1.23763 -15.34837,8.17206 -3.39882,3.1676 -4.16833,3.36494 -11.98341,3.36498 -8.76869,0 -11.27321,1.42879 -6.42091,3.63965 1.50975,0.68791 3.48045,3.03016 4.39505,5.21913 4.49531,10.75872 13.82199,17.70061 22.21567,16.55015 5.19817,-0.71249 12.35371,-3.9358 14.55863,-6.59259 1.24616,-1.50154 1.74095,-1.44572 4.5324,0.61806 2.6929,1.99095 4.07492,2.21072 9.78587,1.61381 l 6.66126,-0.68673 0,3.70833 c 0,2.35755 -1.29849,5.65032 -3.57098,9.03048 l -3.57098,5.2878 -14.28395,0.0342 c -12.68532,0.0281 -14.83369,0.30503 -18.95369,2.50655 -14.82746,7.9231 -24.172,24.49766 -26.88541,47.6246 -2.51494,21.43541 3.65372,36.94774 18.78203,47.21252 3.05439,2.07245 5.58124,4.15939 5.59683,4.60109 0.0571,1.61904 -5.77938,2.18239 -9.85454,0.96141 -6.78747,-2.03356 -11.42497,0.64144 -12.77316,7.38234 -0.70855,3.54271 0.96173,4.95074 2.16319,1.81983 1.36862,-3.56657 4.63965,-1.68724 7.62269,4.39505 2.28285,4.65465 3.51177,6.066 5.42515,6.07754 5.32658,0.0321 7.451,1.23263 7.451,4.25771 0,3.80385 -2.85559,7.79435 -5.56249,7.79436 -1.17438,0 -2.12886,0.57847 -2.12886,1.27046 0,1.61365 13.64579,0.59431 17.88926,-1.33913 1.63685,-0.74581 3.92451,-3.0278 5.11612,-5.04745 2.68999,-4.55918 4.20679,-4.5779 15.03935,-0.24035 10.4355,4.17857 24.333307,6.78643 31.726827,5.97454 l 5.49382,-0.58371 -5.21912,2.74688 c -10.05592,5.31388 -24.244887,7.5033 -31.246137,4.84144 -3.59608,-1.36723 -4.71528,-2.85183 -4.73841,-6.24922 -0.0141,-2.08322 -0.61435,-2.47225 -3.81135,-2.47221 -10.26953,0 -12.88362,4.84397 -10.33524,19.19404 0.25881,1.45743 -0.29959,2.28773 -1.78551,2.57522 -5.09698,0.98622 -9.50449,4.07654 -13.80322,9.64854 -4.95567,6.42346 -10.33088,10.33522 -14.1466,10.33524 -1.32513,0 -2.09063,0.49395 -1.71683,1.09877 0.3735,0.60433 1.96353,1.09873 3.53664,1.09877 1.57314,0 5.12486,1.35308 7.89739,2.98727 2.77253,1.63422 7.02523,3.23898 9.44251,3.57098 l 4.39506,0.58371 -0.0686,5.49383 c -0.0298,3.01945 -0.41374,6.26634 -0.85841,7.21064 -0.71036,1.5086 0.12404,1.60957 6.83294,0.89275 9.87188,-1.05481 13.37961,-2.9658 18.74767,-10.23225 5.21312,-7.05671 6.66127,-8.14899 6.66127,-5.04744 0,5.40639 -3.08129,9.61112 -10.78164,14.73031 -21.05247,13.99566 -30.97142,29.19871 -30.97142,47.45289 0,10.05598 3.62319,20.02846 11.74305,32.17321 6.94316,10.38479 10.17493,18.25558 8.27506,20.15546 -0.60825,0.60826 -1.55279,0.33838 -2.40354,-0.68673 -2.20691,-2.65916 -6.49809,-2.01731 -10.02623,1.51081 -2.71453,2.71453 -3.19329,4.06363 -3.19329,8.82444 0,5.97764 1.68102,10.32989 5.25347,13.56288 2.17098,1.96472 2.13605,2.01138 -0.99575,7.69135 -2.18547,3.96369 -3.14514,7.2891 -3.15896,10.85031 -0.0186,4.78646 0.44186,5.62476 6.9703,12.73876 3.85032,4.1956 7.25681,8.3302 7.554,9.1679 1.12868,3.181 2.42263,-0.5158 2.57523,-7.348 0.18207,-8.1523 1.98544,-11.03525 7.58835,-12.08644 1.9435,-0.36456 4.95329,-1.59222 6.66126,-2.71252 3.07562,-2.01766 3.13084,-2.00053 6.28357,0.65233 2.93652,2.47091 9.34032,3.67323 10.953297,2.06019 0.33717,-0.33721 0.0666,-2.01963 -0.58371,-3.74271 -0.987607,-2.61651 -0.72277,-4.14069 1.61379,-9.30511 l 2.81558,-6.18055 2.36922,5.80284 c 1.30266,3.1947 2.97832,7.03897 3.74268,8.54978 1.81864,3.59482 6.58386,4.25353 8.72144,1.20183 1.44346,-2.06086 1.77614,-1.43687 4.60107,8.34366 3.51179,12.1584 3.99245,22.0444 1.27045,26.1987 -3.2686,4.9885 0.50375,2.8809 7.45101,-4.1549 9.96493,-10.0915 16.02679,-24.6271 16.06942,-38.52526 0.015,-4.80966 0.21269,-5.24192 2.23187,-4.60107 4.45962,1.41544 8.61444,-0.6978 16.24112,-8.30941 5.07808,-5.06803 8.49531,-7.62271 10.1979,-7.62269 2.04985,0 2.26776,-0.27433 1.16746,-1.37346 -0.93599,-0.93497 -5.31765,-1.36858 -13.73458,-1.37345 -15.42481,-0.01 -17.1242,-0.94544 -25.23724,-13.73455 -3.31172,-5.22049 -11.5772,-10.55397 -18.88502,-12.18942 l -6.0432,-1.33912 3.05592,-1.85417 c 8.07155,-4.94669 13.49032,-13.50191 15.52005,-24.48186 1.55624,-8.41837 5.11749,-16.37079 8.99613,-20.08677 1.76281,-1.68889 3.33909,-2.86769 3.50233,-2.60958 0.16332,0.25811 1.92515,3.94179 3.94869,8.17208 21.92821,45.841 68.03769,89.58246 130.2036,123.50793 8.97858,4.8998 17.45301,8.8931 18.81634,8.8931 8.05503,0 51.00979,-26.1783 76.94786,-46.90343 30.45228,-24.33203 56.58316,-55.32831 70.38961,-83.5061 2.90012,-5.91888 5.43027,-11.00146 5.63118,-11.26235 0.20091,-0.26084 2.05446,1.19094 4.12037,3.19329 4.40168,4.26628 7.71763,11.44413 9.75155,21.11689 2.41929,11.50566 7.22033,19.0065 15.31402,23.9668 l 3.0216,1.85417 -6.0432,1.33912 c -7.30782,1.63542 -15.57331,6.96889 -18.88501,12.18942 -8.11306,12.78914 -9.81248,13.72568 -25.23726,13.73455 -8.4169,0.004 -12.79859,0.43842 -13.73457,1.37345 -1.1003,1.09918 -0.88239,1.37344 1.16746,1.37346 1.70258,0 5.11983,2.55472 10.19789,7.62269 7.62669,7.61158 11.78151,9.72485 16.24112,8.30941 2.0192,-0.64087 2.21713,-0.20855 2.23187,4.60107 0.0427,13.89816 6.1045,28.43376 16.06943,38.52526 6.94727,7.0358 10.71959,9.1434 7.45099,4.1549 -2.71141,-4.1382 -2.23961,-14.0621 1.23613,-26.0957 2.97209,-10.28996 3.04037,-10.38512 5.11611,-8.30934 1.15838,1.15833 3.16139,1.93932 4.46373,1.75111 2.49012,-0.35984 3.65221,-2.15523 7.51967,-11.64004 l 2.36922,-5.80284 2.81558,6.18055 c 2.33656,5.16442 2.60142,6.68871 1.61381,9.30511 -1.4364,3.80544 -0.99328,4.36078 3.60532,4.36078 2.2435,0 4.85762,-1.0379 6.97031,-2.8156 l 3.36494,-2.84985 2.74692,2.16313 c 1.5116,1.18907 4.41782,2.46772 6.45524,2.84986 5.77622,1.08372 7.57655,3.90713 7.76002,12.12083 0.15251,6.8322 1.44656,10.529 2.57524,7.348 0.29721,-0.8377 3.70369,-4.9723 7.55401,-9.1679 6.52844,-7.114 6.98881,-7.9523 6.97028,-12.73876 -0.015,-3.56121 -0.97347,-6.88662 -3.15895,-10.85031 -3.13181,-5.67993 -3.13236,-5.72663 -0.96142,-7.69135 3.57246,-3.23302 5.25351,-7.58524 5.25347,-13.56288 0,-4.76081 -0.5131,-6.10989 -3.22762,-8.82444 -3.52815,-3.52816 -7.81933,-4.16997 -10.02624,-1.51081 -0.85075,1.02511 -1.79526,1.29499 -2.40353,0.68673 -1.8999,-1.89988 1.33188,-9.77067 8.27508,-20.15546 8.11983,-12.14475 11.7774,-22.11722 11.77736,-32.17321 0,-18.25421 -9.95326,-33.45725 -31.00575,-47.45289 -7.70033,-5.11916 -10.74727,-9.32395 -10.74729,-14.73031 0,-3.10155 1.41384,-2.00928 6.62692,5.04744 5.36807,7.26647 8.87581,9.17741 18.74767,10.23225 6.70893,0.71685 7.54327,0.61588 6.83295,-0.89275 -0.44468,-0.94431 -0.82867,-4.19119 -0.85842,-7.21064 l -0.0342,-5.49383 4.39502,-0.58371 c 2.41731,-0.332 6.63565,-1.93675 9.40818,-3.57098 2.77256,-1.63421 6.32425,-2.98731 7.89738,-2.98727 1.57313,0 3.19753,-0.49448 3.57099,-1.09877 0.37842,-0.61225 -0.46386,-1.09879 -1.8885,-1.09877 -3.74058,0 -9.94765,-4.62813 -14.48995,-10.81595 -3.73504,-5.08814 -8.21166,-8.18556 -13.2882,-9.16783 -1.4859,-0.2875 -2.07863,-1.1178 -1.81983,-2.57522 2.54837,-14.35004 -0.0657,-19.19408 -10.33525,-19.19404 -3.197,0 -3.79719,0.38895 -3.81134,2.47221 -0.0231,3.39745 -1.14231,4.88199 -4.73842,6.24922 -7.00126,2.66187 -21.1902,0.47248 -31.24612,-4.84144 l -5.18481,-2.74688 5.49384,0.58371 c 7.39353,0.81193 21.25698,-1.79593 31.69249,-5.97454 10.83256,-4.33758 12.34938,-4.31883 15.03934,0.24035 1.19162,2.01964 3.51363,4.30163 5.15046,5.04745 4.24348,1.93346 17.88928,2.95278 17.88927,1.33913 0,-0.69198 -0.98879,-1.27047 -2.16321,-1.27046 -2.70689,0 -5.52811,-3.99051 -5.52816,-7.79436 0,-3.02033 2.08349,-4.22533 7.38233,-4.25771 1.89507,-0.0112 3.2262,-1.5569 5.80286,-6.66124 2.98203,-5.90739 3.55662,-6.46198 5.49383,-5.42516 1.19331,0.63864 2.19755,1.61447 2.19751,2.19751 0,0.58308 0.55629,1.06442 1.23613,1.06444 1.52079,0 0.44384,-6.20151 -1.47649,-8.51542 -2.33878,-2.81807 -6.30519,-3.67605 -10.78162,-2.33489 -4.07516,1.22095 -9.91167,0.65765 -9.85455,-0.96141 0.015,-0.44173 2.54248,-2.52865 5.59686,-4.60109 15.09608,-10.2429 21.2941,-25.79185 18.78199,-47.07518 -2.7725,-23.48926 -11.91149,-39.76059 -26.88541,-47.76194 -4.12,-2.20152 -6.23397,-2.47834 -18.91935,-2.50655 l -14.28393,-0.0342 -3.57098,-5.2878 c -2.27249,-3.38015 -3.57095,-6.67293 -3.57099,-9.03048 l 0,-3.70833 6.62691,0.68673 c 5.71096,0.5969 7.09302,0.37716 9.78589,-1.61381 2.79146,-2.06381 3.32056,-2.11956 4.56674,-0.61806 2.20492,2.65675 9.32609,5.88008 14.52429,6.59259 8.39367,1.15047 17.7204,-5.79141 22.21565,-16.55015 0.91463,-2.189 2.88527,-4.53125 4.39505,-5.21913 4.85231,-2.21085 2.38211,-3.63969 -6.38656,-3.63965 -7.81506,0 -8.61894,-0.1974 -12.01773,-3.36498 -7.44064,-6.93441 -9.70886,-8.17208 -15.34837,-8.17206 -5.54102,0 -10.4215,1.83536 -12.94482,4.87577 -0.92872,1.11905 -3.23775,1.71679 -6.62693,1.71682 -5.96309,0 -10.36325,2.73902 -11.46835,7.14196 -0.38269,1.5248 -2.5845,5.27106 -4.91011,8.34375 -8.52124,11.25851 -8.75175,19.31423 -0.89275,32.13888 l 3.26194,5.2878 -4.25769,4.36072 c -4.11434,4.21345 -4.28764,4.66798 -4.66975,13.08216 -0.71598,15.76612 5.6198,23.21478 19.84642,23.34877 6.97999,0.0657 10.28114,-1.58441 14.55864,-7.31367 3.25926,-4.36543 3.13634,-16.76398 -0.24035,-24.17281 l -2.47223,-5.39083 4.97879,0.68673 c 8.28166,1.13514 15.57436,5.78406 18.782,11.94906 2.11141,4.05808 1.92413,5.25346 -0.7554,5.25347 -2.67719,0 -8.68706,-5.62947 -8.6871,-8.13771 0,-2.74649 -3.08566,-2.01997 -5.21914,1.2361 -1.43012,2.18266 -1.92281,5.1774 -1.92283,11.26233 0,7.21613 0.42001,9.05728 3.36495,14.31829 l 3.3993,6.04322 -3.67399,3.1246 c -2.80634,2.40145 -3.63961,4.01586 -3.63965,6.8673 0,3.35095 0.51304,3.9665 5.21913,6.21488 5.69896,2.72263 6.84758,5.4871 4.7041,11.12497 l -1.13311,2.98726 -2.40355,-2.23186 c -1.80287,-1.67962 -3.87991,-2.26622 -8.24073,-2.26618 l -5.83721,0 0,-3.63967 c 0,-1.99963 -0.7265,-4.59545 -1.61378,-5.7685 -2.89822,-3.83179 -2.02752,-7.12123 3.26195,-12.18944 2.73005,-2.61586 5.69673,-4.77278 6.59259,-4.77277 0.89586,0 1.64816,-0.53911 1.64815,-1.20176 0,-0.81474 -3.30158,-1.08154 -10.19793,-0.82408 -8.2984,0.30982 -11.22345,0.90926 -15.6574,3.19329 -8.24305,4.24623 -11.43344,9.70713 -14.21524,24.24149 -0.52062,2.72009 -0.85036,2.80277 -6.07755,2.30054 -6.67031,-0.64094 -11.66698,1.23548 -13.70022,5.11613 -1.4275,2.72447 -1.33807,2.91372 1.95715,3.98302 1.89594,0.61524 3.63687,2.00107 3.84569,3.09027 0.33638,1.75427 -0.36557,1.94247 -6.0432,1.64815 l -6.38656,-0.34335 -0.30905,-69.7029 -0.27468,-69.70288 -2.47223,-2.64389 c -1.35516,-1.45125 -3.92221,-3.40198 -5.69982,-4.32639 -16.73517,-8.70293 -61.08882,-15.56638 -104.72602,-16.20678 l -21.15123,-0.30902 z m -108.43434,55.89964 c -3.16807,0.0218 -6.58155,0.2568 -10.60994,0.72105 -14.1793,1.63418 -19.31856,3.26059 -20.53317,6.45526 -0.51877,1.3645 -2.39718,10.30206 -4.1547,19.84645 -1.7575,9.54436 -4.53094,20.7037 -6.18054,24.82519 -1.64962,4.12149 -2.75035,7.75656 -2.43789,8.06907 1.04764,1.04765 15.49353,2.50462 25.2029,2.54089 5.2878,0.0197 9.6142,0.44878 9.6142,0.96142 0,0.51264 -1.95194,1.71119 -4.3264,2.64392 -3.81054,1.49679 -4.50678,2.35862 -6.00885,7.41664 -1.17978,3.97279 -1.39729,6.33384 -0.65237,7.7257 2.77547,5.18604 0.24225,22.90685 -3.94872,27.53777 -2.398,2.64979 -1.92099,3.14074 4.63544,4.32639 6.74938,1.22055 30.44834,0.53501 35.64117,-1.03008 l 3.94868,-1.2018 -3.22763,-6.52389 c -3.70961,-7.48439 -5.13828,-18.56809 -3.1246,-24.34452 1.0821,-3.10411 0.90583,-4.30531 -1.23612,-8.61844 -2.04571,-4.11939 -3.20466,-5.17194 -6.59257,-6.00886 -6.20973,-1.53398 -4.958,-2.83979 2.74691,-2.84992 8.63032,-0.0112 26.31999,-2.00983 27.40044,-3.09028 0.44688,-0.44688 -0.38345,-4.28625 -1.85418,-8.51542 -2.25261,-6.47735 -5.3499,-20.56852 -9.13346,-41.65004 -0.98081,-5.46486 -3.8696,-7.0602 -15.9321,-8.65277 -3.14207,-0.41485 -6.06842,-0.60557 -9.2365,-0.58373 z m 157.63839,13.97491 c 9.12873,-1.1e-4 18.45894,0.34859 21.15123,0.99577 4.36508,1.04928 5.04035,3.02092 3.84568,10.98763 -0.51517,3.43538 -2.84312,7.92973 -7.93172,15.38271 -3.95789,5.79695 -7.84599,12.11278 -8.65277,14.04357 -1.59643,3.82085 -1.39473,4.23266 9.57985,20.4645 4.78715,7.08036 7.14198,13.62592 8.17207,22.73071 0.64502,5.70115 0.49686,6.76423 -0.92708,6.76426 -0.93082,0 -2.88751,-1.38021 -4.32639,-3.09026 -1.43889,-1.71003 -6.06181,-6.22182 -10.26658,-10.02625 -4.20479,-3.80445 -8.44928,-8.14552 -9.4425,-9.64852 l -1.81983,-2.74691 -8.99614,8.58409 c -9.30031,8.88546 -12.51563,13.39419 -11.15934,15.58875 1.59583,2.58207 12.5398,3.82289 28.94559,3.29628 16.09407,-0.5166 21.62421,0.38148 10.50693,1.71681 -9.25264,1.11138 -32.79986,0.67774 -38.18206,-0.72106 l -4.94445,-1.30477 0.13734,-7.69136 c 0.20805,-10.0639 3.22952,-17.8551 10.88463,-28.08718 3.33917,-4.46324 6.36634,-9.29861 6.72993,-10.74728 0.80847,-3.22117 -2.41602,-10.23297 -8.37808,-18.12961 -5.62676,-7.45261 -8.79446,-14.5358 -8.82443,-19.81211 -0.0223,-3.87944 0.21477,-4.15828 2.4722,-3.53666 6.38554,1.75837 24.36882,3.05656 32.07021,2.33489 4.64639,-0.43543 8.22137,-1.01511 7.93169,-1.30479 -0.28966,-0.28967 -7.85367,-0.67316 -16.82483,-0.85842 -9.13979,-0.18871 -18.24213,-0.96991 -20.70484,-1.75115 l -4.39506,-1.37345 3.29629,-1.06442 c 1.99649,-0.64725 10.92374,-0.99566 20.05246,-0.99577 z M 91.150093,677.61279 c 0.87675,-0.11928 1.58692,0.76692 2.30054,2.64389 1.7043,4.48266 1.27928,9.09029 -1.09876,11.46836 -2.25743,2.25743 -2.85218,2.43155 -5.21913,1.47647 -2.1109,-0.85176 -1.644,-8.19785 0.78974,-12.18941 1.31243,-2.15254 2.35086,-3.28009 3.22761,-3.39931 z m 417.393227,0 c 0.94665,-0.14878 2.06017,0.97766 3.53665,3.39931 2.67055,4.38004 2.92216,11.30803 0.44637,12.25807 -2.40905,0.92444 -2.38198,0.91425 -4.84142,-1.54513 -2.37805,-2.37802 -2.83742,-6.9857 -1.1331,-11.46836 0.62442,-1.64234 1.25524,-2.52813 1.9915,-2.64389 z m -112.21134,2.74691 c -0.71141,-0.0186 -2.36578,0.40432 -4.29206,1.13311 -6.06901,2.29605 -22.79992,2.61543 -25.37459,0.4807 -3.70377,-3.07098 -1.8952,1.45447 4.32639,10.74728 3.38828,5.06088 6.88263,10.91365 7.76002,13.01351 0.87737,2.09983 1.80302,3.58779 2.06018,3.33064 0.96498,-0.96499 15.89776,-27.765 15.89776,-28.53356 0,-0.11032 -0.14056,-0.16557 -0.3777,-0.17173 z m -97.41235,104.76034 78.1153,0 78.14963,0 -0.54938,28.84258 c -0.74335,37.95734 -3.32834,50.44229 -15.65739,76.08945 -21.26469,44.2352 -64.9543,86.72508 -122.23757,118.83823 -7.0883,3.9738 -13.98865,7.6487 -15.34839,8.1722 l -2.4722,0.9614 0,-116.46915 0,-116.43471 z m -65.41085,28.84258 c 30.98608,-10e-6 56.10569,25.08948 56.10569,55.96831 -10e-6,30.87888 -25.11958,55.93401 -56.10569,55.934 -30.98606,0 -56.14,-25.05512 -56.14,-55.934 0,-5.32467 0.76636,-10.46693 2.16319,-15.34835 l -0.13734,0 -15.24535,1.09876 19.67474,-11.84606 c 9.41414,-17.7607 28.14792,-29.87266 49.68476,-29.87266 z m 0,3.70832 c -17.67139,0 -33.30795,8.71107 -42.81748,22.04397 l 33.75269,-20.2928 59.12726,34.88576 c -6.64026,-21.22643 -26.54146,-36.63693 -50.06247,-36.63693 z m 146.54775,18.3013 c -17.82254,0.30339 -41.07872,13.3306 -48.65467,28.53354 -5.1339,10.30237 -3.38138,16.67422 7.03896,25.47762 7.19691,6.08019 15.33318,10.10869 24.55052,12.15508 3.72446,0.82688 8.28194,1.98582 10.09489,2.57522 4.43777,1.44278 3.84529,1.48198 9.9919,-0.34335 7.63258,-2.26665 10.46218,-5.41233 18.74767,-20.91087 4.26227,-7.97286 4.76426,-19.35622 1.4078,-30.66239 -3.07285,-10.35097 -6.75696,-14.08483 -15.9321,-16.13813 -2.26219,-0.50625 -4.69891,-0.73005 -7.24497,-0.68672 z m 3.2963,2.9186 c 2.5434,0.0126 4.56673,0.23323 4.56673,0.75539 0,0.38 -1.73056,2.60326 -3.84568,4.94445 -2.11512,2.34118 -3.83058,4.8775 -3.81133,5.63118 0.0192,0.75364 2.39952,-1.27801 5.2878,-4.53241 l 5.21912,-5.90587 4.08605,3.53664 c 3.68724,3.23746 4.0211,4.05791 4.01736,9.20217 -0.004,3.63808 -0.73598,6.90548 -2.09453,9.13348 l -2.12885,3.46798 -5.18479,-2.64391 c -3.35086,-1.69641 -7.03118,-2.6149 -10.26659,-2.57522 l -5.01311,0.0687 6.59259,2.02584 c 3.62593,1.11017 7.95229,2.30001 9.61419,2.67823 1.66188,0.37821 3.02159,1.13232 3.02159,1.64816 0,0.78766 -7.4284,7.84471 -11.67438,11.09065 -3.89306,2.97615 -16.00781,8.07776 -22.2843,9.40817 -8.20964,1.74017 -9.77125,1.77419 -16.30979,0.30904 -6.72787,-1.50761 -11.26233,-6.42739 -11.26233,-12.18941 0,-5.13715 3.1926,-12.48617 6.97029,-16.03511 l 2.54089,-2.40354 4.84142,2.19751 c 2.6656,1.20936 5.86466,2.16491 7.07331,2.12887 2.11741,-0.0631 -0.64207,-1.5692 -8.10341,-4.42938 -2.25713,-0.86525 -2.39893,-1.23263 -1.09877,-2.81559 0.8211,-0.9997 3.67327,-3.20528 6.35224,-4.91013 l 4.87578,-3.09026 2.16318,4.9101 c 1.17506,2.71457 2.55489,4.9444 3.09029,4.94443 0.53538,0 0.17976,-1.8542 -0.78975,-4.12035 -0.96947,-2.26621 -2.0113,-4.6945 -2.30054,-5.39083 -0.44664,-1.07514 9.90915,-5.87154 12.67013,-5.8715 0.46914,0 0.73599,3.09023 0.58372,6.86727 l -0.27469,6.86728 1.09878,-6.04322 c 0.6219,-3.32376 1.31688,-6.66128 1.54514,-7.41665 0.26667,-0.88262 5.9932,-1.46378 10.23224,-1.44213 z m 79.96945,14.14658 c 0.75565,0.10122 1.82452,1.04111 3.60533,2.47224 5.55669,4.46548 7.0751,8.1466 6.07754,14.79896 -0.89141,5.94442 -1.20195,5.98507 8.06906,-0.9614 6.28292,-4.7076 7.93173,-6.8911 7.93171,-10.67862 0,-2.00803 1.47969,-1.00671 8.51542,5.80285 4.68346,4.53292 13.6403,12.86667 19.9151,18.50732 13.11675,11.79101 15.44934,15.71388 15.48572,26.02699 0.0329,9.28419 -2.53725,15.47585 -7.24499,17.44288 -4.48403,1.87357 -7.18831,1.83501 -13.94057,-0.24035 -3.86793,-1.18888 -5.55718,-2.37268 -6.35223,-4.46373 -1.24637,-3.27823 -0.58856,-6.15065 1.8885,-8.2064 1.46544,-1.2162 2.05811,-1.03205 3.81133,1.13311 1.13938,1.40705 2.09456,3.74092 2.09454,5.18477 0,3.68312 1.48146,3.26624 5.3908,-1.47645 3.62331,-4.39572 5.17121,-9.64233 3.94867,-13.49421 -0.92491,-2.91419 -6.70259,-5.4894 -12.32676,-5.49381 -3.98202,-0.004 -4.18216,-0.14298 -4.25769,-3.74266 -0.0508,-2.41706 -1.22622,-5.20029 -3.2963,-7.79438 -5.59195,-7.00736 -6.98052,-9.86294 -7.89736,-16.00077 -0.876,-5.86408 -0.93239,-5.92229 -2.47223,-3.2276 -0.96957,1.69672 -1.62645,6.22556 -1.71681,11.84606 -0.12712,7.9084 -0.48269,9.47244 -2.71257,11.84606 l -2.57526,2.71257 -3.91434,-3.74268 c -5.79957,-5.55068 -10.62686,-7.55975 -19.5374,-8.13772 -4.38133,-0.28419 -7.96604,-0.60424 -7.96604,-0.72106 0,-0.1169 1.15651,-3.64367 2.57522,-7.82872 1.41871,-4.18499 3.17093,-10.34213 3.91436,-13.66586 1.32812,-5.93795 1.72786,-8.06582 2.98725,-7.89739 z m -327.26017,0.30904 2.33486,9.3395 c 1.28644,5.1291 3.24999,11.70411 4.36072,14.6273 l 1.99152,5.32213 -7.24497,0.51506 c -8.24735,0.5901 -13.20501,2.73431 -18.8507,8.13772 l -3.91434,3.74268 -2.57523,-2.71257 c -2.22989,-2.37362 -2.58547,-3.93764 -2.71257,-11.84606 -0.0903,-5.62051 -0.74724,-10.14939 -1.71682,-11.84606 -1.53986,-2.69466 -1.59623,-2.63648 -2.47222,3.2276 -0.91689,6.13783 -2.30541,8.99338 -7.897367,16.00077 -2.07011,2.59409 -3.24555,5.37733 -3.2963,7.79438 -0.0756,3.59969 -0.24135,3.73958 -4.22338,3.74266 -5.62415,0.004 -11.40184,2.57965 -12.32677,5.49381 -1.22253,3.85186 0.29103,9.09847 3.91435,13.49421 3.90936,4.74271 5.42515,5.15956 5.42515,1.47645 0,-1.44382 0.92081,-3.7777 2.06019,-5.18477 1.75324,-2.16517 2.34589,-2.34936 3.81134,-1.13311 2.47474,2.05386 3.13106,4.90392 1.8885,8.17207 -0.81601,2.14631 -2.48564,3.24141 -6.83295,4.53239 -6.91682,2.05411 -9.24556,2.11096 -13.70022,0.17174 -4.45494,-1.93945 -7.0365,-8.36691 -7.00462,-17.40856 0.0385,-10.92417 2.05741,-13.94729 20.29281,-30.45637 8.90984,-8.06639 17.868517,-16.40006 19.915107,-18.50734 3.42502,-3.52662 3.74268,-3.6521 3.74268,-1.40779 0,3.7958 1.61115,6.0029 7.89734,10.71296 9.25336,6.93325 8.93199,6.92664 8.06907,0.6524 -0.89107,-6.47887 0.73427,-10.51038 5.76852,-14.21527 l 3.2963,-2.43789 z m 70.76729,0.0342 4.49807,52.05398 -16.1381,0 c 9.57859,10.17989 23.21002,16.55016 38.31941,16.55014 28.94894,0 52.4317,-23.36887 52.4317,-52.15699 0,-4.90647 -0.71646,-9.64379 -1.99153,-14.14658 l -15.55438,-1.13312 -5.63117,0 -7.69137,51.19559 -17.30552,-0.0687 4.39504,-52.25999 -35.33215,-0.0343 z m -23.52044,1.30477 c -1.46136,4.79087 -2.26619,9.87964 -2.26619,15.14236 0,12.98782 4.79195,24.85954 12.70447,33.99304 l -6.66124,-49.06671 -3.77704,-0.0687 z m 186.27496,9.95757 c -0.0435,0.004 -0.0788,0.0444 -0.10304,0.0687 -0.37727,0.3773 1.74162,3.13857 4.7041,6.14623 5.21139,5.29098 7.14196,6.51351 7.14196,4.5324 0,-1.42575 -10.39227,-10.86376 -11.74306,-10.74728 z m -17.37421,2.26621 c -0.42553,0.0354 -1.05805,0.21149 -1.92284,0.54938 -7.01305,2.74017 -12.91048,5.55195 -12.91048,6.18053 0,0.97663 5.11532,-0.35205 10.71295,-2.81556 3.91765,-1.72419 5.96435,-4.06874 4.12037,-3.91435 z m 2.43789,2.23185 c -1.07145,0.27158 -10.67863,12.1385 -10.67863,13.25385 0,0.97602 3.64532,-2.05557 7.31366,-6.07753 2.4811,-2.7203 4.22369,-6.38627 3.43364,-7.17632 -0.0168,-0.0168 -0.0342,-0.01 -0.0687,0 z m 8.24074,0.58373 c -0.96007,0 -3.734,11.94262 -3.468,14.93633 0.0494,0.55482 0.80385,-0.57827 1.64817,-2.50656 2.12682,-4.85724 3.22929,-12.42982 1.81983,-12.42977 z m -143.66348,5.63117 c 1.98354,0 3.571,1.62179 3.57097,3.60533 0,1.98353 -1.58743,3.57099 -3.57097,3.57097 -1.98355,0 -3.60532,-1.58744 -3.60532,-3.57097 0,-1.98357 1.62177,-3.60533 3.60532,-3.60533 z"
       id="path2385"
       inkscape:connector-curvature="0" />
  </g>
</svg>
