<?xml version="1.0" encoding="UTF-8" standalone="no"?>
<!-- Created with Inkscape (http://www.inkscape.org/) -->

<svg
   xmlns:dc="http://purl.org/dc/elements/1.1/"
   xmlns:cc="http://creativecommons.org/ns#"
   xmlns:rdf="http://www.w3.org/1999/02/22-rdf-syntax-ns#"
   xmlns:svg="http://www.w3.org/2000/svg"
   xmlns="http://www.w3.org/2000/svg"
   xmlns:sodipodi="http://sodipodi.sourceforge.net/DTD/sodipodi-0.dtd"
   xmlns:inkscape="http://www.inkscape.org/namespaces/inkscape"
   width="600"
   height="600"
   id="svg2"
   sodipodi:version="0.32"
   inkscape:version="0.91 r13725"
   sodipodi:docname="LogoSquare50.svg"
   inkscape:output_extension="org.inkscape.output.svg.inkscape"
   version="1.1">
  <defs
     id="defs4">
    <inkscape:perspective
       sodipodi:type="inkscape:persp3d"
       inkscape:vp_x="0 : 526.18109 : 1"
       inkscape:vp_y="0 : 1000 : 0"
       inkscape:vp_z="744.09448 : 526.18109 : 1"
       inkscape:persp3d-origin="372.04724 : 350.78739 : 1"
       id="perspective10" />
    <inkscape:perspective
       id="perspective2447"
       inkscape:persp3d-origin="372.04724 : 350.78739 : 1"
       inkscape:vp_z="744.09448 : 526.18109 : 1"
       inkscape:vp_y="0 : 1000 : 0"
       inkscape:vp_x="0 : 526.18109 : 1"
       sodipodi:type="inkscape:persp3d" />
  </defs>
  <sodipodi:namedview
     id="base"
     pagecolor="#ffffff"
     bordercolor="#666666"
     borderopacity="1.0"
     gridtolerance="10000"
     guidetolerance="10"
     objecttolerance="10"
     inkscape:pageopacity="0.0"
     inkscape:pageshadow="2"
     inkscape:zoom="0.57456337"
     inkscape:cx="-241.90124"
     inkscape:cy="487.20451"
     inkscape:document-units="px"
     inkscape:current-layer="layer1"
     showgrid="false"
     inkscape:window-width="1368"
     inkscape:window-height="849"
     inkscape:window-x="-8"
     inkscape:window-y="-8"
     inkscape:window-maximized="1" />
  <metadata
     id="metadata7">
    <rdf:RDF>
      <cc:Work
         rdf:about="">
        <dc:format>image/svg+xml</dc:format>
        <dc:type
           rdf:resource="http://purl.org/dc/dcmitype/StillImage" />
        <dc:title></dc:title>
      </cc:Work>
    </rdf:RDF>
  </metadata>
  <g
     inkscape:label="Layer 1"
     inkscape:groupmode="layer"
     id="layer1"
     transform="translate(0,-452.36218)">
    <path
       style="fill:#ffffff"
       d="m 263.68073,602.37397 c -0.14514,0.14514 -0.44496,3.11823 -0.66219,6.60363 l -0.38628,6.3461 -1.87624,-1.87624 c -1.02326,-1.02492 -2.19875,-2.64848 -2.63042,-3.62371 -1.07366,-2.42556 -1.66263,-2.23772 -1.28762,0.42307 0.77384,5.49039 2.23736,8.32567 5.44478,10.50326 1.59144,1.08045 2.57216,2.5228 3.9732,5.84946 l 1.85786,4.39627 -1.41638,0.36789 c -0.77334,0.1941 -2.2053,0.0646 -3.18225,-0.27591 -1.05055,-0.36624 -1.76587,-0.39865 -1.76587,-0.0736 0,0.85661 4.47864,3.6197 6.56684,4.0468 1.50974,0.30878 2.59902,1.387 5.59192,5.53673 2.04742,2.83881 3.73409,5.3997 3.73409,5.68391 0,0.78637 -4.02344,1.95102 -5.66551,1.6371 -2.48092,-0.47424 -1.2177,0.94974 1.58193,1.78428 1.84034,0.54858 3.41245,0.62971 5.37119,0.25752 2.58176,-0.49058 2.8882,-0.43041 4.3227,1.06687 0.84699,0.88407 2.44127,2.10681 3.55014,2.70399 3.84845,2.07254 2.52401,2.69615 -5.84945,2.79598 -5.5677,0.0663 -6.92487,0.28356 -9.0133,1.39798 -4.31938,2.30491 -3.97466,3.19272 2.13376,5.51834 2.79331,1.06349 3.7484,1.16257 6.51165,0.6806 1.78059,-0.31055 3.74161,-0.78151 4.35949,-1.04849 1.00938,-0.43612 1.07562,-0.30119 0.73578,1.39798 -0.20802,1.04015 -1.54143,3.8112 -2.96151,6.14376 l -2.57523,4.23074 1.61872,0.18394 c 1.44962,0.16048 1.65512,0.46261 1.9866,2.96152 0.39329,2.9647 3.22524,9.35658 6.65882,15.00991 1.53888,2.53377 1.90347,3.59649 1.41638,4.08358 -0.70853,0.70852 -0.89265,5.58508 -0.27593,7.19224 0.20604,0.5369 1.00068,1.21743 1.76588,1.50835 0.83493,0.31744 1.39798,1.00867 1.39798,1.72909 0,0.72269 0.76136,1.6707 1.91303,2.37288 1.05216,0.64154 2.53986,1.15767 3.31101,1.15887 1.88061,0.003 5.37119,-2.20579 5.37119,-3.403 0,-0.52797 0.7199,-1.54208 1.60032,-2.24412 1.41828,-1.1309 1.58796,-1.65391 1.54513,-4.61702 -0.0266,-1.83941 -0.32168,-3.6327 -0.6622,-3.97321 -0.43306,-0.43307 0.005,-1.58061 1.45317,-3.84444 2.91501,-4.5569 5.925,-11.09908 6.78757,-14.734 0.61898,-2.60841 0.94733,-3.0903 2.07858,-3.09027 1.27625,0 1.18448,-0.27754 -1.76587,-5.83107 -1.70403,-3.20751 -2.95455,-5.98222 -2.77758,-6.16215 0.17698,-0.17991 1.63383,0.0752 3.23745,0.57023 3.63146,1.12105 6.91974,0.74703 11.22063,-1.28761 l 3.25583,-1.54514 -1.3428,-1.41638 c -2.04989,-2.18201 -6.87509,-3.33944 -12.67381,-3.03509 -3.8716,0.20321 -5.08035,0.0616 -5.64711,-0.62541 -0.57066,-0.69176 -0.57241,-0.92326 0.0183,-1.12207 0.41051,-0.13815 2.13224,-1.37488 3.82607,-2.74078 2.9247,-2.35847 3.20367,-2.44821 5.55513,-1.96821 2.67693,0.54643 6.66453,-0.2151 7.7073,-1.47156 0.46974,-0.56598 -0.0405,-0.7358 -2.26254,-0.73578 -1.77292,0 -3.20533,-0.33582 -3.75246,-0.88293 -0.78931,-0.78932 -0.67126,-1.16868 1.14045,-3.45817 1.11888,-1.41393 2.7657,-3.74165 3.66051,-5.16886 0.97443,-1.55424 2.22728,-2.72795 3.10868,-2.94311 2.24733,-0.54859 5.46787,-2.29039 6.64041,-3.58693 1.03896,-1.14888 1.01552,-1.15886 -1.63712,-0.55184 -3.93582,0.90065 -4.21469,0.2422 -2.02339,-4.92972 1.018,-2.40269 2.11051,-4.48026 2.42808,-4.59863 1.49166,-0.55603 4.84985,-4.08457 5.61032,-5.90464 0.96589,-2.31169 1.93201,-7.70731 1.37958,-7.70729 -0.20178,0 -0.85599,0.91453 -1.45317,2.02339 -0.59717,1.10888 -1.8174,2.71989 -2.72238,3.58693 l -1.65551,1.58193 -0.42307,-5.95982 c -0.23239,-3.27784 -0.6018,-6.07771 -0.82775,-6.21734 -0.38519,-0.23806 -1.86324,5.39373 -2.74078,10.48487 l -0.38629,2.28092 -2.06018,-2.07858 c -1.31221,-1.31224 -2.59195,-3.53384 -3.49495,-6.08858 l -1.41639,-4.0284 0.29433,4.32271 c 0.23201,3.33429 0.78869,5.38871 2.44647,8.92133 l 2.15215,4.58024 -0.99331,3.43976 c -0.55028,1.89293 -1.74723,5.10811 -2.66719,7.13707 -1.90488,4.20112 -3.00926,4.62448 -5.49996,2.13376 -1.7795,-1.77949 -1.90076,-1.37672 -0.66221,2.13377 1.38762,3.93291 1.15184,4.89399 -1.91302,7.74408 -4.67686,4.34911 -7.25015,6.07726 -8.07518,5.46316 -0.40787,-0.3036 -1.83787,-1.27559 -3.18226,-2.17055 -1.34438,-0.89497 -2.816,-2.48427 -3.27422,-3.53174 -0.7949,-1.81714 -0.83711,-1.84876 -0.88293,-0.42307 -0.0265,0.82183 0.49297,2.53763 1.14046,3.80766 0.64748,1.27001 1.17725,2.6547 1.17725,3.07188 0,1.07189 -3.79944,0.96716 -4.709,-0.12877 -0.40302,-0.48561 -1.06522,-0.88295 -1.47155,-0.88293 -0.40634,0 -1.06854,0.3973 -1.47156,0.88293 -0.9702,1.16902 -4.70899,1.20043 -4.70899,0.0368 0,-0.47126 0.6622,-1.84244 1.47156,-3.03509 0.92095,-1.35711 1.45093,-2.9559 1.43476,-4.28592 l -0.0183,-2.13377 -0.82776,2.35451 c -0.45753,1.29496 -1.29001,2.61935 -1.83945,2.94311 -0.54945,0.32374 -1.9002,1.36234 -2.9983,2.2993 -1.85198,1.58024 -2.10632,1.64421 -3.55013,0.88295 -0.8561,-0.45137 -3.23661,-2.41101 -5.27923,-4.3595 -4.0793,-3.89135 -4.34078,-4.79736 -2.81436,-9.12366 1.2274,-3.47882 1.11845,-3.67529 -0.84614,-1.7107 -2.66921,2.66921 -3.74047,2.28809 -5.66551,-1.96821 -0.91513,-2.0234 -2.11313,-5.25851 -2.64881,-7.19226 l -0.95651,-3.51334 2.005,-4.26752 c 1.43746,-3.02686 2.10692,-5.31395 2.28092,-7.94643 l 0.23913,-3.71568 -1.03009,2.79595 c -1.18097,3.18842 -3.93772,6.91631 -5.11367,6.91634 -0.49431,0 -0.94214,-1.04877 -1.19564,-2.79597 -0.55273,-3.8094 -2.17716,-10.25754 -2.50167,-9.93303 z m 52.79222,63.49782 2.46486,4.59862 c 2.05998,3.86618 2.32848,4.7702 1.6923,5.53675 -0.41686,0.50227 -1.08459,0.90131 -1.48995,0.90132 -0.40539,0 -1.33653,1.8514 -2.06019,4.10197 -0.72366,2.2506 -2.71368,6.5867 -4.43307,9.63873 -2.94744,5.23184 -3.10749,5.67782 -2.59363,7.96481 0.67456,3.00229 -0.0807,6.74062 -1.72908,8.49826 -3.93286,4.19344 -5.08009,5.1595 -6.47487,5.46316 -0.8525,0.18559 -1.87624,0.44556 -2.28091,0.57024 -0.57513,0.17718 -0.73579,6.3296 -0.73579,28.19876 l 0,27.97803 -41.20367,0 -41.20368,0 0,-44.7722 0,-44.75382 2.63042,-1.17725 c 8.19366,-3.62444 27.78441,-6.49127 50.45611,-7.37619 5.72074,-0.22329 10.62776,-0.56066 10.90793,-0.75417 0.28019,-0.19352 1.0937,-1.29739 1.80266,-2.46487 l 1.28763,-2.13376 -11.62534,0.16555 c -25.50131,0.33491 -50.91376,4.41561 -58.54968,9.41798 l -2.20734,1.45317 0,38.26055 0,38.24216 -3.29262,0 c -2.80719,0 -3.24086,-0.14867 -3.07188,-1.0301 0.10861,-0.56655 1.02613,-1.28913 2.04179,-1.61871 1.76531,-0.57282 1.81322,-0.67422 1.04849,-2.13375 -1.08925,-2.07892 -3.76603,-3.08415 -7.33941,-2.74079 -2.80028,0.26907 -2.95853,0.22476 -3.23743,-1.23243 -2.10573,-11.00204 -5.70299,-14.31264 -16.00321,-14.6972 -3.69449,-0.13793 -5.46317,0.005 -5.46317,0.44147 0,0.35499 0.38462,0.64379 0.86454,0.6438 0.47994,0 2.06922,1.15549 3.53175,2.55684 2.83365,2.71511 3.31848,4.47731 1.76587,6.53006 -0.47532,0.62841 -0.86454,2.01903 -0.86454,3.09027 l 0,1.94982 -3.12706,0 c -2.33615,0 -3.46725,0.31422 -4.43308,1.21402 l -1.28762,1.19564 -0.60702,-1.60032 c -1.14831,-3.02028 -0.51457,-4.50126 2.53845,-5.9598 2.52113,-1.20447 2.79596,-1.53423 2.79596,-3.32941 0,-1.52755 -0.46481,-2.39241 -1.96821,-3.6789 l -1.94981,-1.6739 1.80265,-3.23743 c 1.57766,-2.81838 1.82106,-3.80473 1.82106,-7.67052 0,-3.25978 -0.28234,-4.86411 -1.04848,-6.03339 -1.14294,-1.74432 -2.77758,-2.13353 -2.77758,-0.66219 0,1.3437 -3.23798,4.35948 -4.6722,4.35948 -1.43546,0 -1.5174,-0.64038 -0.38629,-2.81436 1.71839,-3.30267 5.60679,-5.79319 10.0434,-6.40128 l 2.6672,-0.36789 -1.306,2.88795 c -1.80894,3.969 -1.87479,10.61109 -0.12876,12.94971 2.29152,3.06926 4.04159,3.95327 7.78086,3.91804 7.62143,-0.0718 11.01558,-4.06213 10.63203,-12.50827 -0.2047,-4.50759 -0.29754,-4.75109 -2.50166,-7.0083 l -2.28091,-2.3361 1.74747,-2.83275 c 4.21017,-6.87033 4.0867,-11.1859 -0.47825,-17.21725 -1.24588,-1.64609 -2.4254,-3.65301 -2.63041,-4.46987 -0.59201,-2.35872 -2.94927,-3.82607 -6.14377,-3.82605 -1.81563,0 -3.05261,-0.32024 -3.55013,-0.91973 -1.3518,-1.6288 -3.96634,-2.61203 -6.93473,-2.61201 -3.02116,0 -4.23629,0.66301 -8.22234,4.37788 -1.8208,1.69693 -2.23304,1.80265 -6.41969,1.80267 -4.69751,0 -6.03921,0.76542 -3.43977,1.94982 0.8088,0.36852 1.86453,1.6233 2.35449,2.79596 2.4082,5.7636 7.40464,9.48247 11.90125,8.86615 2.78474,-0.38169 6.61806,-2.10846 7.79927,-3.53175 0.66759,-0.80439 0.93265,-0.77449 2.42807,0.33111 1.44263,1.06658 2.183,1.18431 5.24243,0.86454 l 3.56853,-0.36789 0,1.9866 c 0,1.26297 -0.69561,3.02696 -1.91302,4.83776 l -1.91303,2.83275 -7.65211,0.0183 c -6.79571,0.0151 -7.94662,0.16341 -10.15377,1.34279 -7.94328,4.24452 -12.94928,13.12375 -14.40289,25.51318 -1.34729,11.48326 1.95735,19.79343 10.0618,25.29243 1.63628,1.11024 2.98995,2.22824 2.9983,2.46486 0.0306,0.86735 -3.0961,1.16914 -5.27922,0.51504 -3.63614,-1.0894 -6.12052,0.34363 -6.84276,3.95483 -0.37958,1.89788 0.51521,2.65218 1.15885,0.97491 0.73319,-1.91066 2.48553,-0.90388 4.08358,2.35449 1.22296,2.49356 1.88131,3.24965 2.90634,3.25583 2.85352,0.0172 3.9916,0.66033 3.9916,2.28091 0,2.03778 -1.52978,4.17554 -2.97991,4.17555 -0.62913,0 -1.14045,0.30989 -1.14045,0.6806 0,0.86446 7.31024,0.31839 9.58353,-0.71739 0.87688,-0.39954 2.10241,-1.62203 2.74078,-2.70399 1.44106,-2.44242 2.25363,-2.45244 8.05679,-0.12876 5.59045,2.23852 13.0357,3.63559 16.99652,3.20065 l 2.94312,-0.3127 -2.79596,1.47154 c -5.3871,2.84672 -12.98834,4.01963 -16.739,2.59363 -1.92648,-0.73244 -2.52605,-1.52777 -2.53844,-3.3478 -0.008,-1.11601 -0.32911,-1.32442 -2.04179,-1.32439 -5.50154,0 -6.90194,2.59498 -5.53674,10.28252 0.13865,0.78076 -0.16049,1.22557 -0.95652,1.37958 -2.73053,0.52833 -5.09169,2.18386 -7.39458,5.16886 -2.65483,3.44114 -5.5344,5.53672 -7.57854,5.53674 -0.70989,0 -1.11998,0.26461 -0.91973,0.58862 0.20009,0.32375 1.05189,0.58861 1.89463,0.58863 0.84275,0 2.74546,0.72486 4.23074,1.60032 1.48529,0.87548 3.76352,1.73517 5.05849,1.91303 l 2.3545,0.3127 -0.0368,2.94312 c -0.016,1.61756 -0.22165,3.35697 -0.45987,3.86285 -0.38055,0.80817 0.0665,0.86226 3.66051,0.47826 5.2885,-0.56508 7.16764,-1.58883 10.04339,-5.48157 2.79275,-3.78038 3.56854,-4.36553 3.56854,-2.70399 0,2.89629 -1.65069,5.14882 -5.77588,7.89124 -11.27811,7.49768 -16.59183,15.64217 -16.59183,25.42119 0,5.38713 1.94099,10.72953 6.29092,17.23565 3.71955,5.56328 5.45086,9.77978 4.43307,10.79757 -0.32585,0.32585 -0.83186,0.18128 -1.28762,-0.36789 -1.18227,-1.42455 -3.48111,-1.0807 -5.37119,0.80936 -1.45421,1.45422 -1.71069,2.17695 -1.71069,4.72738 0,3.20231 0.90055,5.53387 2.81436,7.26583 1.16303,1.05253 1.14431,1.07752 -0.53344,4.12036 -1.17079,2.12341 -1.6849,3.90488 -1.6923,5.81267 -0.01,2.56416 0.23671,3.01328 3.73409,6.82433 2.06267,2.24766 3.88758,4.46259 4.04679,4.91136 0.60465,1.70415 1.29784,-0.2763 1.37959,-3.93642 0.0975,-4.3673 1.06362,-5.91173 4.06518,-6.47487 1.04116,-0.1953 2.65355,-0.85297 3.56853,-1.45313 1.64766,-1.08089 1.67724,-1.07171 3.3662,0.34946 1.57314,1.3237 5.00374,1.96778 5.86784,1.10367 0.18062,-0.18064 0.0357,-1.08194 -0.3127,-2.00502 -0.52908,-1.4017 -0.3872,-2.21823 0.86453,-4.98488 l 1.50835,-3.31101 1.26922,3.10867 c 0.69785,1.71145 1.59553,3.77087 2.00501,4.58023 0.97427,1.9258 3.52707,2.27868 4.6722,0.64384 0.77328,-1.10403 0.9515,-0.76975 2.46486,4.46983 1.88131,6.51341 2.13881,11.80946 0.68059,14.03501 -1.75103,2.6724 0.26987,1.54335 3.99162,-2.22585 5.33835,-5.40618 8.58578,-13.19308 8.60862,-20.63852 0.008,-2.57661 0.11394,-2.80818 1.19564,-2.46486 2.38908,0.75827 4.61488,-0.37383 8.7006,-4.45147 2.7204,-2.71502 4.55106,-4.08359 5.46316,-4.08359 1.09813,0 1.21487,-0.14696 0.62542,-0.73578 -0.50142,-0.50088 -2.84874,-0.73317 -7.3578,-0.73578 -8.2633,-0.005 -9.17368,-0.50648 -13.51996,-7.35779 -1.77413,-2.79669 -6.20207,-5.65391 -10.11697,-6.53005 l -3.23743,-0.71738 1.6371,-0.99331 c 4.32404,-2.65001 7.22696,-7.23316 8.31431,-13.11528 0.8337,-4.50984 2.74152,-8.77006 4.81936,-10.76077 0.94436,-0.90476 1.7888,-1.53626 1.87625,-1.39799 0.0875,0.13828 1.03133,2.11168 2.11536,4.3779 11.74726,24.55768 36.44877,47.99061 69.75194,66.16498 4.80995,2.62489 9.34982,4.76412 10.08018,4.76412 4.31519,0 27.32667,-14.02406 41.22207,-25.12681 16.31372,-13.03502 30.3124,-29.64017 37.70872,-44.73541 1.55363,-3.17083 2.90907,-5.89364 3.0167,-6.0334 0.10763,-0.13974 1.1006,0.638 2.20734,1.71069 2.35804,2.2855 4.13444,6.13078 5.22404,11.31262 1.29605,6.16374 3.86804,10.18205 8.20395,12.83935 l 1.61871,0.99331 -3.23743,0.71738 c -3.91491,0.87612 -8.34285,3.73334 -10.11697,6.53005 -4.34628,6.85133 -5.25668,7.35305 -13.51996,7.35779 -4.50905,0.002 -6.85639,0.23487 -7.35781,0.73578 -0.58945,0.58885 -0.47271,0.73578 0.62543,0.73578 0.91209,0 2.74276,1.3686 5.46316,4.08359 4.08572,4.07763 6.31152,5.20974 8.7006,4.45147 1.08171,-0.34332 1.18774,-0.11172 1.19564,2.46486 0.0229,7.44544 3.27027,15.23234 8.60862,20.63852 3.72175,3.7692 5.74264,4.89825 3.9916,2.22585 -1.45254,-2.21692 -1.19979,-7.53325 0.66222,-13.97986 1.59219,-5.51246 1.62877,-5.56344 2.74077,-4.45141 0.62056,0.62053 1.6936,1.03892 2.39128,0.93809 1.334,-0.19277 1.95654,-1.15459 4.0284,-6.23573 l 1.26922,-3.10867 1.50835,3.31101 c 1.25173,2.76665 1.39362,3.58324 0.86454,4.98488 -0.7695,2.03863 -0.53211,2.33613 1.93142,2.33613 1.20188,0 2.6023,-0.55602 3.73409,-1.50835 l 1.80265,-1.52671 1.47157,1.15882 c 0.80978,0.637 2.36668,1.32199 3.45816,1.52671 3.0944,0.58056 4.05887,2.09308 4.15715,6.49329 0.0817,3.66012 0.77495,5.64057 1.3796,3.93642 0.15922,-0.44877 1.98412,-2.6637 4.04679,-4.91136 3.49738,-3.81105 3.74401,-4.26017 3.73408,-6.82433 -0.008,-1.90779 -0.5215,-3.68926 -1.6923,-5.81267 -1.67775,-3.04281 -1.67805,-3.06783 -0.51504,-4.12036 1.91382,-1.73198 2.81438,-4.06352 2.81436,-7.26583 0,-2.55043 -0.27488,-3.27316 -1.72908,-4.72738 -1.89009,-1.89009 -4.18893,-2.23391 -5.3712,-0.80936 -0.45576,0.54917 -0.96175,0.69374 -1.28761,0.36789 -1.0178,-1.01779 0.7135,-5.23429 4.43308,-10.79757 4.34991,-6.50612 6.30932,-11.84851 6.3093,-17.23565 0,-9.77904 -5.33211,-17.92352 -16.61023,-25.42119 -4.12518,-2.7424 -5.75746,-4.99497 -5.75748,-7.89124 0,-1.66154 0.75742,-1.0764 3.55014,2.70399 2.87575,3.89275 4.7549,4.91647 10.0434,5.48157 3.59407,0.38402 4.04104,0.32993 3.66051,-0.47826 -0.23822,-0.50589 -0.44393,-2.24529 -0.45987,-3.86285 l -0.0183,-2.94312 2.35447,-0.3127 c 1.29499,-0.17786 3.55482,-1.03755 5.0401,-1.91303 1.4853,-0.87547 3.38799,-1.60034 4.23074,-1.60032 0.84275,0 1.71296,-0.2649 1.91303,-0.58863 0.20272,-0.32799 -0.2485,-0.58864 -1.0117,-0.58862 -2.00388,0 -5.32909,-2.47936 -7.76247,-5.79426 -2.00092,-2.7258 -4.3991,-4.38513 -7.11868,-4.91134 -0.79602,-0.15402 -1.11355,-0.59882 -0.97491,-1.37958 1.3652,-7.68752 -0.0352,-10.28255 -5.53674,-10.28252 -1.71268,0 -2.03421,0.20836 -2.04179,1.32439 -0.0124,1.82006 -0.61195,2.61536 -2.53844,3.3478 -3.75067,1.426 -11.35189,0.25312 -16.73899,-2.59363 l -2.77757,-1.47154 2.94312,0.3127 c 3.96082,0.43496 11.38767,-0.96211 16.97812,-3.20065 5.80316,-2.3237 6.61574,-2.31366 8.05679,0.12876 0.63837,1.08195 1.8823,2.30445 2.75917,2.70399 2.2733,1.03578 9.58355,1.58185 9.58354,0.71739 0,-0.3707 -0.52971,-0.68061 -1.15886,-0.6806 -1.45012,0 -2.96149,-2.13777 -2.96151,-4.17555 0,-1.61803 1.11615,-2.26357 3.95482,-2.28091 1.01521,-0.006 1.72832,-0.83406 3.10867,-3.56853 1.59752,-3.16467 1.90533,-3.46177 2.94312,-2.90633 0.63928,0.34213 1.17726,0.86489 1.17724,1.17724 0,0.31236 0.29801,0.57022 0.66221,0.57023 0.81471,0 0.23777,-3.32224 -0.79097,-4.56183 -1.25292,-1.50968 -3.37778,-1.96931 -5.77587,-1.25084 -2.18312,0.65409 -5.30982,0.35232 -5.27922,-0.51504 0.008,-0.23664 1.36204,-1.35463 2.99831,-2.46486 8.08719,-5.48727 11.40755,-13.81707 10.06178,-25.21885 -1.48527,-12.58353 -6.38115,-21.30032 -14.40289,-25.58676 -2.20715,-1.17938 -3.33963,-1.32768 -10.13537,-1.34279 l -7.65211,-0.0183 -1.91302,-2.83275 c -1.21741,-1.81079 -1.91301,-3.57479 -1.91303,-4.83776 l 0,-1.9866 3.55013,0.36789 c 3.05944,0.31977 3.79983,0.20205 5.24244,-0.86454 1.49542,-1.10562 1.77887,-1.13548 2.44647,-0.33111 1.1812,1.42326 4.99612,3.15005 7.78087,3.53175 4.49661,0.61632 9.49307,-3.10254 11.90124,-8.86615 0.48998,-1.17268 1.54568,-2.42746 2.35449,-2.79596 2.59945,-1.18439 1.27613,-1.94984 -3.42137,-1.94982 -4.18664,0 -4.61729,-0.10575 -6.43807,-1.80267 -3.98606,-3.71486 -5.20118,-4.3779 -8.22234,-4.37788 -2.96841,0 -5.58295,0.98322 -6.93473,2.61201 -0.49753,0.59949 -1.73451,0.91971 -3.55014,0.91973 -3.19451,0 -5.55174,1.46733 -6.14376,3.82605 -0.20501,0.81686 -1.38455,2.82378 -2.63041,4.46987 -4.56495,6.03134 -4.68844,10.34691 -0.47826,17.21725 l 1.74747,2.83275 -2.28091,2.3361 c -2.20411,2.25721 -2.29695,2.50071 -2.50165,7.0083 -0.38356,8.44614 3.01061,12.43649 10.63201,12.50827 3.73928,0.0352 5.50775,-0.84879 7.79927,-3.91804 1.74603,-2.33862 1.68018,-8.9807 -0.12876,-12.94971 l -1.32441,-2.88795 2.66721,0.36789 c 4.43661,0.60811 8.34341,3.09861 10.06179,6.40128 1.13111,2.17398 1.03078,2.81436 -0.40468,2.81436 -1.43421,0 -4.65378,-3.01578 -4.6538,-4.35948 0,-1.47134 -1.65303,-1.08213 -2.79597,0.66219 -0.76614,1.16928 -1.03008,2.77361 -1.03009,6.03339 0,3.86579 0.22501,4.85211 1.80265,7.67052 l 1.82106,3.23743 -1.96821,1.6739 c -1.5034,1.28649 -1.94979,2.15135 -1.94982,3.6789 0,1.79516 0.27485,2.12492 2.79597,3.32941 3.05301,1.45855 3.66834,2.93952 2.52005,5.9598 l -0.60702,1.60032 -1.28762,-1.19564 c -0.96582,-0.8998 -2.07852,-1.21405 -4.41468,-1.21402 l -3.12707,0 0,-1.94982 c 0,-1.07124 -0.3892,-2.46186 -0.86453,-3.09027 -1.55262,-2.05275 -1.08617,-3.81495 1.74747,-6.53006 1.46253,-1.40135 3.05182,-2.55685 3.53175,-2.55684 0.47992,0 0.88294,-0.28881 0.88294,-0.6438 0,-0.43647 -1.76871,-0.5794 -5.46318,-0.44147 -4.44557,0.16597 -6.01256,0.4871 -8.38789,1.71069 -4.41592,2.27476 -6.12506,5.20024 -7.61531,12.98651 -0.2789,1.45719 -0.45555,1.50149 -3.25583,1.23243 -3.57338,-0.34336 -6.25017,0.66187 -7.33941,2.74079 -0.76473,1.45953 -0.71682,1.56092 1.04848,2.13375 1.01568,0.3296 1.94832,1.07201 2.06019,1.65551 0.18021,0.93979 -0.19584,1.04061 -3.23743,0.88294 l -3.42137,-0.18394 -0.16556,-37.34084 -0.14715,-37.34083 -1.32441,-1.41637 c -0.72598,-0.77746 -2.10119,-1.82249 -3.05348,-2.31771 -8.96526,-4.66228 -32.72615,-8.33913 -56.10322,-8.6822 l -11.33101,-0.16555 z m -58.08983,29.94624 c -1.69718,0.0117 -3.52583,0.13757 -5.6839,0.38628 -7.59605,0.87545 -10.34922,1.74674 -10.99991,3.45817 -0.27791,0.73098 -1.2842,5.51896 -2.22573,10.63203 -0.94152,5.11305 -2.42729,11.09127 -3.311,13.29921 -0.88373,2.20794 -1.47341,4.1553 -1.30601,4.32271 0.56123,0.56124 8.3001,1.34176 13.50155,1.36119 2.83275,0.0106 5.15046,0.24042 5.15046,0.51505 0,0.27463 -1.04568,0.91671 -2.31771,1.41638 -2.04137,0.80186 -2.41435,1.26355 -3.21903,3.9732 -0.63203,2.12828 -0.74855,3.39313 -0.34949,4.13877 1.48686,2.77824 0.12978,12.27153 -2.11538,14.75238 -1.28464,1.41953 -1.0291,1.68254 2.48327,2.31771 3.61574,0.65386 16.31161,0.28661 19.09348,-0.55183 l 2.11537,-0.64382 -1.72909,-3.49494 c -1.98729,-4.0095 -2.75265,-9.94719 -1.67389,-13.04171 0.5797,-1.66292 0.48526,-2.30642 -0.66221,-4.61702 -1.09591,-2.20682 -1.71678,-2.77068 -3.53173,-3.21903 -3.32664,-0.82178 -2.65607,-1.52132 1.47156,-1.52675 4.62338,-0.006 14.09999,-1.07669 14.6788,-1.6555 0.2394,-0.2394 -0.20541,-2.29621 -0.9933,-4.56183 -1.20676,-3.47001 -2.86602,-11.01885 -4.89293,-22.31253 -0.52543,-2.9276 -2.073,-3.78225 -8.53505,-4.63541 -1.68326,-0.22224 -3.25094,-0.32441 -4.94813,-0.31271 z m 84.44914,7.48656 c 4.89039,-6e-5 9.88871,0.18674 11.33102,0.53344 2.33843,0.56212 2.70018,1.61835 2.06018,5.88623 -0.27599,1.84039 -1.5231,4.24807 -4.24913,8.24074 -2.12031,3.10551 -4.20321,6.48899 -4.63542,7.52334 -0.85523,2.04689 -0.74718,2.2675 5.13207,10.96313 2.56454,3.79305 3.82605,7.2996 4.37789,12.17717 0.34555,3.05418 0.26617,3.62369 -0.49665,3.6237 -0.49865,0 -1.54688,-0.73939 -2.31771,-1.65549 -0.77084,-0.91609 -3.2474,-3.33312 -5.49995,-5.3712 -2.25257,-2.03811 -4.5264,-4.36368 -5.05848,-5.16885 l -0.97491,-1.47156 -4.81936,4.59861 c -4.98231,4.76007 -6.70481,7.17546 -5.97822,8.35112 0.85491,1.38325 6.71775,2.04798 15.50656,1.76587 8.62182,-0.27675 11.5844,0.20436 5.62872,0.91971 -4.95678,0.59538 -17.57136,0.36308 -20.45468,-0.38628 l -2.64881,-0.69898 0.0736,-4.12037 c 0.11146,-5.39138 1.7301,-9.56523 5.83106,-15.04671 1.78884,-2.39102 3.41053,-4.98139 3.60532,-5.75747 0.43311,-1.72562 -1.2943,-5.48195 -4.48826,-9.71229 -3.01434,-3.99247 -4.71132,-7.78703 -4.72738,-10.61363 -0.0119,-2.07827 0.11506,-2.22765 1.3244,-1.89464 3.42082,0.94198 13.05472,1.63744 17.18047,1.25083 2.48913,-0.23326 4.4043,-0.54381 4.24911,-0.69899 -0.15517,-0.15518 -4.20732,-0.36062 -9.01329,-0.45987 -4.89632,-0.10109 -9.77257,-0.51959 -11.09188,-0.93811 l -2.3545,-0.73578 1.76587,-0.57023 c 1.06955,-0.34674 5.852,-0.53338 10.74239,-0.53344 z m -154.71612,9.0133 c 0.46969,-0.0639 0.85013,0.41085 1.23243,1.41637 0.91302,2.40143 0.68533,4.8698 -0.58862,6.14377 -1.20934,1.20934 -1.52795,1.30261 -2.79596,0.79096 -1.13084,-0.4563 -0.88071,-4.3917 0.42307,-6.53004 0.70309,-1.15314 1.25939,-1.75719 1.72908,-1.82106 z m 223.60351,0 c 0.50714,-0.0797 1.10367,0.52375 1.89464,1.82106 1.43065,2.34645 1.56544,6.05787 0.23913,6.56682 -1.29056,0.49524 -1.27607,0.48978 -2.59362,-0.82774 -1.27396,-1.27394 -1.52005,-3.74234 -0.60702,-6.14377 0.33451,-0.87982 0.67245,-1.35435 1.06687,-1.41637 z m -60.11321,1.47156 c -0.38112,-0.01 -1.26738,0.2166 -2.29932,0.60702 -3.25125,1.23003 -12.21424,1.40113 -13.59353,0.25752 -1.98416,-1.64517 -1.01528,0.77919 2.31771,5.75748 1.81515,2.71118 3.68712,5.84659 4.15715,6.97152 0.47002,1.12491 0.96591,1.92203 1.10367,1.78427 0.51696,-0.51696 8.51666,-14.87411 8.51666,-15.28583 0,-0.0591 -0.0753,-0.0887 -0.20234,-0.092 z m -52.18519,56.12162 41.84749,0 41.86587,0 -0.29432,15.45138 c -0.39822,20.33428 -1.78303,27.02265 -8.38788,40.7622 -11.3918,23.69743 -34.79695,46.45986 -65.48442,63.66334 -3.7973,2.1288 -7.49391,4.09752 -8.22234,4.37793 l -1.3244,0.51505 0,-62.39417 0,-62.37573 z m -35.04152,15.45138 c 16.59968,-10e-6 30.05662,13.44079 30.05662,29.98302 -1e-5,16.54226 -13.45693,29.96465 -30.05662,29.96464 -16.59968,0 -30.07501,-13.42238 -30.07501,-29.96464 0,-2.85251 0.41055,-5.60729 1.15886,-8.22233 l -0.0736,0 -8.16715,0.58862 10.54004,-6.3461 c 5.04329,-9.51466 15.07924,-16.00321 26.61684,-16.00321 z m 0,1.9866 c -9.46682,0 -17.84355,4.66664 -22.93794,11.80927 l 18.0818,-10.87115 31.67531,18.6888 c -3.55728,-11.3713 -14.21863,-19.62692 -26.81917,-19.62692 z m 78.50772,9.80426 c -9.54779,0.16253 -22.00646,7.1414 -26.065,15.28583 -2.75031,5.51913 -1.81146,8.93262 3.77087,13.64872 3.85549,3.25725 8.2142,5.41537 13.15206,6.51165 1.99525,0.44298 4.43675,1.06383 5.40798,1.37958 2.37737,0.77292 2.05997,0.79392 5.3528,-0.18393 4.08888,-1.21428 5.60474,-2.89947 10.0434,-11.20225 2.28336,-4.27118 2.55228,-10.36941 0.75417,-16.42629 -1.64616,-5.54516 -3.6198,-7.54544 -8.53505,-8.64542 -1.21189,-0.27121 -2.51727,-0.3911 -3.88123,-0.36789 z m 1.76587,1.56354 c 1.36254,0.007 2.44646,0.12494 2.44646,0.40467 0,0.20357 -0.92708,1.3946 -2.06018,2.64881 -1.1331,1.25421 -2.0521,2.61295 -2.04178,3.01671 0.0103,0.40374 1.28545,-0.68465 2.83275,-2.42808 l 2.79595,-3.16386 2.18896,1.89463 c 1.9753,1.73435 2.15416,2.17388 2.15215,4.92974 -0.002,1.94897 -0.39427,3.69936 -1.12206,4.89293 l -1.14046,1.85785 -2.77757,-1.41639 c -1.7951,-0.90879 -3.7667,-1.40083 -5.49996,-1.37958 l -2.68559,0.0368 3.53174,1.08527 c 1.94247,0.59474 4.26016,1.23215 5.15046,1.43477 0.8903,0.20261 1.61871,0.6066 1.61871,0.88294 0,0.42196 -3.9795,4.20252 -6.25413,5.94142 -2.08557,1.59436 -8.57561,4.32737 -11.93802,5.04009 -4.39802,0.93224 -5.23459,0.95046 -8.73739,0.16556 -3.60421,-0.80765 -6.03339,-3.44325 -6.03339,-6.53005 0,-2.75204 1.71033,-6.68901 3.73409,-8.59023 l 1.36119,-1.28761 2.59362,1.17724 c 1.428,0.64787 3.14178,1.15977 3.78927,1.14046 1.13433,-0.0338 -0.34397,-0.84064 -4.34111,-2.37288 -1.20918,-0.46353 -1.28514,-0.66034 -0.58863,-1.50835 0.43988,-0.53556 1.96782,-1.71711 3.40299,-2.63043 l 2.61202,-1.65549 1.15885,2.6304 c 0.6295,1.45424 1.36869,2.64879 1.65551,2.64881 0.28681,0 0.0963,-0.99332 -0.42308,-2.20733 -0.51936,-1.21404 -1.07748,-2.51491 -1.23243,-2.88795 -0.23927,-0.57597 5.30847,-3.14547 6.78757,-3.14544 0.25132,0 0.39428,1.65548 0.3127,3.67889 l -0.14715,3.6789 0.58863,-3.23744 c 0.33316,-1.78059 0.70548,-3.56854 0.82776,-3.9732 0.14286,-0.47283 3.21064,-0.78417 5.48155,-0.77257 z m 42.84078,7.57853 c 0.40481,0.0542 0.97742,0.55773 1.93143,1.32441 2.97679,2.39222 3.79023,4.36425 3.25582,7.92801 -0.47754,3.18451 -0.6439,3.20629 4.32271,-0.51504 3.36585,-2.52192 4.24914,-3.69165 4.24913,-5.72068 0,-1.07573 0.79269,-0.53931 4.56183,3.10867 2.509,2.42835 7.30731,6.89286 10.66881,9.91463 7.02683,6.31661 8.27643,8.41815 8.29592,13.94303 0.0176,4.97367 -1.35924,8.29064 -3.88124,9.3444 -2.40216,1.0037 -3.85089,0.98304 -7.46817,-0.12876 -2.0721,-0.6369 -2.97706,-1.27107 -3.40298,-2.39128 -0.66769,-1.75619 -0.3153,-3.29499 1.0117,-4.39628 0.78505,-0.65154 1.10256,-0.55289 2.04178,0.60702 0.61038,0.75378 1.12209,2.00406 1.12208,2.77755 0,1.9731 0.79363,1.74978 2.88793,-0.79095 1.94106,-2.35485 2.77029,-5.16554 2.11536,-7.22904 -0.49549,-1.56117 -3.59068,-2.94075 -6.60363,-2.94312 -2.13322,-0.002 -2.24044,-0.0766 -2.2809,-2.00499 -0.0272,-1.29486 -0.65691,-2.78587 -1.76588,-4.17556 -2.99569,-3.75395 -3.73956,-5.28372 -4.23073,-8.57184 -0.46928,-3.14148 -0.49949,-3.17266 -1.32441,-1.72908 -0.51941,0.90896 -0.87131,3.33513 -0.91971,6.34611 -0.0681,4.23664 -0.25859,5.07452 -1.45317,6.3461 l -1.3796,1.45316 -2.09697,-2.005 c -3.10691,-2.97358 -5.69296,-4.04987 -10.46646,-4.3595 -2.34714,-0.15224 -4.26752,-0.3237 -4.26752,-0.38628 0,-0.0626 0.61956,-1.95196 1.37958,-4.19395 0.76002,-2.24196 1.69871,-5.54043 2.09697,-7.321 0.7115,-3.18104 0.92565,-4.32098 1.60032,-4.23074 z m -175.31795,0.16555 1.25082,5.0033 c 0.68916,2.74773 1.74107,6.27006 2.3361,7.83606 l 1.06688,2.85114 -3.88123,0.27592 c -4.41822,0.31613 -7.07411,1.46481 -10.09859,4.3595 l -2.09697,2.005 -1.37958,-1.45316 c -1.19459,-1.27158 -1.38508,-2.10945 -1.45317,-6.3461 -0.0484,-3.01099 -0.4003,-5.43717 -0.91972,-6.34611 -0.82493,-1.44357 -0.85512,-1.4124 -1.32441,1.72908 -0.49119,3.28812 -1.23504,4.81788 -4.23073,8.57184 -1.10899,1.38969 -1.73869,2.88071 -1.76588,4.17556 -0.0405,1.9284 -0.12929,2.00334 -2.26252,2.00499 -3.01294,0.002 -6.10813,1.38196 -6.60362,2.94312 -0.65493,2.06349 0.15591,4.87418 2.09697,7.22904 2.0943,2.54073 2.90633,2.76405 2.90633,0.79095 0,-0.77347 0.49329,-2.02377 1.10367,-2.77755 0.93924,-1.15992 1.25673,-1.25859 2.04179,-0.60702 1.32575,1.10028 1.67735,2.6271 1.0117,4.37789 -0.43715,1.14981 -1.3316,1.73647 -3.66051,2.42806 -3.70544,1.10042 -4.95298,1.13088 -7.3394,0.092 -2.38658,-1.03899 -3.76956,-4.48227 -3.75248,-9.32601 0.0206,-5.85224 1.10219,-7.47177 10.87115,-16.31592 4.77312,-4.32128 9.57242,-8.78575 10.66881,-9.91465 1.83483,-1.88925 2.005,-1.95648 2.005,-0.75417 0,2.03346 0.86312,3.21584 4.23072,5.73909 4.95716,3.71424 4.785,3.7107 4.32272,0.3495 -0.47736,-3.47082 0.39336,-5.63056 3.09028,-7.61532 l 1.76587,-1.30602 z m 37.91105,0.0183 2.40968,27.88606 -8.64541,0 c 5.13138,5.45351 12.43394,8.86616 20.52826,8.86615 15.50835,0 28.08841,-12.51904 28.08841,-27.94125 0,-2.62846 -0.38382,-5.16631 -1.06689,-7.57852 l -8.33271,-0.60703 -3.0167,0 -4.12037,27.42621 -9.27082,-0.0368 2.35449,-27.99642 -18.92794,-0.0184 z m -12.60023,0.69899 c -0.78288,2.56653 -1.21404,5.29266 -1.21404,8.11197 0,6.95776 2.56712,13.31761 6.80597,18.21056 l -3.56852,-26.28574 -2.02341,-0.0368 z m 99.79015,5.33441 c -0.0233,0.002 -0.0422,0.0238 -0.0552,0.0368 -0.20211,0.20213 0.93301,1.68138 2.52006,3.29262 2.79181,2.83446 3.82605,3.48939 3.82605,2.42808 0,-0.7638 -5.56729,-5.81988 -6.29093,-5.75748 z m -9.30761,1.21404 c -0.22796,0.019 -0.56681,0.11329 -1.0301,0.29431 -3.75699,1.46795 -6.91632,2.97426 -6.91632,3.311 0,0.52319 2.74035,-0.1886 5.73908,-1.50834 2.09874,-0.92367 3.19519,-2.17968 2.20734,-2.09697 z m 1.30601,1.19563 c -0.57399,0.14549 -5.72069,6.50277 -5.72069,7.10028 0,0.52287 1.95285,-1.1012 3.91803,-3.25582 1.32916,-1.4573 2.26269,-3.42122 1.83945,-3.84446 -0.009,-0.009 -0.0183,-0.005 -0.0368,0 z m 4.41468,0.31272 c -0.51432,0 -2.00035,6.39783 -1.85785,8.0016 0.0265,0.29722 0.43063,-0.30979 0.88294,-1.3428 1.13937,-2.60209 1.72998,-6.65883 0.97491,-6.6588 z m -76.96257,3.01669 c 1.0626,0 1.91303,0.86882 1.91301,1.93143 0,1.0626 -0.85041,1.91303 -1.91301,1.91302 -1.06262,0 -1.93143,-0.85042 -1.93143,-1.91302 0,-1.06263 0.86881,-1.93143 1.93143,-1.93143 z"
       id="path2385"
       inkscape:connector-curvature="0" />
  </g>
</svg>
